STARTFONT 2.1
FONT -Misc-Fixed-Bold-R-Normal--13-120-75-75-C-80-ISO10646-1
SIZE 13 75 75
FONTBOUNDINGBOX 8 13 0 -2

STARTPROPERTIES 24
FONTNAME_REGISTRY ""
FOUNDRY "Misc"
FAMILY_NAME "Fixed"
WEIGHT_NAME "Bold"
SLANT "R"
SETWIDTH_NAME "Normal"
ADD_STYLE_NAME ""
PIXEL_SIZE 13
POINT_SIZE 120
RESOLUTION_X 75
RESOLUTION_Y 75
SPACING "C"
AVERAGE_WIDTH 80
CHARSET_REGISTRY "ISO10646"
CHARSET_ENCODING "1"
COPYRIGHT "Public domain font.  Share and enjoy."
_XMBDFED_INFO "Edited with xmbdfed 4.5."
CAP_HEIGHT 10
X_HEIGHT 7
WEIGHT 10
QUAD_WIDTH 8
DEFAULT_CHAR 0
FONT_DESCENT 2
FONT_ASCENT 11
ENDPROPERTIES

CHARS 1141

STARTCHAR char0
ENCODING 0
SWIDTH 568 0
DWIDTH 8 0
BBX 8 13 0 -2
BITMAP
00
AA
AA
00
82
82
00
82
82
00
AA
AA
00
ENDCHAR

STARTCHAR space
ENCODING 32
SWIDTH 568 0
DWIDTH 8 0
BBX 8 13 0 -2
BITMAP
00
00
00
00
00
00
00
00
00
00
00
00
00
ENDCHAR

STARTCHAR exclam
ENCODING 33
SWIDTH 568 0
DWIDTH 8 0
BBX 8 13 0 -2
BITMAP
00
18
18
18
18
18
18
18
00
18
18
00
00
ENDCHAR

STARTCHAR quotedbl
ENCODING 34
SWIDTH 568 0
DWIDTH 8 0
BBX 8 13 0 -2
BITMAP
00
6C
6C
6C
6C
00
00
00
00
00
00
00
00
ENDCHAR

STARTCHAR numbersign
ENCODING 35
SWIDTH 568 0
DWIDTH 8 0
BBX 8 13 0 -2
BITMAP
00
00
6C
6C
FE
FE
6C
FE
FE
6C
6C
00
00
ENDCHAR

STARTCHAR dollar
ENCODING 36
SWIDTH 568 0
DWIDTH 8 0
BBX 8 13 0 -2
BITMAP
00
10
7C
D6
D0
F0
7C
1E
16
D6
7C
10
00
ENDCHAR

STARTCHAR percent
ENCODING 37
SWIDTH 568 0
DWIDTH 8 0
BBX 8 13 0 -2
BITMAP
00
E6
A6
EC
18
18
30
30
6E
CA
CE
00
00
ENDCHAR

STARTCHAR ampersand
ENCODING 38
SWIDTH 568 0
DWIDTH 8 0
BBX 8 13 0 -2
BITMAP
00
00
00
00
78
CC
CC
78
CE
CC
7E
00
00
ENDCHAR

STARTCHAR quotesingle
ENCODING 39
SWIDTH 568 0
DWIDTH 8 0
BBX 8 13 0 -2
BITMAP
00
18
18
18
18
00
00
00
00
00
00
00
00
ENDCHAR

STARTCHAR parenleft
ENCODING 40
SWIDTH 568 0
DWIDTH 8 0
BBX 8 13 0 -2
BITMAP
00
0C
18
30
30
60
60
60
30
30
18
0C
00
ENDCHAR

STARTCHAR parenright
ENCODING 41
SWIDTH 568 0
DWIDTH 8 0
BBX 8 13 0 -2
BITMAP
00
60
30
18
18
0C
0C
0C
18
18
30
60
00
ENDCHAR

STARTCHAR asterisk
ENCODING 42
SWIDTH 568 0
DWIDTH 8 0
BBX 8 13 0 -2
BITMAP
00
00
00
10
10
FE
38
38
6C
44
00
00
00
ENDCHAR

STARTCHAR plus
ENCODING 43
SWIDTH 568 0
DWIDTH 8 0
BBX 8 13 0 -2
BITMAP
00
00
00
18
18
7E
7E
18
18
00
00
00
00
ENDCHAR

STARTCHAR comma
ENCODING 44
SWIDTH 568 0
DWIDTH 8 0
BBX 8 13 0 -2
BITMAP
00
00
00
00
00
00
00
3C
1C
1C
18
30
00
ENDCHAR

STARTCHAR hyphen
ENCODING 45
SWIDTH 568 0
DWIDTH 8 0
BBX 8 13 0 -2
BITMAP
00
00
00
00
00
00
7E
00
00
00
00
00
00
ENDCHAR

STARTCHAR period
ENCODING 46
SWIDTH 568 0
DWIDTH 8 0
BBX 8 13 0 -2
BITMAP
00
00
00
00
00
00
00
00
18
3C
18
00
00
ENDCHAR

STARTCHAR slash
ENCODING 47
SWIDTH 568 0
DWIDTH 8 0
BBX 8 13 0 -2
BITMAP
00
02
06
06
0C
18
30
60
C0
C0
80
00
00
ENDCHAR

STARTCHAR zero
ENCODING 48
SWIDTH 568 0
DWIDTH 8 0
BBX 8 13 0 -2
BITMAP
00
38
6C
C6
C6
C6
C6
C6
C6
6C
38
00
00
ENDCHAR

STARTCHAR one
ENCODING 49
SWIDTH 568 0
DWIDTH 8 0
BBX 8 13 0 -2
BITMAP
00
18
38
78
18
18
18
18
18
18
7E
00
00
ENDCHAR

STARTCHAR two
ENCODING 50
SWIDTH 568 0
DWIDTH 8 0
BBX 8 13 0 -2
BITMAP
00
7C
C6
C6
06
0C
18
30
60
C0
FE
00
00
ENDCHAR

STARTCHAR three
ENCODING 51
SWIDTH 568 0
DWIDTH 8 0
BBX 8 13 0 -2
BITMAP
00
FE
06
0C
18
3C
06
06
06
C6
7C
00
00
ENDCHAR

STARTCHAR four
ENCODING 52
SWIDTH 568 0
DWIDTH 8 0
BBX 8 13 0 -2
BITMAP
00
0C
1C
3C
6C
CC
CC
FE
0C
0C
0C
00
00
ENDCHAR

STARTCHAR five
ENCODING 53
SWIDTH 568 0
DWIDTH 8 0
BBX 8 13 0 -2
BITMAP
00
FE
C0
C0
FC
E6
06
06
06
C6
7C
00
00
ENDCHAR

STARTCHAR six
ENCODING 54
SWIDTH 568 0
DWIDTH 8 0
BBX 8 13 0 -2
BITMAP
00
3C
60
C0
C0
FC
E6
C6
C6
E6
7C
00
00
ENDCHAR

STARTCHAR seven
ENCODING 55
SWIDTH 568 0
DWIDTH 8 0
BBX 8 13 0 -2
BITMAP
00
FE
06
06
0C
18
18
30
30
30
30
00
00
ENDCHAR

STARTCHAR eight
ENCODING 56
SWIDTH 568 0
DWIDTH 8 0
BBX 8 13 0 -2
BITMAP
00
7C
C6
C6
C6
7C
C6
C6
C6
C6
7C
00
00
ENDCHAR

STARTCHAR nine
ENCODING 57
SWIDTH 568 0
DWIDTH 8 0
BBX 8 13 0 -2
BITMAP
00
7C
CE
C6
C6
CE
7E
06
06
0C
78
00
00
ENDCHAR

STARTCHAR colon
ENCODING 58
SWIDTH 568 0
DWIDTH 8 0
BBX 8 13 0 -2
BITMAP
00
00
00
18
3C
18
00
00
18
3C
18
00
00
ENDCHAR

STARTCHAR semicolon
ENCODING 59
SWIDTH 568 0
DWIDTH 8 0
BBX 8 13 0 -2
BITMAP
00
00
00
18
3C
18
00
3C
1C
1C
18
30
00
ENDCHAR

STARTCHAR less
ENCODING 60
SWIDTH 568 0
DWIDTH 8 0
BBX 8 13 0 -2
BITMAP
00
00
06
0C
18
30
60
30
18
0C
06
00
00
ENDCHAR

STARTCHAR equal
ENCODING 61
SWIDTH 568 0
DWIDTH 8 0
BBX 8 13 0 -2
BITMAP
00
00
00
00
00
7E
00
00
7E
00
00
00
00
ENDCHAR

STARTCHAR greater
ENCODING 62
SWIDTH 568 0
DWIDTH 8 0
BBX 8 13 0 -2
BITMAP
00
00
60
30
18
0C
06
0C
18
30
60
00
00
ENDCHAR

STARTCHAR question
ENCODING 63
SWIDTH 568 0
DWIDTH 8 0
BBX 8 13 0 -2
BITMAP
00
7C
C6
C6
06
0C
18
18
00
18
18
00
00
ENDCHAR

STARTCHAR at
ENCODING 64
SWIDTH 568 0
DWIDTH 8 0
BBX 8 13 0 -2
BITMAP
00
00
7C
FE
CE
DE
D2
D2
DE
E0
7E
00
00
ENDCHAR

STARTCHAR A
ENCODING 65
SWIDTH 568 0
DWIDTH 8 0
BBX 8 13 0 -2
BITMAP
00
38
7C
C6
C6
C6
FE
C6
C6
C6
C6
00
00
ENDCHAR

STARTCHAR B
ENCODING 66
SWIDTH 568 0
DWIDTH 8 0
BBX 8 13 0 -2
BITMAP
00
FC
66
66
66
7C
66
66
66
66
FC
00
00
ENDCHAR

STARTCHAR C
ENCODING 67
SWIDTH 568 0
DWIDTH 8 0
BBX 8 13 0 -2
BITMAP
00
7C
E6
C6
C0
C0
C0
C0
C6
E6
7C
00
00
ENDCHAR

STARTCHAR D
ENCODING 68
SWIDTH 568 0
DWIDTH 8 0
BBX 8 13 0 -2
BITMAP
00
FC
66
66
66
66
66
66
66
66
FC
00
00
ENDCHAR

STARTCHAR E
ENCODING 69
SWIDTH 568 0
DWIDTH 8 0
BBX 8 13 0 -2
BITMAP
00
FE
C0
C0
C0
F8
C0
C0
C0
C0
FE
00
00
ENDCHAR

STARTCHAR F
ENCODING 70
SWIDTH 568 0
DWIDTH 8 0
BBX 8 13 0 -2
BITMAP
00
FE
C0
C0
C0
F8
C0
C0
C0
C0
C0
00
00
ENDCHAR

STARTCHAR G
ENCODING 71
SWIDTH 568 0
DWIDTH 8 0
BBX 8 13 0 -2
BITMAP
00
7C
C6
C6
C0
C0
C0
CE
C6
C6
7C
00
00
ENDCHAR

STARTCHAR H
ENCODING 72
SWIDTH 568 0
DWIDTH 8 0
BBX 8 13 0 -2
BITMAP
00
C6
C6
C6
C6
FE
C6
C6
C6
C6
C6
00
00
ENDCHAR

STARTCHAR I
ENCODING 73
SWIDTH 568 0
DWIDTH 8 0
BBX 8 13 0 -2
BITMAP
00
3C
18
18
18
18
18
18
18
18
3C
00
00
ENDCHAR

STARTCHAR J
ENCODING 74
SWIDTH 568 0
DWIDTH 8 0
BBX 8 13 0 -2
BITMAP
00
0E
06
06
06
06
06
06
C6
C6
7C
00
00
ENDCHAR

STARTCHAR K
ENCODING 75
SWIDTH 568 0
DWIDTH 8 0
BBX 8 13 0 -2
BITMAP
00
C6
C6
CC
D8
F0
F0
D8
CC
C6
C6
00
00
ENDCHAR

STARTCHAR L
ENCODING 76
SWIDTH 568 0
DWIDTH 8 0
BBX 8 13 0 -2
BITMAP
00
C0
C0
C0
C0
C0
C0
C0
C0
C2
FE
00
00
ENDCHAR

STARTCHAR M
ENCODING 77
SWIDTH 568 0
DWIDTH 8 0
BBX 8 13 0 -2
BITMAP
00
C6
C6
EE
FE
D6
C6
C6
C6
C6
C6
00
00
ENDCHAR

STARTCHAR N
ENCODING 78
SWIDTH 568 0
DWIDTH 8 0
BBX 8 13 0 -2
BITMAP
00
C6
C6
E6
E6
F6
DE
CE
CE
C6
C6
00
00
ENDCHAR

STARTCHAR O
ENCODING 79
SWIDTH 568 0
DWIDTH 8 0
BBX 8 13 0 -2
BITMAP
00
7C
C6
C6
C6
C6
C6
C6
C6
C6
7C
00
00
ENDCHAR

STARTCHAR P
ENCODING 80
SWIDTH 568 0
DWIDTH 8 0
BBX 8 13 0 -2
BITMAP
00
FC
C6
C6
C6
C6
FC
C0
C0
C0
C0
00
00
ENDCHAR

STARTCHAR Q
ENCODING 81
SWIDTH 568 0
DWIDTH 8 0
BBX 8 13 0 -2
BITMAP
00
7C
C6
C6
C6
C6
C6
C6
C6
DE
7C
06
00
ENDCHAR

STARTCHAR R
ENCODING 82
SWIDTH 568 0
DWIDTH 8 0
BBX 8 13 0 -2
BITMAP
00
FC
C6
C6
C6
FC
F8
CC
CC
C6
C6
00
00
ENDCHAR

STARTCHAR S
ENCODING 83
SWIDTH 568 0
DWIDTH 8 0
BBX 8 13 0 -2
BITMAP
00
7C
C6
C6
C0
7C
06
06
C6
C6
7C
00
00
ENDCHAR

STARTCHAR T
ENCODING 84
SWIDTH 568 0
DWIDTH 8 0
BBX 8 13 0 -2
BITMAP
00
7E
18
18
18
18
18
18
18
18
18
00
00
ENDCHAR

STARTCHAR U
ENCODING 85
SWIDTH 568 0
DWIDTH 8 0
BBX 8 13 0 -2
BITMAP
00
C6
C6
C6
C6
C6
C6
C6
C6
C6
7C
00
00
ENDCHAR

STARTCHAR V
ENCODING 86
SWIDTH 568 0
DWIDTH 8 0
BBX 8 13 0 -2
BITMAP
00
C6
C6
C6
C6
44
6C
6C
38
38
10
00
00
ENDCHAR

STARTCHAR W
ENCODING 87
SWIDTH 568 0
DWIDTH 8 0
BBX 8 13 0 -2
BITMAP
00
C6
C6
C6
C6
C6
C6
D6
D6
FE
6C
00
00
ENDCHAR

STARTCHAR X
ENCODING 88
SWIDTH 568 0
DWIDTH 8 0
BBX 8 13 0 -2
BITMAP
00
C6
C6
6C
6C
38
38
6C
6C
C6
C6
00
00
ENDCHAR

STARTCHAR Y
ENCODING 89
SWIDTH 568 0
DWIDTH 8 0
BBX 8 13 0 -2
BITMAP
00
66
66
66
3C
3C
18
18
18
18
18
00
00
ENDCHAR

STARTCHAR Z
ENCODING 90
SWIDTH 568 0
DWIDTH 8 0
BBX 8 13 0 -2
BITMAP
00
FE
06
06
0C
18
30
60
C0
C0
FE
00
00
ENDCHAR

STARTCHAR bracketleft
ENCODING 91
SWIDTH 568 0
DWIDTH 8 0
BBX 8 13 0 -2
BITMAP
00
7C
60
60
60
60
60
60
60
60
60
7C
00
ENDCHAR

STARTCHAR backslash
ENCODING 92
SWIDTH 568 0
DWIDTH 8 0
BBX 8 13 0 -2
BITMAP
00
80
C0
C0
60
30
18
0C
06
06
02
00
00
ENDCHAR

STARTCHAR bracketright
ENCODING 93
SWIDTH 568 0
DWIDTH 8 0
BBX 8 13 0 -2
BITMAP
00
7C
0C
0C
0C
0C
0C
0C
0C
0C
0C
7C
00
ENDCHAR

STARTCHAR asciicircum
ENCODING 94
SWIDTH 568 0
DWIDTH 8 0
BBX 8 13 0 -2
BITMAP
00
10
38
6C
C6
00
00
00
00
00
00
00
00
ENDCHAR

STARTCHAR underscore
ENCODING 95
SWIDTH 568 0
DWIDTH 8 0
BBX 8 13 0 -2
BITMAP
00
00
00
00
00
00
00
00
00
00
00
FE
00
ENDCHAR

STARTCHAR grave
ENCODING 96
SWIDTH 568 0
DWIDTH 8 0
BBX 8 13 0 -2
BITMAP
00
30
18
0C
00
00
00
00
00
00
00
00
00
ENDCHAR

STARTCHAR a
ENCODING 97
SWIDTH 568 0
DWIDTH 8 0
BBX 8 13 0 -2
BITMAP
00
00
00
00
7C
06
7E
C6
C6
CE
76
00
00
ENDCHAR

STARTCHAR b
ENCODING 98
SWIDTH 568 0
DWIDTH 8 0
BBX 8 13 0 -2
BITMAP
00
C0
C0
C0
DC
E6
C6
C6
C6
E6
DC
00
00
ENDCHAR

STARTCHAR c
ENCODING 99
SWIDTH 568 0
DWIDTH 8 0
BBX 8 13 0 -2
BITMAP
00
00
00
00
7C
E6
C0
C0
C0
E6
7C
00
00
ENDCHAR

STARTCHAR d
ENCODING 100
SWIDTH 568 0
DWIDTH 8 0
BBX 8 13 0 -2
BITMAP
00
06
06
06
76
CE
C6
C6
C6
CE
76
00
00
ENDCHAR

STARTCHAR e
ENCODING 101
SWIDTH 568 0
DWIDTH 8 0
BBX 8 13 0 -2
BITMAP
00
00
00
00
7C
C6
C6
FE
C0
C6
7C
00
00
ENDCHAR

STARTCHAR f
ENCODING 102
SWIDTH 568 0
DWIDTH 8 0
BBX 8 13 0 -2
BITMAP
00
3C
66
60
60
60
FC
60
60
60
60
00
00
ENDCHAR

STARTCHAR g
ENCODING 103
SWIDTH 568 0
DWIDTH 8 0
BBX 8 13 0 -2
BITMAP
00
00
00
00
7E
CC
CC
CC
78
F0
7C
C6
7C
ENDCHAR

STARTCHAR h
ENCODING 104
SWIDTH 568 0
DWIDTH 8 0
BBX 8 13 0 -2
BITMAP
00
C0
C0
C0
DC
E6
C6
C6
C6
C6
C6
00
00
ENDCHAR

STARTCHAR i
ENCODING 105
SWIDTH 568 0
DWIDTH 8 0
BBX 8 13 0 -2
BITMAP
00
00
18
18
00
38
18
18
18
18
3C
00
00
ENDCHAR

STARTCHAR j
ENCODING 106
SWIDTH 568 0
DWIDTH 8 0
BBX 8 13 0 -2
BITMAP
00
00
06
06
00
0E
06
06
06
06
C6
C6
7C
ENDCHAR

STARTCHAR k
ENCODING 107
SWIDTH 568 0
DWIDTH 8 0
BBX 8 13 0 -2
BITMAP
00
C0
C0
C0
CC
D8
F0
F0
D8
CC
C6
00
00
ENDCHAR

STARTCHAR l
ENCODING 108
SWIDTH 568 0
DWIDTH 8 0
BBX 8 13 0 -2
BITMAP
00
38
18
18
18
18
18
18
18
18
3C
00
00
ENDCHAR

STARTCHAR m
ENCODING 109
SWIDTH 568 0
DWIDTH 8 0
BBX 8 13 0 -2
BITMAP
00
00
00
00
6C
FE
D6
D6
C6
C6
C6
00
00
ENDCHAR

STARTCHAR n
ENCODING 110
SWIDTH 568 0
DWIDTH 8 0
BBX 8 13 0 -2
BITMAP
00
00
00
00
DC
E6
C6
C6
C6
C6
C6
00
00
ENDCHAR

STARTCHAR o
ENCODING 111
SWIDTH 568 0
DWIDTH 8 0
BBX 8 13 0 -2
BITMAP
00
00
00
00
7C
C6
C6
C6
C6
C6
7C
00
00
ENDCHAR

STARTCHAR p
ENCODING 112
SWIDTH 568 0
DWIDTH 8 0
BBX 8 13 0 -2
BITMAP
00
00
00
00
DC
E6
C6
C6
C6
E6
DC
C0
C0
ENDCHAR

STARTCHAR q
ENCODING 113
SWIDTH 568 0
DWIDTH 8 0
BBX 8 13 0 -2
BITMAP
00
00
00
00
76
CE
C6
C6
C6
CE
76
06
06
ENDCHAR

STARTCHAR r
ENCODING 114
SWIDTH 568 0
DWIDTH 8 0
BBX 8 13 0 -2
BITMAP
00
00
00
00
DC
E6
C0
C0
C0
C0
C0
00
00
ENDCHAR

STARTCHAR s
ENCODING 115
SWIDTH 568 0
DWIDTH 8 0
BBX 8 13 0 -2
BITMAP
00
00
00
00
7C
C6
60
38
0C
C6
7C
00
00
ENDCHAR

STARTCHAR t
ENCODING 116
SWIDTH 568 0
DWIDTH 8 0
BBX 8 13 0 -2
BITMAP
00
60
60
60
60
FC
60
60
60
66
3C
00
00
ENDCHAR

STARTCHAR u
ENCODING 117
SWIDTH 568 0
DWIDTH 8 0
BBX 8 13 0 -2
BITMAP
00
00
00
00
C6
C6
C6
C6
C6
CE
76
00
00
ENDCHAR

STARTCHAR v
ENCODING 118
SWIDTH 568 0
DWIDTH 8 0
BBX 8 13 0 -2
BITMAP
00
00
00
00
C6
C6
C6
C6
6C
6C
38
00
00
ENDCHAR

STARTCHAR w
ENCODING 119
SWIDTH 568 0
DWIDTH 8 0
BBX 8 13 0 -2
BITMAP
00
00
00
00
C6
C6
C6
D6
D6
FE
6C
00
00
ENDCHAR

STARTCHAR x
ENCODING 120
SWIDTH 568 0
DWIDTH 8 0
BBX 8 13 0 -2
BITMAP
00
00
00
00
C6
C6
6C
38
6C
C6
C6
00
00
ENDCHAR

STARTCHAR y
ENCODING 121
SWIDTH 568 0
DWIDTH 8 0
BBX 8 13 0 -2
BITMAP
00
00
00
00
C6
C6
C6
C6
CE
76
06
C6
7C
ENDCHAR

STARTCHAR z
ENCODING 122
SWIDTH 568 0
DWIDTH 8 0
BBX 8 13 0 -2
BITMAP
00
00
00
00
FE
0C
18
30
60
C0
FE
00
00
ENDCHAR

STARTCHAR braceleft
ENCODING 123
SWIDTH 568 0
DWIDTH 8 0
BBX 8 13 0 -2
BITMAP
00
1E
30
30
30
18
70
18
30
30
30
1E
00
ENDCHAR

STARTCHAR bar
ENCODING 124
SWIDTH 568 0
DWIDTH 8 0
BBX 8 13 0 -2
BITMAP
00
18
18
18
18
18
18
18
18
18
18
00
00
ENDCHAR

STARTCHAR braceright
ENCODING 125
SWIDTH 568 0
DWIDTH 8 0
BBX 8 13 0 -2
BITMAP
00
78
0C
0C
0C
18
0E
18
0C
0C
0C
78
00
ENDCHAR

STARTCHAR asciitilde
ENCODING 126
SWIDTH 568 0
DWIDTH 8 0
BBX 8 13 0 -2
BITMAP
00
00
72
FE
9C
00
00
00
00
00
00
00
00
ENDCHAR

STARTCHAR space
ENCODING 160
SWIDTH 568 0
DWIDTH 8 0
BBX 8 13 0 -2
BITMAP
00
00
00
00
00
00
00
00
00
00
00
00
00
ENDCHAR

STARTCHAR exclamdown
ENCODING 161
SWIDTH 568 0
DWIDTH 8 0
BBX 8 13 0 -2
BITMAP
00
18
18
00
18
18
18
18
18
18
18
00
00
ENDCHAR

STARTCHAR cent
ENCODING 162
SWIDTH 568 0
DWIDTH 8 0
BBX 8 13 0 -2
BITMAP
00
00
10
7C
D4
D0
D0
D4
7C
10
00
00
00
ENDCHAR

STARTCHAR sterling
ENCODING 163
SWIDTH 568 0
DWIDTH 8 0
BBX 8 13 0 -2
BITMAP
00
3C
66
60
60
FC
60
60
60
F0
BE
E0
00
ENDCHAR

STARTCHAR currency
ENCODING 164
SWIDTH 568 0
DWIDTH 8 0
BBX 8 13 0 -2
BITMAP
00
00
00
C6
FE
6C
44
6C
FE
C6
00
00
00
ENDCHAR

STARTCHAR yen
ENCODING 165
SWIDTH 568 0
DWIDTH 8 0
BBX 8 13 0 -2
BITMAP
00
66
66
66
3C
3C
7E
18
7E
18
18
00
00
ENDCHAR

STARTCHAR brokenbar
ENCODING 166
SWIDTH 568 0
DWIDTH 8 0
BBX 8 13 0 -2
BITMAP
00
18
18
18
18
00
00
18
18
18
18
00
00
ENDCHAR

STARTCHAR section
ENCODING 167
SWIDTH 568 0
DWIDTH 8 0
BBX 8 13 0 -2
BITMAP
00
3C
66
60
3C
66
66
3C
06
66
3C
00
00
ENDCHAR

STARTCHAR dieresis
ENCODING 168
SWIDTH 568 0
DWIDTH 8 0
BBX 8 13 0 -2
BITMAP
00
6C
6C
00
00
00
00
00
00
00
00
00
00
ENDCHAR

STARTCHAR copyright
ENCODING 169
SWIDTH 568 0
DWIDTH 8 0
BBX 8 13 0 -2
BITMAP
00
7C
C6
BA
EA
E2
EA
BA
C6
7C
00
00
00
ENDCHAR

STARTCHAR ordfeminine
ENCODING 170
SWIDTH 568 0
DWIDTH 8 0
BBX 8 13 0 -2
BITMAP
00
78
0C
7C
4C
7C
00
7C
00
00
00
00
00
ENDCHAR

STARTCHAR guillemotleft
ENCODING 171
SWIDTH 568 0
DWIDTH 8 0
BBX 8 13 0 -2
BITMAP
00
00
00
36
6C
D8
B0
D8
6C
36
00
00
00
ENDCHAR

STARTCHAR logicalnot
ENCODING 172
SWIDTH 568 0
DWIDTH 8 0
BBX 8 13 0 -2
BITMAP
00
00
00
00
00
FC
FC
04
04
04
00
00
00
ENDCHAR

STARTCHAR hyphen
ENCODING 173
SWIDTH 568 0
DWIDTH 8 0
BBX 8 13 0 -2
BITMAP
00
00
00
00
00
00
7C
00
00
00
00
00
00
ENDCHAR

STARTCHAR registered
ENCODING 174
SWIDTH 568 0
DWIDTH 8 0
BBX 8 13 0 -2
BITMAP
00
7C
C6
BA
AA
BA
B2
AA
C6
7C
00
00
00
ENDCHAR

STARTCHAR macron
ENCODING 175
SWIDTH 568 0
DWIDTH 8 0
BBX 8 13 0 -2
BITMAP
7E
00
00
00
00
00
00
00
00
00
00
00
00
ENDCHAR

STARTCHAR degree
ENCODING 176
SWIDTH 568 0
DWIDTH 8 0
BBX 8 13 0 -2
BITMAP
00
3C
66
66
3C
00
00
00
00
00
00
00
00
ENDCHAR

STARTCHAR plusminus
ENCODING 177
SWIDTH 568 0
DWIDTH 8 0
BBX 8 13 0 -2
BITMAP
00
00
00
18
18
7E
18
18
00
7E
00
00
00
ENDCHAR

STARTCHAR twosuperior
ENCODING 178
SWIDTH 568 0
DWIDTH 8 0
BBX 8 13 0 -2
BITMAP
00
70
58
18
30
60
78
00
00
00
00
00
00
ENDCHAR

STARTCHAR threesuperior
ENCODING 179
SWIDTH 568 0
DWIDTH 8 0
BBX 8 13 0 -2
BITMAP
00
70
58
30
18
58
70
00
00
00
00
00
00
ENDCHAR

STARTCHAR acute
ENCODING 180
SWIDTH 568 0
DWIDTH 8 0
BBX 8 13 0 -2
BITMAP
00
0C
18
30
00
00
00
00
00
00
00
00
00
ENDCHAR

STARTCHAR mu
ENCODING 181
SWIDTH 568 0
DWIDTH 8 0
BBX 8 13 0 -2
BITMAP
00
00
00
00
C6
C6
C6
C6
C6
EE
FC
C0
C0
ENDCHAR

STARTCHAR paragraph
ENCODING 182
SWIDTH 568 0
DWIDTH 8 0
BBX 8 13 0 -2
BITMAP
00
3E
7A
CA
CA
CA
7A
3A
0A
0A
0A
0E
00
ENDCHAR

STARTCHAR periodcentered
ENCODING 183
SWIDTH 568 0
DWIDTH 8 0
BBX 8 13 0 -2
BITMAP
00
00
00
00
00
18
18
00
00
00
00
00
00
ENDCHAR

STARTCHAR cedilla
ENCODING 184
SWIDTH 568 0
DWIDTH 8 0
BBX 8 13 0 -2
BITMAP
00
00
00
00
00
00
00
00
00
00
18
48
30
ENDCHAR

STARTCHAR onesuperior
ENCODING 185
SWIDTH 568 0
DWIDTH 8 0
BBX 8 13 0 -2
BITMAP
00
30
70
30
30
30
78
00
00
00
00
00
00
ENDCHAR

STARTCHAR ordmasculine
ENCODING 186
SWIDTH 568 0
DWIDTH 8 0
BBX 8 13 0 -2
BITMAP
00
38
7C
44
7C
38
00
7C
00
00
00
00
00
ENDCHAR

STARTCHAR guillemotright
ENCODING 187
SWIDTH 568 0
DWIDTH 8 0
BBX 8 13 0 -2
BITMAP
00
00
00
D8
6C
36
1A
36
6C
D8
00
00
00
ENDCHAR

STARTCHAR onequarter
ENCODING 188
SWIDTH 568 0
DWIDTH 8 0
BBX 8 13 0 -2
BITMAP
00
60
E0
60
60
62
F6
0E
1A
1E
06
00
00
ENDCHAR

STARTCHAR onehalf
ENCODING 189
SWIDTH 568 0
DWIDTH 8 0
BBX 8 13 0 -2
BITMAP
00
60
E0
60
60
7C
F6
06
0C
18
1E
00
00
ENDCHAR

STARTCHAR threequarters
ENCODING 190
SWIDTH 568 0
DWIDTH 8 0
BBX 8 13 0 -2
BITMAP
00
E0
B0
60
30
B2
E6
0E
1A
1E
06
00
00
ENDCHAR

STARTCHAR questiondown
ENCODING 191
SWIDTH 568 0
DWIDTH 8 0
BBX 8 13 0 -2
BITMAP
00
18
18
00
18
18
30
60
66
66
3C
00
00
ENDCHAR

STARTCHAR Agrave
ENCODING 192
SWIDTH 568 0
DWIDTH 8 0
BBX 8 13 0 -2
BITMAP
00
30
18
00
38
7C
C6
C6
FE
C6
C6
00
00
ENDCHAR

STARTCHAR Aacute
ENCODING 193
SWIDTH 568 0
DWIDTH 8 0
BBX 8 13 0 -2
BITMAP
00
18
30
00
38
7C
C6
C6
FE
C6
C6
00
00
ENDCHAR

STARTCHAR Acircumflex
ENCODING 194
SWIDTH 568 0
DWIDTH 8 0
BBX 8 13 0 -2
BITMAP
00
38
6C
00
38
7C
C6
C6
FE
C6
C6
00
00
ENDCHAR

STARTCHAR Atilde
ENCODING 195
SWIDTH 568 0
DWIDTH 8 0
BBX 8 13 0 -2
BITMAP
00
34
58
00
38
7C
C6
C6
FE
C6
C6
00
00
ENDCHAR

STARTCHAR Adieresis
ENCODING 196
SWIDTH 568 0
DWIDTH 8 0
BBX 8 13 0 -2
BITMAP
00
6C
6C
00
38
7C
C6
C6
FE
C6
C6
00
00
ENDCHAR

STARTCHAR Aring
ENCODING 197
SWIDTH 568 0
DWIDTH 8 0
BBX 8 13 0 -2
BITMAP
18
24
18
00
38
7C
C6
C6
FE
C6
C6
00
00
ENDCHAR

STARTCHAR AE
ENCODING 198
SWIDTH 568 0
DWIDTH 8 0
BBX 8 13 0 -2
BITMAP
00
7E
F8
D8
D8
D8
FC
D8
D8
D8
DE
00
00
ENDCHAR

STARTCHAR Ccedilla
ENCODING 199
SWIDTH 568 0
DWIDTH 8 0
BBX 8 13 0 -2
BITMAP
00
7C
E6
C0
C0
C0
C0
C0
E6
7C
18
48
30
ENDCHAR

STARTCHAR Egrave
ENCODING 200
SWIDTH 568 0
DWIDTH 8 0
BBX 8 13 0 -2
BITMAP
00
30
18
00
FE
C0
C0
F8
C0
C0
FE
00
00
ENDCHAR

STARTCHAR Eacute
ENCODING 201
SWIDTH 568 0
DWIDTH 8 0
BBX 8 13 0 -2
BITMAP
00
18
30
00
FE
C0
C0
F8
C0
C0
FE
00
00
ENDCHAR

STARTCHAR Ecircumflex
ENCODING 202
SWIDTH 568 0
DWIDTH 8 0
BBX 8 13 0 -2
BITMAP
00
38
6C
00
FE
C0
C0
F8
C0
C0
FE
00
00
ENDCHAR

STARTCHAR Edieresis
ENCODING 203
SWIDTH 568 0
DWIDTH 8 0
BBX 8 13 0 -2
BITMAP
00
6C
6C
00
FE
C0
C0
F8
C0
C0
FE
00
00
ENDCHAR

STARTCHAR Igrave
ENCODING 204
SWIDTH 568 0
DWIDTH 8 0
BBX 8 13 0 -2
BITMAP
00
30
18
00
3C
18
18
18
18
18
3C
00
00
ENDCHAR

STARTCHAR Iacute
ENCODING 205
SWIDTH 568 0
DWIDTH 8 0
BBX 8 13 0 -2
BITMAP
00
0C
18
00
3C
18
18
18
18
18
3C
00
00
ENDCHAR

STARTCHAR Icircumflex
ENCODING 206
SWIDTH 568 0
DWIDTH 8 0
BBX 8 13 0 -2
BITMAP
00
1C
36
00
3C
18
18
18
18
18
3C
00
00
ENDCHAR

STARTCHAR Idieresis
ENCODING 207
SWIDTH 568 0
DWIDTH 8 0
BBX 8 13 0 -2
BITMAP
00
36
36
00
3C
18
18
18
18
18
3C
00
00
ENDCHAR

STARTCHAR Eth
ENCODING 208
SWIDTH 568 0
DWIDTH 8 0
BBX 8 13 0 -2
BITMAP
00
00
00
FC
66
66
F6
66
66
66
FC
00
00
ENDCHAR

STARTCHAR Ntilde
ENCODING 209
SWIDTH 568 0
DWIDTH 8 0
BBX 8 13 0 -2
BITMAP
00
34
58
00
C6
E6
F6
D6
DE
CE
C6
00
00
ENDCHAR

STARTCHAR Ograve
ENCODING 210
SWIDTH 568 0
DWIDTH 8 0
BBX 8 13 0 -2
BITMAP
30
18
00
7C
C6
C6
C6
C6
C6
C6
7C
00
00
ENDCHAR

STARTCHAR Oacute
ENCODING 211
SWIDTH 568 0
DWIDTH 8 0
BBX 8 13 0 -2
BITMAP
18
30
00
7C
C6
C6
C6
C6
C6
C6
7C
00
00
ENDCHAR

STARTCHAR Ocircumflex
ENCODING 212
SWIDTH 568 0
DWIDTH 8 0
BBX 8 13 0 -2
BITMAP
38
6C
00
7C
C6
C6
C6
C6
C6
C6
7C
00
00
ENDCHAR

STARTCHAR Otilde
ENCODING 213
SWIDTH 568 0
DWIDTH 8 0
BBX 8 13 0 -2
BITMAP
34
58
00
7C
C6
C6
C6
C6
C6
C6
7C
00
00
ENDCHAR

STARTCHAR Odieresis
ENCODING 214
SWIDTH 568 0
DWIDTH 8 0
BBX 8 13 0 -2
BITMAP
6C
6C
00
7C
C6
C6
C6
C6
C6
C6
7C
00
00
ENDCHAR

STARTCHAR multiply
ENCODING 215
SWIDTH 568 0
DWIDTH 8 0
BBX 8 13 0 -2
BITMAP
00
00
00
00
C6
C6
7C
38
7C
C6
C6
00
00
ENDCHAR

STARTCHAR Oslash
ENCODING 216
SWIDTH 568 0
DWIDTH 8 0
BBX 8 13 0 -2
BITMAP
00
00
02
7C
CE
D6
D6
D6
D6
E6
7C
80
00
ENDCHAR

STARTCHAR Ugrave
ENCODING 217
SWIDTH 568 0
DWIDTH 8 0
BBX 8 13 0 -2
BITMAP
00
30
18
00
C6
C6
C6
C6
C6
C6
7C
00
00
ENDCHAR

STARTCHAR Uacute
ENCODING 218
SWIDTH 568 0
DWIDTH 8 0
BBX 8 13 0 -2
BITMAP
00
18
30
00
C6
C6
C6
C6
C6
C6
7C
00
00
ENDCHAR

STARTCHAR Ucircumflex
ENCODING 219
SWIDTH 568 0
DWIDTH 8 0
BBX 8 13 0 -2
BITMAP
00
38
6C
00
C6
C6
C6
C6
C6
C6
7C
00
00
ENDCHAR

STARTCHAR Udieresis
ENCODING 220
SWIDTH 568 0
DWIDTH 8 0
BBX 8 13 0 -2
BITMAP
00
6C
6C
00
C6
C6
C6
C6
C6
C6
7C
00
00
ENDCHAR

STARTCHAR Yacute
ENCODING 221
SWIDTH 568 0
DWIDTH 8 0
BBX 8 13 0 -2
BITMAP
00
0C
18
00
66
24
3C
18
18
18
18
00
00
ENDCHAR

STARTCHAR Thorn
ENCODING 222
SWIDTH 568 0
DWIDTH 8 0
BBX 8 13 0 -2
BITMAP
00
00
C0
FC
C6
C6
C6
FC
C0
C0
C0
00
00
ENDCHAR

STARTCHAR germandbls
ENCODING 223
SWIDTH 568 0
DWIDTH 8 0
BBX 8 13 0 -2
BITMAP
00
3C
66
66
6C
EC
6C
66
66
66
6C
00
00
ENDCHAR

STARTCHAR agrave
ENCODING 224
SWIDTH 568 0
DWIDTH 8 0
BBX 8 13 0 -2
BITMAP
00
30
18
00
7C
06
7E
C6
C6
CE
76
00
00
ENDCHAR

STARTCHAR aacute
ENCODING 225
SWIDTH 568 0
DWIDTH 8 0
BBX 8 13 0 -2
BITMAP
00
18
30
00
7C
06
7E
C6
C6
CE
76
00
00
ENDCHAR

STARTCHAR acircumflex
ENCODING 226
SWIDTH 568 0
DWIDTH 8 0
BBX 8 13 0 -2
BITMAP
00
38
6C
00
7C
06
7E
C6
C6
CE
76
00
00
ENDCHAR

STARTCHAR atilde
ENCODING 227
SWIDTH 568 0
DWIDTH 8 0
BBX 8 13 0 -2
BITMAP
00
34
58
00
7C
06
7E
C6
C6
CE
76
00
00
ENDCHAR

STARTCHAR adieresis
ENCODING 228
SWIDTH 568 0
DWIDTH 8 0
BBX 8 13 0 -2
BITMAP
00
6C
6C
00
7C
06
7E
C6
C6
CE
76
00
00
ENDCHAR

STARTCHAR aring
ENCODING 229
SWIDTH 568 0
DWIDTH 8 0
BBX 8 13 0 -2
BITMAP
18
24
18
00
7C
06
7E
C6
C6
CE
76
00
00
ENDCHAR

STARTCHAR ae
ENCODING 230
SWIDTH 568 0
DWIDTH 8 0
BBX 8 13 0 -2
BITMAP
00
00
00
00
6C
DA
1A
7C
D8
DA
6C
00
00
ENDCHAR

STARTCHAR ccedilla
ENCODING 231
SWIDTH 568 0
DWIDTH 8 0
BBX 8 13 0 -2
BITMAP
00
00
00
7C
E6
C0
C0
C0
E6
7C
18
48
30
ENDCHAR

STARTCHAR egrave
ENCODING 232
SWIDTH 568 0
DWIDTH 8 0
BBX 8 13 0 -2
BITMAP
00
30
18
00
7C
C6
C6
FE
C0
C6
7C
00
00
ENDCHAR

STARTCHAR eacute
ENCODING 233
SWIDTH 568 0
DWIDTH 8 0
BBX 8 13 0 -2
BITMAP
00
18
30
00
7C
C6
C6
FE
C0
C6
7C
00
00
ENDCHAR

STARTCHAR ecircumflex
ENCODING 234
SWIDTH 568 0
DWIDTH 8 0
BBX 8 13 0 -2
BITMAP
00
38
6C
00
7C
C6
C6
FE
C0
C6
7C
00
00
ENDCHAR

STARTCHAR edieresis
ENCODING 235
SWIDTH 568 0
DWIDTH 8 0
BBX 8 13 0 -2
BITMAP
00
6C
6C
00
7C
C6
C6
FE
C0
C6
7C
00
00
ENDCHAR

STARTCHAR igrave
ENCODING 236
SWIDTH 568 0
DWIDTH 8 0
BBX 8 13 0 -2
BITMAP
00
30
18
00
38
18
18
18
18
18
3C
00
00
ENDCHAR

STARTCHAR iacute
ENCODING 237
SWIDTH 568 0
DWIDTH 8 0
BBX 8 13 0 -2
BITMAP
00
18
30
00
38
18
18
18
18
18
3C
00
00
ENDCHAR

STARTCHAR icircumflex
ENCODING 238
SWIDTH 568 0
DWIDTH 8 0
BBX 8 13 0 -2
BITMAP
00
38
6C
00
38
18
18
18
18
18
3C
00
00
ENDCHAR

STARTCHAR idieresis
ENCODING 239
SWIDTH 568 0
DWIDTH 8 0
BBX 8 13 0 -2
BITMAP
00
6C
6C
00
38
18
18
18
18
18
3C
00
00
ENDCHAR

STARTCHAR eth
ENCODING 240
SWIDTH 568 0
DWIDTH 8 0
BBX 8 13 0 -2
BITMAP
00
6C
38
78
0C
7E
C6
C6
C6
C6
7C
00
00
ENDCHAR

STARTCHAR ntilde
ENCODING 241
SWIDTH 568 0
DWIDTH 8 0
BBX 8 13 0 -2
BITMAP
00
34
58
00
DC
E6
C6
C6
C6
C6
C6
00
00
ENDCHAR

STARTCHAR ograve
ENCODING 242
SWIDTH 568 0
DWIDTH 8 0
BBX 8 13 0 -2
BITMAP
00
30
18
00
7C
C6
C6
C6
C6
C6
7C
00
00
ENDCHAR

STARTCHAR oacute
ENCODING 243
SWIDTH 568 0
DWIDTH 8 0
BBX 8 13 0 -2
BITMAP
00
18
30
00
7C
C6
C6
C6
C6
C6
7C
00
00
ENDCHAR

STARTCHAR ocircumflex
ENCODING 244
SWIDTH 568 0
DWIDTH 8 0
BBX 8 13 0 -2
BITMAP
00
38
6C
00
7C
C6
C6
C6
C6
C6
7C
00
00
ENDCHAR

STARTCHAR otilde
ENCODING 245
SWIDTH 568 0
DWIDTH 8 0
BBX 8 13 0 -2
BITMAP
00
34
58
00
7C
C6
C6
C6
C6
C6
7C
00
00
ENDCHAR

STARTCHAR odieresis
ENCODING 246
SWIDTH 568 0
DWIDTH 8 0
BBX 8 13 0 -2
BITMAP
00
6C
6C
00
7C
C6
C6
C6
C6
C6
7C
00
00
ENDCHAR

STARTCHAR divide
ENCODING 247
SWIDTH 568 0
DWIDTH 8 0
BBX 8 13 0 -2
BITMAP
00
00
00
18
18
00
7E
00
18
18
00
00
00
ENDCHAR

STARTCHAR oslash
ENCODING 248
SWIDTH 568 0
DWIDTH 8 0
BBX 8 13 0 -2
BITMAP
00
00
00
02
7C
CE
D6
D6
D6
E6
7C
80
00
ENDCHAR

STARTCHAR ugrave
ENCODING 249
SWIDTH 568 0
DWIDTH 8 0
BBX 8 13 0 -2
BITMAP
00
30
18
00
C6
C6
C6
C6
C6
CE
76
00
00
ENDCHAR

STARTCHAR uacute
ENCODING 250
SWIDTH 568 0
DWIDTH 8 0
BBX 8 13 0 -2
BITMAP
00
18
30
00
C6
C6
C6
C6
C6
CE
76
00
00
ENDCHAR

STARTCHAR ucircumflex
ENCODING 251
SWIDTH 568 0
DWIDTH 8 0
BBX 8 13 0 -2
BITMAP
00
38
6C
00
C6
C6
C6
C6
C6
CE
76
00
00
ENDCHAR

STARTCHAR udieresis
ENCODING 252
SWIDTH 568 0
DWIDTH 8 0
BBX 8 13 0 -2
BITMAP
00
6C
6C
00
C6
C6
C6
C6
C6
CE
76
00
00
ENDCHAR

STARTCHAR yacute
ENCODING 253
SWIDTH 568 0
DWIDTH 8 0
BBX 8 13 0 -2
BITMAP
00
18
30
00
C6
C6
C6
C6
CE
76
06
C6
7C
ENDCHAR

STARTCHAR thorn
ENCODING 254
SWIDTH 568 0
DWIDTH 8 0
BBX 8 13 0 -2
BITMAP
00
00
C0
C0
DC
E6
C6
C6
C6
E6
DC
C0
C0
ENDCHAR

STARTCHAR ydieresis
ENCODING 255
SWIDTH 568 0
DWIDTH 8 0
BBX 8 13 0 -2
BITMAP
00
6C
6C
00
C6
C6
C6
C6
CE
76
06
C6
7C
ENDCHAR

STARTCHAR Amacron
ENCODING 256
SWIDTH 568 0
DWIDTH 8 0
BBX 8 13 0 -2
BITMAP
00
7C
00
38
7C
C6
C6
FE
C6
C6
C6
00
00
ENDCHAR

STARTCHAR amacron
ENCODING 257
SWIDTH 568 0
DWIDTH 8 0
BBX 8 13 0 -2
BITMAP
00
00
7E
00
7C
06
7E
C6
C6
CE
76
00
00
ENDCHAR

STARTCHAR Abreve
ENCODING 258
SWIDTH 568 0
DWIDTH 8 0
BBX 8 13 0 -2
BITMAP
00
44
38
00
38
7C
C6
C6
FE
C6
C6
00
00
ENDCHAR

STARTCHAR abreve
ENCODING 259
SWIDTH 568 0
DWIDTH 8 0
BBX 8 13 0 -2
BITMAP
00
44
38
00
7C
06
7E
C6
C6
CE
76
00
00
ENDCHAR

STARTCHAR Aogonek
ENCODING 260
SWIDTH 568 0
DWIDTH 8 0
BBX 8 13 0 -2
BITMAP
00
38
7C
C6
C6
C6
FE
C6
C6
C6
C6
0C
07
ENDCHAR

STARTCHAR aogonek
ENCODING 261
SWIDTH 568 0
DWIDTH 8 0
BBX 8 13 0 -2
BITMAP
00
00
00
00
7C
06
7E
C6
C6
CE
76
0C
07
ENDCHAR

STARTCHAR Cacute
ENCODING 262
SWIDTH 568 0
DWIDTH 8 0
BBX 8 13 0 -2
BITMAP
0C
18
00
7C
E6
C6
C0
C0
C6
E6
7C
00
00
ENDCHAR

STARTCHAR cacute
ENCODING 263
SWIDTH 568 0
DWIDTH 8 0
BBX 8 13 0 -2
BITMAP
00
0C
18
00
7C
E6
C0
C0
C0
E6
7C
00
00
ENDCHAR

STARTCHAR Ccircumflex
ENCODING 264
SWIDTH 568 0
DWIDTH 8 0
BBX 8 13 0 -2
BITMAP
38
6C
00
7C
E6
C6
C0
C0
C6
E6
7C
00
00
ENDCHAR

STARTCHAR ccircumflex
ENCODING 265
SWIDTH 568 0
DWIDTH 8 0
BBX 8 13 0 -2
BITMAP
00
38
6C
00
7C
E6
C0
C0
C0
E6
7C
00
00
ENDCHAR

STARTCHAR Cdotaccent
ENCODING 266
SWIDTH 568 0
DWIDTH 8 0
BBX 8 13 0 -2
BITMAP
18
18
00
7C
E6
C6
C0
C0
C6
E6
7C
00
00
ENDCHAR

STARTCHAR cdotaccent
ENCODING 267
SWIDTH 568 0
DWIDTH 8 0
BBX 8 13 0 -2
BITMAP
00
18
18
00
7C
E6
C0
C0
C0
E6
7C
00
00
ENDCHAR

STARTCHAR Ccaron
ENCODING 268
SWIDTH 568 0
DWIDTH 8 0
BBX 8 13 0 -2
BITMAP
6C
38
00
7C
E6
C6
C0
C0
C6
E6
7C
00
00
ENDCHAR

STARTCHAR ccaron
ENCODING 269
SWIDTH 568 0
DWIDTH 8 0
BBX 8 13 0 -2
BITMAP
00
6C
38
00
7C
E6
C0
C0
C0
E6
7C
00
00
ENDCHAR

STARTCHAR Dcaron
ENCODING 270
SWIDTH 568 0
DWIDTH 8 0
BBX 8 13 0 -2
BITMAP
6C
38
00
FC
66
66
66
66
66
66
FC
00
00
ENDCHAR

STARTCHAR dcaron
ENCODING 271
SWIDTH 568 0
DWIDTH 8 0
BBX 8 13 0 -2
BITMAP
6C
38
00
06
06
06
76
CE
C6
CE
76
00
00
ENDCHAR

STARTCHAR Dcroat
ENCODING 272
SWIDTH 568 0
DWIDTH 8 0
BBX 8 13 0 -2
BITMAP
00
00
FC
66
66
66
F6
66
66
66
FC
00
00
ENDCHAR

STARTCHAR dcroat
ENCODING 273
SWIDTH 568 0
DWIDTH 8 0
BBX 8 13 0 -2
BITMAP
00
06
1F
06
06
76
CE
C6
C6
CE
76
00
00
ENDCHAR

STARTCHAR Emacron
ENCODING 274
SWIDTH 568 0
DWIDTH 8 0
BBX 8 13 0 -2
BITMAP
00
7C
00
FE
C0
C0
F8
C0
C0
C0
FE
00
00
ENDCHAR

STARTCHAR emacron
ENCODING 275
SWIDTH 568 0
DWIDTH 8 0
BBX 8 13 0 -2
BITMAP
00
00
7C
00
7C
C6
C6
FE
C0
C6
7C
00
00
ENDCHAR

STARTCHAR Ebreve
ENCODING 276
SWIDTH 568 0
DWIDTH 8 0
BBX 8 13 0 -2
BITMAP
00
C6
7C
00
FE
C0
C0
F8
C0
C0
FE
00
00
ENDCHAR

STARTCHAR ebreve
ENCODING 277
SWIDTH 568 0
DWIDTH 8 0
BBX 8 13 0 -2
BITMAP
00
C6
7C
00
7C
C6
C6
FE
C0
C6
7C
00
00
ENDCHAR

STARTCHAR Edotaccent
ENCODING 278
SWIDTH 568 0
DWIDTH 8 0
BBX 8 13 0 -2
BITMAP
00
18
18
00
FE
C0
C0
F8
C0
C0
FE
00
00
ENDCHAR

STARTCHAR edotaccent
ENCODING 279
SWIDTH 568 0
DWIDTH 8 0
BBX 8 13 0 -2
BITMAP
00
18
18
00
7C
C6
C6
FE
C0
C6
7C
00
00
ENDCHAR

STARTCHAR Eogonek
ENCODING 280
SWIDTH 568 0
DWIDTH 8 0
BBX 8 13 0 -2
BITMAP
00
FE
C0
C0
C0
F8
C0
C0
C0
C0
FE
30
3C
ENDCHAR

STARTCHAR eogonek
ENCODING 281
SWIDTH 568 0
DWIDTH 8 0
BBX 8 13 0 -2
BITMAP
00
00
00
00
7C
C6
C6
FE
C0
C6
7C
30
3C
ENDCHAR

STARTCHAR Ecaron
ENCODING 282
SWIDTH 568 0
DWIDTH 8 0
BBX 8 13 0 -2
BITMAP
00
6C
38
00
FE
C2
C0
F8
C0
C2
FE
00
00
ENDCHAR

STARTCHAR ecaron
ENCODING 283
SWIDTH 568 0
DWIDTH 8 0
BBX 8 13 0 -2
BITMAP
00
6C
38
00
7C
C6
C6
FE
C0
C6
7C
00
00
ENDCHAR

STARTCHAR Gcircumflex
ENCODING 284
SWIDTH 568 0
DWIDTH 8 0
BBX 8 13 0 -2
BITMAP
38
6C
00
7C
C6
C0
C0
CE
C6
C6
7C
00
00
ENDCHAR

STARTCHAR gcircumflex
ENCODING 285
SWIDTH 568 0
DWIDTH 8 0
BBX 8 13 0 -2
BITMAP
00
38
6C
00
7E
CC
CC
CC
78
F0
7C
C6
7C
ENDCHAR

STARTCHAR Gbreve
ENCODING 286
SWIDTH 568 0
DWIDTH 8 0
BBX 8 13 0 -2
BITMAP
C6
7C
00
7C
C6
C6
C0
C0
CE
C6
7C
00
00
ENDCHAR

STARTCHAR gbreve
ENCODING 287
SWIDTH 568 0
DWIDTH 8 0
BBX 8 13 0 -2
BITMAP
00
C6
7C
00
7E
CC
CC
CC
78
F0
7C
C6
7C
ENDCHAR

STARTCHAR Gdotaccent
ENCODING 288
SWIDTH 568 0
DWIDTH 8 0
BBX 8 13 0 -2
BITMAP
18
18
00
7C
C6
C0
C0
CE
C6
C6
7C
00
00
ENDCHAR

STARTCHAR gdotaccent
ENCODING 289
SWIDTH 568 0
DWIDTH 8 0
BBX 8 13 0 -2
BITMAP
00
18
18
00
7E
CC
CC
CC
78
F0
7C
C6
7C
ENDCHAR

STARTCHAR Gcommaaccent
ENCODING 290
SWIDTH 568 0
DWIDTH 8 0
BBX 8 13 0 -2
BITMAP
00
7C
C6
C6
C0
C0
C0
CE
C6
C6
7C
18
30
ENDCHAR

STARTCHAR gcommaaccent
ENCODING 291
SWIDTH 568 0
DWIDTH 8 0
BBX 8 13 0 -2
BITMAP
18
30
38
00
7E
CC
CC
CC
78
F0
7C
C6
7C
ENDCHAR

STARTCHAR Hcircumflex
ENCODING 292
SWIDTH 568 0
DWIDTH 8 0
BBX 8 13 0 -2
BITMAP
00
38
6C
00
C6
C6
C6
FE
C6
C6
C6
00
00
ENDCHAR

STARTCHAR hcircumflex
ENCODING 293
SWIDTH 568 0
DWIDTH 8 0
BBX 8 13 0 -2
BITMAP
00
CC
DA
C0
D8
EC
CC
CC
CC
CC
CC
00
00
ENDCHAR

STARTCHAR Hbar
ENCODING 294
SWIDTH 568 0
DWIDTH 8 0
BBX 8 13 0 -2
BITMAP
00
66
66
FF
66
66
7E
66
66
66
66
00
00
ENDCHAR

STARTCHAR hbar
ENCODING 295
SWIDTH 568 0
DWIDTH 8 0
BBX 8 13 0 -2
BITMAP
00
60
FC
60
6C
76
66
66
66
66
66
00
00
ENDCHAR

STARTCHAR Itilde
ENCODING 296
SWIDTH 568 0
DWIDTH 8 0
BBX 8 13 0 -2
BITMAP
34
58
00
3C
18
18
18
18
18
18
3C
00
00
ENDCHAR

STARTCHAR itilde
ENCODING 297
SWIDTH 568 0
DWIDTH 8 0
BBX 8 13 0 -2
BITMAP
00
00
34
58
00
38
18
18
18
18
3C
00
00
ENDCHAR

STARTCHAR Imacron
ENCODING 298
SWIDTH 568 0
DWIDTH 8 0
BBX 8 13 0 -2
BITMAP
00
7E
00
3C
18
18
18
18
18
18
3C
00
00
ENDCHAR

STARTCHAR imacron
ENCODING 299
SWIDTH 568 0
DWIDTH 8 0
BBX 8 13 0 -2
BITMAP
00
00
00
7E
00
38
18
18
18
18
3C
00
00
ENDCHAR

STARTCHAR Ibreve
ENCODING 300
SWIDTH 568 0
DWIDTH 8 0
BBX 8 13 0 -2
BITMAP
42
3C
00
3C
18
18
18
18
18
18
3C
00
00
ENDCHAR

STARTCHAR ibreve
ENCODING 301
SWIDTH 568 0
DWIDTH 8 0
BBX 8 13 0 -2
BITMAP
00
00
44
38
00
38
18
18
18
18
3C
00
00
ENDCHAR

STARTCHAR Iogonek
ENCODING 302
SWIDTH 568 0
DWIDTH 8 0
BBX 8 13 0 -2
BITMAP
00
3C
18
18
18
18
18
18
18
18
3C
18
0C
ENDCHAR

STARTCHAR iogonek
ENCODING 303
SWIDTH 568 0
DWIDTH 8 0
BBX 8 13 0 -2
BITMAP
00
00
18
18
00
38
18
18
18
18
3C
18
0C
ENDCHAR

STARTCHAR Idotaccent
ENCODING 304
SWIDTH 568 0
DWIDTH 8 0
BBX 8 13 0 -2
BITMAP
18
18
00
3C
18
18
18
18
18
18
3C
00
00
ENDCHAR

STARTCHAR dotlessi
ENCODING 305
SWIDTH 568 0
DWIDTH 8 0
BBX 8 13 0 -2
BITMAP
00
00
00
00
00
38
18
18
18
18
3C
00
00
ENDCHAR

STARTCHAR IJ
ENCODING 306
SWIDTH 568 0
DWIDTH 8 0
BBX 8 13 0 -2
BITMAP
00
FE
66
66
66
66
66
66
66
66
F6
C6
7C
ENDCHAR

STARTCHAR ij
ENCODING 307
SWIDTH 568 0
DWIDTH 8 0
BBX 8 13 0 -2
BITMAP
00
00
66
66
00
EE
66
66
66
66
F6
C6
7C
ENDCHAR

STARTCHAR Jcircumflex
ENCODING 308
SWIDTH 568 0
DWIDTH 8 0
BBX 8 13 0 -2
BITMAP
00
1C
36
00
0E
06
06
06
C6
C6
7C
00
00
ENDCHAR

STARTCHAR jcircumflex
ENCODING 309
SWIDTH 568 0
DWIDTH 8 0
BBX 8 13 0 -2
BITMAP
00
1C
36
00
0E
06
06
06
06
06
C6
C6
7C
ENDCHAR

STARTCHAR Kcommaaccent
ENCODING 310
SWIDTH 568 0
DWIDTH 8 0
BBX 8 13 0 -2
BITMAP
00
C6
C6
CC
D8
F0
F0
D8
CC
C6
C6
60
C0
ENDCHAR

STARTCHAR kcommaaccent
ENCODING 311
SWIDTH 568 0
DWIDTH 8 0
BBX 8 13 0 -2
BITMAP
00
C0
C0
C0
CC
D8
F0
F0
D8
CC
C6
60
C0
ENDCHAR

STARTCHAR kgreenlandic
ENCODING 312
SWIDTH 568 0
DWIDTH 8 0
BBX 8 13 0 -2
BITMAP
00
00
00
00
CC
D8
F0
F0
D8
CC
C6
00
00
ENDCHAR

STARTCHAR Lacute
ENCODING 313
SWIDTH 568 0
DWIDTH 8 0
BBX 8 13 0 -2
BITMAP
00
0C
18
C0
C0
C0
C0
C0
C0
C2
FE
00
00
ENDCHAR

STARTCHAR lacute
ENCODING 314
SWIDTH 568 0
DWIDTH 8 0
BBX 8 13 0 -2
BITMAP
0C
18
00
38
18
18
18
18
18
18
3C
00
00
ENDCHAR

STARTCHAR Lcommaaccent
ENCODING 315
SWIDTH 568 0
DWIDTH 8 0
BBX 8 13 0 -2
BITMAP
00
C0
C0
C0
C0
C0
C0
C0
C0
C2
FE
18
30
ENDCHAR

STARTCHAR lcommaaccent
ENCODING 316
SWIDTH 568 0
DWIDTH 8 0
BBX 8 13 0 -2
BITMAP
00
38
18
18
18
18
18
18
18
18
3C
18
30
ENDCHAR

STARTCHAR Lcaron
ENCODING 317
SWIDTH 568 0
DWIDTH 8 0
BBX 8 13 0 -2
BITMAP
6C
38
00
C0
C0
C0
C0
C0
C0
C2
FE
00
00
ENDCHAR

STARTCHAR lcaron
ENCODING 318
SWIDTH 568 0
DWIDTH 8 0
BBX 8 13 0 -2
BITMAP
6C
38
00
38
18
18
18
18
18
18
3C
00
00
ENDCHAR

STARTCHAR Ldot
ENCODING 319
SWIDTH 568 0
DWIDTH 8 0
BBX 8 13 0 -2
BITMAP
00
C0
C0
C0
CC
CC
C0
C0
C0
C2
FE
00
00
ENDCHAR

STARTCHAR ldot
ENCODING 320
SWIDTH 568 0
DWIDTH 8 0
BBX 8 13 0 -2
BITMAP
00
70
30
30
36
36
30
30
30
30
78
00
00
ENDCHAR

STARTCHAR Lslash
ENCODING 321
SWIDTH 568 0
DWIDTH 8 0
BBX 8 13 0 -2
BITMAP
00
60
60
68
78
70
E0
E0
60
62
7E
00
00
ENDCHAR

STARTCHAR lslash
ENCODING 322
SWIDTH 568 0
DWIDTH 8 0
BBX 8 13 0 -2
BITMAP
00
38
18
1A
1E
1C
38
78
58
18
3C
00
00
ENDCHAR

STARTCHAR Nacute
ENCODING 323
SWIDTH 568 0
DWIDTH 8 0
BBX 8 13 0 -2
BITMAP
0C
18
00
C6
E6
E6
F6
DE
CE
CE
C6
00
00
ENDCHAR

STARTCHAR nacute
ENCODING 324
SWIDTH 568 0
DWIDTH 8 0
BBX 8 13 0 -2
BITMAP
00
0C
18
00
DC
E6
C6
C6
C6
C6
C6
00
00
ENDCHAR

STARTCHAR Ncommaaccent
ENCODING 325
SWIDTH 568 0
DWIDTH 8 0
BBX 8 13 0 -2
BITMAP
00
C6
C6
E6
E6
F6
DE
CE
CE
C6
C6
60
C0
ENDCHAR

STARTCHAR ncommaaccent
ENCODING 326
SWIDTH 568 0
DWIDTH 8 0
BBX 8 13 0 -2
BITMAP
00
00
00
00
DC
E6
C6
C6
C6
C6
C6
60
C0
ENDCHAR

STARTCHAR Ncaron
ENCODING 327
SWIDTH 568 0
DWIDTH 8 0
BBX 8 13 0 -2
BITMAP
6C
38
00
C6
E6
E6
F6
DE
CE
CE
C6
00
00
ENDCHAR

STARTCHAR ncaron
ENCODING 328
SWIDTH 568 0
DWIDTH 8 0
BBX 8 13 0 -2
BITMAP
00
6C
38
00
DC
E6
C6
C6
C6
C6
C6
00
00
ENDCHAR

STARTCHAR napostrophe
ENCODING 329
SWIDTH 568 0
DWIDTH 8 0
BBX 8 13 0 -2
BITMAP
60
20
40
00
DC
E6
C6
C6
C6
C6
C6
00
00
ENDCHAR

STARTCHAR Eng
ENCODING 330
SWIDTH 568 0
DWIDTH 8 0
BBX 8 13 0 -2
BITMAP
00
C6
C6
E6
E6
F6
DE
CE
CE
C6
C6
06
1C
ENDCHAR

STARTCHAR eng
ENCODING 331
SWIDTH 568 0
DWIDTH 8 0
BBX 8 13 0 -2
BITMAP
00
00
00
00
DC
E6
C6
C6
C6
C6
C6
06
1C
ENDCHAR

STARTCHAR Omacron
ENCODING 332
SWIDTH 568 0
DWIDTH 8 0
BBX 8 13 0 -2
BITMAP
00
7C
00
7C
C6
C6
C6
C6
C6
C6
7C
00
00
ENDCHAR

STARTCHAR omacron
ENCODING 333
SWIDTH 568 0
DWIDTH 8 0
BBX 8 13 0 -2
BITMAP
00
00
7C
00
7C
C6
C6
C6
C6
C6
7C
00
00
ENDCHAR

STARTCHAR Obreve
ENCODING 334
SWIDTH 568 0
DWIDTH 8 0
BBX 8 13 0 -2
BITMAP
44
38
00
7C
C6
C6
C6
C6
C6
C6
7C
00
00
ENDCHAR

STARTCHAR obreve
ENCODING 335
SWIDTH 568 0
DWIDTH 8 0
BBX 8 13 0 -2
BITMAP
00
44
38
00
7C
C6
C6
C6
C6
C6
7C
00
00
ENDCHAR

STARTCHAR Ohungarumlaut
ENCODING 336
SWIDTH 568 0
DWIDTH 8 0
BBX 8 13 0 -2
BITMAP
66
CC
00
7C
C6
C6
C6
C6
C6
C6
7C
00
00
ENDCHAR

STARTCHAR ohungarumlaut
ENCODING 337
SWIDTH 568 0
DWIDTH 8 0
BBX 8 13 0 -2
BITMAP
00
66
CC
00
7C
C6
C6
C6
C6
C6
7C
00
00
ENDCHAR

STARTCHAR OE
ENCODING 338
SWIDTH 568 0
DWIDTH 8 0
BBX 8 13 0 -2
BITMAP
00
7E
D8
D8
D8
DC
D8
D8
D8
D8
7E
00
00
ENDCHAR

STARTCHAR oe
ENCODING 339
SWIDTH 568 0
DWIDTH 8 0
BBX 8 13 0 -2
BITMAP
00
00
00
00
6E
DB
DB
DE
D8
DB
6E
00
00
ENDCHAR

STARTCHAR Racute
ENCODING 340
SWIDTH 568 0
DWIDTH 8 0
BBX 8 13 0 -2
BITMAP
18
30
00
FC
C6
C6
FC
F8
CC
CC
C6
00
00
ENDCHAR

STARTCHAR racute
ENCODING 341
SWIDTH 568 0
DWIDTH 8 0
BBX 8 13 0 -2
BITMAP
00
18
30
00
DC
E6
C0
C0
C0
C0
C0
00
00
ENDCHAR

STARTCHAR Rcommaaccent
ENCODING 342
SWIDTH 568 0
DWIDTH 8 0
BBX 8 13 0 -2
BITMAP
00
FC
C6
C6
C6
FC
F8
CC
CC
C6
C6
60
C0
ENDCHAR

STARTCHAR rcommaaccent
ENCODING 343
SWIDTH 568 0
DWIDTH 8 0
BBX 8 13 0 -2
BITMAP
00
00
00
00
DC
E6
C0
C0
C0
C0
C0
60
C0
ENDCHAR

STARTCHAR Rcaron
ENCODING 344
SWIDTH 568 0
DWIDTH 8 0
BBX 8 13 0 -2
BITMAP
6C
38
00
FC
C6
C6
FC
F8
CC
CC
C6
00
00
ENDCHAR

STARTCHAR rcaron
ENCODING 345
SWIDTH 568 0
DWIDTH 8 0
BBX 8 13 0 -2
BITMAP
00
6C
38
00
DC
E6
C0
C0
C0
C0
C0
00
00
ENDCHAR

STARTCHAR Sacute
ENCODING 346
SWIDTH 568 0
DWIDTH 8 0
BBX 8 13 0 -2
BITMAP
18
30
00
7C
C6
C0
7C
06
06
C6
7C
00
00
ENDCHAR

STARTCHAR sacute
ENCODING 347
SWIDTH 568 0
DWIDTH 8 0
BBX 8 13 0 -2
BITMAP
00
00
18
30
00
7C
C6
70
1C
C6
7C
00
00
ENDCHAR

STARTCHAR Scircumflex
ENCODING 348
SWIDTH 568 0
DWIDTH 8 0
BBX 8 13 0 -2
BITMAP
38
6C
00
7C
C6
C0
7C
06
06
C6
7C
00
00
ENDCHAR

STARTCHAR scircumflex
ENCODING 349
SWIDTH 568 0
DWIDTH 8 0
BBX 8 13 0 -2
BITMAP
00
00
38
6C
00
7C
C6
70
1C
C6
7C
00
00
ENDCHAR

STARTCHAR Scedilla
ENCODING 350
SWIDTH 568 0
DWIDTH 8 0
BBX 8 13 0 -2
BITMAP
00
7C
C6
C6
C0
7C
06
06
C6
C6
7C
18
30
ENDCHAR

STARTCHAR scedilla
ENCODING 351
SWIDTH 568 0
DWIDTH 8 0
BBX 8 13 0 -2
BITMAP
00
00
00
00
7C
C6
60
38
0C
C6
7C
18
30
ENDCHAR

STARTCHAR Scaron
ENCODING 352
SWIDTH 568 0
DWIDTH 8 0
BBX 8 13 0 -2
BITMAP
6C
38
00
7C
C6
C0
7C
06
06
C6
7C
00
00
ENDCHAR

STARTCHAR scaron
ENCODING 353
SWIDTH 568 0
DWIDTH 8 0
BBX 8 13 0 -2
BITMAP
00
00
6C
38
00
7C
C6
70
1C
C6
7C
00
00
ENDCHAR

STARTCHAR Tcommaaccent
ENCODING 354
SWIDTH 568 0
DWIDTH 8 0
BBX 8 13 0 -2
BITMAP
00
7E
18
18
18
18
18
18
18
18
18
0C
18
ENDCHAR

STARTCHAR tcommaaccent
ENCODING 355
SWIDTH 568 0
DWIDTH 8 0
BBX 8 13 0 -2
BITMAP
00
60
60
60
60
FC
60
60
60
66
3C
18
30
ENDCHAR

STARTCHAR Tcaron
ENCODING 356
SWIDTH 568 0
DWIDTH 8 0
BBX 8 13 0 -2
BITMAP
6C
38
00
7E
18
18
18
18
18
18
18
00
00
ENDCHAR

STARTCHAR tcaron
ENCODING 357
SWIDTH 568 0
DWIDTH 8 0
BBX 8 13 0 -2
BITMAP
6C
38
00
60
60
FC
60
60
60
66
3C
00
00
ENDCHAR

STARTCHAR Tbar
ENCODING 358
SWIDTH 568 0
DWIDTH 8 0
BBX 8 13 0 -2
BITMAP
00
7E
18
18
7E
18
18
18
18
18
18
00
00
ENDCHAR

STARTCHAR tbar
ENCODING 359
SWIDTH 568 0
DWIDTH 8 0
BBX 8 13 0 -2
BITMAP
00
60
60
FC
60
FC
60
60
60
66
3C
00
00
ENDCHAR

STARTCHAR Utilde
ENCODING 360
SWIDTH 568 0
DWIDTH 8 0
BBX 8 13 0 -2
BITMAP
34
58
00
C6
C6
C6
C6
C6
C6
C6
7C
00
00
ENDCHAR

STARTCHAR utilde
ENCODING 361
SWIDTH 568 0
DWIDTH 8 0
BBX 8 13 0 -2
BITMAP
00
34
58
00
C6
C6
C6
C6
C6
CE
76
00
00
ENDCHAR

STARTCHAR Umacron
ENCODING 362
SWIDTH 568 0
DWIDTH 8 0
BBX 8 13 0 -2
BITMAP
00
7C
00
C6
C6
C6
C6
C6
C6
C6
7C
00
00
ENDCHAR

STARTCHAR umacron
ENCODING 363
SWIDTH 568 0
DWIDTH 8 0
BBX 8 13 0 -2
BITMAP
00
7C
00
00
C6
C6
C6
C6
C6
CE
76
00
00
ENDCHAR

STARTCHAR Ubreve
ENCODING 364
SWIDTH 568 0
DWIDTH 8 0
BBX 8 13 0 -2
BITMAP
44
38
00
C6
C6
C6
C6
C6
C6
C6
7C
00
00
ENDCHAR

STARTCHAR ubreve
ENCODING 365
SWIDTH 568 0
DWIDTH 8 0
BBX 8 13 0 -2
BITMAP
00
44
38
00
C6
C6
C6
C6
C6
CE
76
00
00
ENDCHAR

STARTCHAR Uring
ENCODING 366
SWIDTH 568 0
DWIDTH 8 0
BBX 8 13 0 -2
BITMAP
18
24
18
C6
C6
C6
C6
C6
C6
C6
7C
00
00
ENDCHAR

STARTCHAR uring
ENCODING 367
SWIDTH 568 0
DWIDTH 8 0
BBX 8 13 0 -2
BITMAP
00
18
24
18
C6
C6
C6
C6
C6
CE
76
00
00
ENDCHAR

STARTCHAR Uhungarumlaut
ENCODING 368
SWIDTH 568 0
DWIDTH 8 0
BBX 8 13 0 -2
BITMAP
66
CC
00
C6
C6
C6
C6
C6
C6
C6
7C
00
00
ENDCHAR

STARTCHAR uhungarumlaut
ENCODING 369
SWIDTH 568 0
DWIDTH 8 0
BBX 8 13 0 -2
BITMAP
00
66
CC
00
C6
C6
C6
C6
C6
CE
76
00
00
ENDCHAR

STARTCHAR Uogonek
ENCODING 370
SWIDTH 568 0
DWIDTH 8 0
BBX 8 13 0 -2
BITMAP
00
C6
C6
C6
C6
C6
C6
C6
C6
C6
7C
30
3C
ENDCHAR

STARTCHAR uogonek
ENCODING 371
SWIDTH 568 0
DWIDTH 8 0
BBX 8 13 0 -2
BITMAP
00
00
00
00
C6
C6
C6
C6
C6
CE
76
30
3C
ENDCHAR

STARTCHAR Wcircumflex
ENCODING 372
SWIDTH 568 0
DWIDTH 8 0
BBX 8 13 0 -2
BITMAP
38
6C
00
C6
C6
C6
C6
D6
D6
FE
6C
00
00
ENDCHAR

STARTCHAR wcircumflex
ENCODING 373
SWIDTH 568 0
DWIDTH 8 0
BBX 8 13 0 -2
BITMAP
00
38
6C
00
C6
C6
C6
D6
D6
FE
6C
00
00
ENDCHAR

STARTCHAR Ycircumflex
ENCODING 374
SWIDTH 568 0
DWIDTH 8 0
BBX 8 13 0 -2
BITMAP
38
6C
00
66
66
66
3C
3C
18
18
18
00
00
ENDCHAR

STARTCHAR ycircumflex
ENCODING 375
SWIDTH 568 0
DWIDTH 8 0
BBX 8 13 0 -2
BITMAP
00
38
6C
00
C6
C6
C6
C6
CE
76
06
C6
7C
ENDCHAR

STARTCHAR Ydieresis
ENCODING 376
SWIDTH 568 0
DWIDTH 8 0
BBX 8 13 0 -2
BITMAP
66
66
00
66
66
66
3C
3C
18
18
18
00
00
ENDCHAR

STARTCHAR Zacute
ENCODING 377
SWIDTH 568 0
DWIDTH 8 0
BBX 8 13 0 -2
BITMAP
00
18
30
00
FE
0C
18
30
60
C0
FE
00
00
ENDCHAR

STARTCHAR zacute
ENCODING 378
SWIDTH 568 0
DWIDTH 8 0
BBX 8 13 0 -2
BITMAP
00
00
18
30
00
FE
0C
18
30
60
FE
00
00
ENDCHAR

STARTCHAR Zdotaccent
ENCODING 379
SWIDTH 568 0
DWIDTH 8 0
BBX 8 13 0 -2
BITMAP
00
18
18
00
FE
0C
18
30
60
C0
FE
00
00
ENDCHAR

STARTCHAR zdotaccent
ENCODING 380
SWIDTH 568 0
DWIDTH 8 0
BBX 8 13 0 -2
BITMAP
00
00
18
18
00
FE
0C
18
30
60
FE
00
00
ENDCHAR

STARTCHAR Zcaron
ENCODING 381
SWIDTH 568 0
DWIDTH 8 0
BBX 8 13 0 -2
BITMAP
00
6C
38
00
FE
0C
18
30
60
C0
FE
00
00
ENDCHAR

STARTCHAR zcaron
ENCODING 382
SWIDTH 568 0
DWIDTH 8 0
BBX 8 13 0 -2
BITMAP
00
00
6C
38
00
FE
0C
18
30
60
FE
00
00
ENDCHAR

STARTCHAR longs
ENCODING 383
SWIDTH 568 0
DWIDTH 8 0
BBX 8 13 0 -2
BITMAP
00
3C
66
60
60
E0
60
60
60
60
60
00
00
ENDCHAR

STARTCHAR uni0180
ENCODING 384
SWIDTH 568 0
DWIDTH 8 0
BBX 8 13 0 -2
BITMAP
00
60
F0
60
6C
76
66
66
66
6C
38
00
00
ENDCHAR

STARTCHAR uni0181
ENCODING 385
SWIDTH 568 0
DWIDTH 8 0
BBX 8 13 0 -2
BITMAP
00
FC
B6
B6
36
3C
36
36
36
36
7C
00
00
ENDCHAR

STARTCHAR uni0182
ENCODING 386
SWIDTH 568 0
DWIDTH 8 0
BBX 8 13 0 -2
BITMAP
00
FC
C0
C0
C0
FC
C6
C6
C6
C6
FC
00
00
ENDCHAR

STARTCHAR uni0183
ENCODING 387
SWIDTH 568 0
DWIDTH 8 0
BBX 8 13 0 -2
BITMAP
00
7C
60
60
6C
76
66
66
66
6C
38
00
00
ENDCHAR

STARTCHAR uni0184
ENCODING 388
SWIDTH 568 0
DWIDTH 8 0
BBX 8 13 0 -2
BITMAP
00
60
E0
E0
60
7C
66
66
66
66
7C
00
00
ENDCHAR

STARTCHAR uni0185
ENCODING 389
SWIDTH 568 0
DWIDTH 8 0
BBX 8 13 0 -2
BITMAP
00
60
E0
E0
6C
76
66
66
66
6C
38
00
00
ENDCHAR

STARTCHAR uni0186
ENCODING 390
SWIDTH 568 0
DWIDTH 8 0
BBX 8 13 0 -2
BITMAP
00
7C
CE
C6
06
06
06
06
C6
CE
7C
00
00
ENDCHAR

STARTCHAR uni0187
ENCODING 391
SWIDTH 568 0
DWIDTH 8 0
BBX 8 13 0 -2
BITMAP
01
7D
E6
C6
C0
C0
C0
C0
C6
E6
7C
00
00
ENDCHAR

STARTCHAR uni0188
ENCODING 392
SWIDTH 568 0
DWIDTH 8 0
BBX 8 13 0 -2
BITMAP
00
00
00
01
7D
E6
C0
C0
C0
E6
7C
00
00
ENDCHAR

STARTCHAR uni0189
ENCODING 393
SWIDTH 568 0
DWIDTH 8 0
BBX 8 13 0 -2
BITMAP
00
FC
66
66
66
F6
66
66
66
66
FC
00
00
ENDCHAR

STARTCHAR uni018A
ENCODING 394
SWIDTH 568 0
DWIDTH 8 0
BBX 8 13 0 -2
BITMAP
00
FC
B6
B6
36
36
36
36
36
36
7C
00
00
ENDCHAR

STARTCHAR uni018B
ENCODING 395
SWIDTH 568 0
DWIDTH 8 0
BBX 8 13 0 -2
BITMAP
00
7E
06
06
06
7E
C6
C6
C6
C6
7E
00
00
ENDCHAR

STARTCHAR uni018C
ENCODING 396
SWIDTH 568 0
DWIDTH 8 0
BBX 8 13 0 -2
BITMAP
00
3E
06
06
36
6E
66
66
66
36
1C
00
00
ENDCHAR

STARTCHAR uni018D
ENCODING 397
SWIDTH 568 0
DWIDTH 8 0
BBX 8 13 0 -2
BITMAP
00
00
00
00
7C
C6
C6
C6
C6
C6
7C
18
70
ENDCHAR

STARTCHAR uni018E
ENCODING 398
SWIDTH 568 0
DWIDTH 8 0
BBX 8 13 0 -2
BITMAP
00
FE
06
06
06
3E
06
06
06
06
FE
00
00
ENDCHAR

STARTCHAR uni018F
ENCODING 399
SWIDTH 568 0
DWIDTH 8 0
BBX 8 13 0 -2
BITMAP
00
00
7C
C6
06
06
FE
C6
C6
C6
7C
00
00
ENDCHAR

STARTCHAR uni0190
ENCODING 400
SWIDTH 568 0
DWIDTH 8 0
BBX 8 13 0 -2
BITMAP
00
7C
C6
C0
60
30
60
C0
C0
C6
7C
00
00
ENDCHAR

STARTCHAR uni0191
ENCODING 401
SWIDTH 568 0
DWIDTH 8 0
BBX 8 13 0 -2
BITMAP
00
3F
30
30
30
3C
30
30
30
30
30
B0
60
ENDCHAR

STARTCHAR florin
ENCODING 402
SWIDTH 568 0
DWIDTH 8 0
BBX 8 13 0 -2
BITMAP
00
00
0E
1B
18
18
7E
18
18
18
18
D8
70
ENDCHAR

STARTCHAR uni0193
ENCODING 403
SWIDTH 568 0
DWIDTH 8 0
BBX 8 13 0 -2
BITMAP
01
7D
C6
C6
C0
C0
C0
CE
C6
C6
7C
00
00
ENDCHAR

STARTCHAR uni0194
ENCODING 404
SWIDTH 568 0
DWIDTH 8 0
BBX 8 13 0 -2
BITMAP
00
C6
C6
C6
C6
6C
6C
38
6C
6C
38
00
00
ENDCHAR

STARTCHAR uni0195
ENCODING 405
SWIDTH 568 0
DWIDTH 8 0
BBX 8 13 0 -2
BITMAP
00
C0
C0
C0
F2
DA
DA
DA
DA
DA
CC
00
00
ENDCHAR

STARTCHAR uni0196
ENCODING 406
SWIDTH 568 0
DWIDTH 8 0
BBX 8 13 0 -2
BITMAP
00
38
18
18
18
18
18
18
18
1A
0C
00
00
ENDCHAR

STARTCHAR uni0197
ENCODING 407
SWIDTH 568 0
DWIDTH 8 0
BBX 8 13 0 -2
BITMAP
00
3C
18
18
18
7E
18
18
18
18
3C
00
00
ENDCHAR

STARTCHAR uni0198
ENCODING 408
SWIDTH 568 0
DWIDTH 8 0
BBX 8 13 0 -2
BITMAP
00
CC
CA
DA
F0
E0
F0
D8
CC
C6
C6
00
00
ENDCHAR

STARTCHAR uni0199
ENCODING 409
SWIDTH 568 0
DWIDTH 8 0
BBX 8 13 0 -2
BITMAP
00
70
C8
C0
CC
D8
F0
F0
D8
CC
C6
00
00
ENDCHAR

STARTCHAR uni019A
ENCODING 410
SWIDTH 568 0
DWIDTH 8 0
BBX 8 13 0 -2
BITMAP
00
38
18
18
18
7E
18
18
18
18
7E
00
00
ENDCHAR

STARTCHAR uni019B
ENCODING 411
SWIDTH 568 0
DWIDTH 8 0
BBX 8 13 0 -2
BITMAP
00
D8
70
F0
98
38
6C
6C
C6
C6
C6
00
00
ENDCHAR

STARTCHAR uni019C
ENCODING 412
SWIDTH 568 0
DWIDTH 8 0
BBX 8 13 0 -2
BITMAP
00
C6
C6
C6
D6
D6
D6
D6
D6
FE
6B
00
00
ENDCHAR

STARTCHAR uni019D
ENCODING 413
SWIDTH 568 0
DWIDTH 8 0
BBX 8 13 0 -2
BITMAP
00
66
66
66
76
76
7E
6E
66
66
66
60
C0
ENDCHAR

STARTCHAR uni019E
ENCODING 414
SWIDTH 568 0
DWIDTH 8 0
BBX 8 13 0 -2
BITMAP
00
00
00
00
DC
E6
C6
C6
C6
C6
C6
06
06
ENDCHAR

STARTCHAR uni019F
ENCODING 415
SWIDTH 568 0
DWIDTH 8 0
BBX 8 13 0 -2
BITMAP
00
7C
C6
C6
C6
FE
C6
C6
C6
C6
7C
00
00
ENDCHAR

STARTCHAR Ohorn
ENCODING 416
SWIDTH 568 0
DWIDTH 8 0
BBX 8 13 0 -2
BITMAP
00
79
CD
CE
CC
CC
CC
CC
CC
CC
78
00
00
ENDCHAR

STARTCHAR ohorn
ENCODING 417
SWIDTH 568 0
DWIDTH 8 0
BBX 8 13 0 -2
BITMAP
00
00
00
00
79
CD
CE
CC
CC
CC
78
00
00
ENDCHAR

STARTCHAR uni01A2
ENCODING 418
SWIDTH 568 0
DWIDTH 8 0
BBX 8 13 0 -2
BITMAP
00
74
DA
DA
DA
DA
DA
DA
DA
DA
72
02
02
ENDCHAR

STARTCHAR uni01A3
ENCODING 419
SWIDTH 568 0
DWIDTH 8 0
BBX 8 13 0 -2
BITMAP
00
00
00
00
74
DA
DA
DA
DA
DA
72
02
02
ENDCHAR

STARTCHAR uni01A4
ENCODING 420
SWIDTH 568 0
DWIDTH 8 0
BBX 8 13 0 -2
BITMAP
00
FC
B6
B6
36
36
3C
30
30
30
30
00
00
ENDCHAR

STARTCHAR uni01A5
ENCODING 421
SWIDTH 568 0
DWIDTH 8 0
BBX 8 13 0 -2
BITMAP
00
00
00
00
D9
ED
CE
CC
CC
EC
D8
C0
C0
ENDCHAR

STARTCHAR uni01A6
ENCODING 422
SWIDTH 568 0
DWIDTH 8 0
BBX 8 13 0 -2
BITMAP
00
C0
C0
FC
C6
C6
C6
FC
F8
CC
CC
06
06
ENDCHAR

STARTCHAR uni01A7
ENCODING 423
SWIDTH 568 0
DWIDTH 8 0
BBX 8 13 0 -2
BITMAP
00
7C
C6
C6
06
7C
C0
C0
C6
C6
7C
00
00
ENDCHAR

STARTCHAR uni01A8
ENCODING 424
SWIDTH 568 0
DWIDTH 8 0
BBX 8 13 0 -2
BITMAP
00
00
00
00
7C
C6
0C
38
60
C6
7C
00
00
ENDCHAR

STARTCHAR uni01A9
ENCODING 425
SWIDTH 568 0
DWIDTH 8 0
BBX 8 13 0 -2
BITMAP
00
FE
C2
C0
60
30
30
60
C0
C2
FE
00
00
ENDCHAR

STARTCHAR uni01AA
ENCODING 426
SWIDTH 568 0
DWIDTH 8 0
BBX 8 13 0 -2
BITMAP
00
70
98
98
78
18
18
18
18
1A
1A
0C
00
ENDCHAR

STARTCHAR uni01AB
ENCODING 427
SWIDTH 568 0
DWIDTH 8 0
BBX 8 13 0 -2
BITMAP
00
60
60
60
60
FC
60
60
60
6C
36
06
0C
ENDCHAR

STARTCHAR uni01AC
ENCODING 428
SWIDTH 568 0
DWIDTH 8 0
BBX 8 13 0 -2
BITMAP
00
FE
98
98
18
18
18
18
18
18
18
00
00
ENDCHAR

STARTCHAR uni01AD
ENCODING 429
SWIDTH 568 0
DWIDTH 8 0
BBX 8 13 0 -2
BITMAP
00
38
64
60
60
FC
60
60
60
66
3C
00
00
ENDCHAR

STARTCHAR uni01AE
ENCODING 430
SWIDTH 568 0
DWIDTH 8 0
BBX 8 13 0 -2
BITMAP
00
FC
30
30
30
30
30
30
30
32
32
1C
00
ENDCHAR

STARTCHAR Uhorn
ENCODING 431
SWIDTH 568 0
DWIDTH 8 0
BBX 8 13 0 -2
BITMAP
00
CD
CD
CE
CC
CC
CC
CC
CC
CC
78
00
00
ENDCHAR

STARTCHAR uhorn
ENCODING 432
SWIDTH 568 0
DWIDTH 8 0
BBX 8 13 0 -2
BITMAP
00
00
00
00
CD
CD
CE
CC
CC
DC
6C
00
00
ENDCHAR

STARTCHAR uni01B1
ENCODING 433
SWIDTH 568 0
DWIDTH 8 0
BBX 8 13 0 -2
BITMAP
00
C6
6C
6C
6C
C6
C6
C6
C6
C6
7C
00
00
ENDCHAR

STARTCHAR uni01B2
ENCODING 434
SWIDTH 568 0
DWIDTH 8 0
BBX 8 13 0 -2
BITMAP
00
D8
CC
CC
C6
C6
C6
C6
C6
C6
7C
00
00
ENDCHAR

STARTCHAR uni01B3
ENCODING 435
SWIDTH 568 0
DWIDTH 8 0
BBX 8 13 0 -2
BITMAP
00
00
E6
B6
B6
3C
1C
18
18
18
18
00
00
ENDCHAR

STARTCHAR uni01B4
ENCODING 436
SWIDTH 568 0
DWIDTH 8 0
BBX 8 13 0 -2
BITMAP
00
00
00
02
CD
CD
CC
CC
DC
6C
0C
CC
78
ENDCHAR

STARTCHAR uni01B5
ENCODING 437
SWIDTH 568 0
DWIDTH 8 0
BBX 8 13 0 -2
BITMAP
00
FE
06
06
0C
FE
30
60
C0
C0
FE
00
00
ENDCHAR

STARTCHAR uni01B6
ENCODING 438
SWIDTH 568 0
DWIDTH 8 0
BBX 8 13 0 -2
BITMAP
00
00
00
00
FE
0C
18
FC
60
C0
FE
00
00
ENDCHAR

STARTCHAR uni01B7
ENCODING 439
SWIDTH 568 0
DWIDTH 8 0
BBX 8 13 0 -2
BITMAP
00
FE
06
0C
18
3C
06
06
86
CC
78
00
00
ENDCHAR

STARTCHAR uni01B8
ENCODING 440
SWIDTH 568 0
DWIDTH 8 0
BBX 8 13 0 -2
BITMAP
00
FE
C0
60
30
78
C0
C0
C2
66
3C
00
00
ENDCHAR

STARTCHAR uni01B9
ENCODING 441
SWIDTH 568 0
DWIDTH 8 0
BBX 8 13 0 -2
BITMAP
00
00
00
00
FE
60
30
78
C0
C0
C2
66
3C
ENDCHAR

STARTCHAR uni01BA
ENCODING 442
SWIDTH 568 0
DWIDTH 8 0
BBX 8 13 0 -2
BITMAP
00
00
00
7E
0C
18
3C
06
06
0C
38
62
3C
ENDCHAR

STARTCHAR uni01BB
ENCODING 443
SWIDTH 568 0
DWIDTH 8 0
BBX 8 13 0 -2
BITMAP
00
7C
C6
C6
06
0C
FE
30
60
C0
FE
00
00
ENDCHAR

STARTCHAR uni01BC
ENCODING 444
SWIDTH 568 0
DWIDTH 8 0
BBX 8 13 0 -2
BITMAP
00
FE
C2
C0
DC
E6
06
06
06
C6
7C
00
00
ENDCHAR

STARTCHAR uni01BD
ENCODING 445
SWIDTH 568 0
DWIDTH 8 0
BBX 8 13 0 -2
BITMAP
00
00
7E
62
60
6C
76
06
06
66
3C
00
00
ENDCHAR

STARTCHAR uni01BE
ENCODING 446
SWIDTH 568 0
DWIDTH 8 0
BBX 8 13 0 -2
BITMAP
00
18
18
7E
18
1C
06
06
06
66
3C
00
00
ENDCHAR

STARTCHAR uni01BF
ENCODING 447
SWIDTH 568 0
DWIDTH 8 0
BBX 8 13 0 -2
BITMAP
00
00
00
1C
E6
C6
C6
C6
CC
D8
F0
C0
C0
ENDCHAR

STARTCHAR uni01C0
ENCODING 448
SWIDTH 568 0
DWIDTH 8 0
BBX 8 13 0 -2
BITMAP
00
18
18
18
18
18
18
18
18
18
18
18
18
ENDCHAR

STARTCHAR uni01C1
ENCODING 449
SWIDTH 568 0
DWIDTH 8 0
BBX 8 13 0 -2
BITMAP
00
6C
6C
6C
6C
6C
6C
6C
6C
6C
6C
6C
6C
ENDCHAR

STARTCHAR uni01C2
ENCODING 450
SWIDTH 568 0
DWIDTH 8 0
BBX 8 13 0 -2
BITMAP
00
18
18
18
18
7E
18
7E
18
18
18
18
18
ENDCHAR

STARTCHAR uni01C3
ENCODING 451
SWIDTH 568 0
DWIDTH 8 0
BBX 8 13 0 -2
BITMAP
00
18
3C
3C
3C
18
18
00
00
18
18
00
00
ENDCHAR

STARTCHAR uni01C4
ENCODING 452
SWIDTH 568 0
DWIDTH 8 0
BBX 8 13 0 -2
BITMAP
05
F2
DF
D9
D9
DA
DA
DA
DC
DC
F7
00
00
ENDCHAR

STARTCHAR uni01C5
ENCODING 453
SWIDTH 568 0
DWIDTH 8 0
BBX 8 13 0 -2
BITMAP
05
F2
D8
D8
DF
D9
D9
DA
DC
DC
F7
00
00
ENDCHAR

STARTCHAR uni01C6
ENCODING 454
SWIDTH 568 0
DWIDTH 8 0
BBX 8 13 0 -2
BITMAP
05
1A
18
18
7F
D9
D9
DA
DC
DC
7F
00
00
ENDCHAR

STARTCHAR uni01C7
ENCODING 455
SWIDTH 568 0
DWIDTH 8 0
BBX 8 13 0 -2
BITMAP
00
C7
C3
C3
C3
C3
C3
C3
C3
F3
03
63
3E
ENDCHAR

STARTCHAR uni01C8
ENCODING 456
SWIDTH 568 0
DWIDTH 8 0
BBX 8 13 0 -2
BITMAP
00
C0
C3
C3
C0
C7
C3
C3
C3
F3
03
63
3E
ENDCHAR

STARTCHAR uni01C9
ENCODING 457
SWIDTH 568 0
DWIDTH 8 0
BBX 8 13 0 -2
BITMAP
00
E0
63
63
60
67
63
63
63
F3
03
63
3E
ENDCHAR

STARTCHAR uni01CA
ENCODING 458
SWIDTH 568 0
DWIDTH 8 0
BBX 8 13 0 -2
BITMAP
00
F3
FB
DB
DB
DB
DB
DB
DB
DB
03
63
3E
ENDCHAR

STARTCHAR uni01CB
ENCODING 459
SWIDTH 568 0
DWIDTH 8 0
BBX 8 13 0 -2
BITMAP
00
F0
FB
DB
D8
DF
DB
DB
DB
DB
03
63
3E
ENDCHAR

STARTCHAR uni01CC
ENCODING 460
SWIDTH 568 0
DWIDTH 8 0
BBX 8 13 0 -2
BITMAP
00
00
00
B3
DB
D8
DB
DB
DB
DB
03
63
3E
ENDCHAR

STARTCHAR uni01CD
ENCODING 461
SWIDTH 568 0
DWIDTH 8 0
BBX 8 13 0 -2
BITMAP
00
24
18
00
38
7C
C6
C6
FE
C6
C6
00
00
ENDCHAR

STARTCHAR uni01CE
ENCODING 462
SWIDTH 568 0
DWIDTH 8 0
BBX 8 13 0 -2
BITMAP
00
24
18
00
7C
06
7E
C6
C6
CE
76
00
00
ENDCHAR

STARTCHAR uni01CF
ENCODING 463
SWIDTH 568 0
DWIDTH 8 0
BBX 8 13 0 -2
BITMAP
24
18
00
3C
18
18
18
18
18
18
3C
00
00
ENDCHAR

STARTCHAR uni01D0
ENCODING 464
SWIDTH 568 0
DWIDTH 8 0
BBX 8 13 0 -2
BITMAP
00
00
24
18
00
38
18
18
18
18
3C
00
00
ENDCHAR

STARTCHAR uni01D1
ENCODING 465
SWIDTH 568 0
DWIDTH 8 0
BBX 8 13 0 -2
BITMAP
24
18
00
7C
C6
C6
C6
C6
C6
C6
7C
00
00
ENDCHAR

STARTCHAR uni01D2
ENCODING 466
SWIDTH 568 0
DWIDTH 8 0
BBX 8 13 0 -2
BITMAP
00
24
18
00
7C
C6
C6
C6
C6
C6
7C
00
00
ENDCHAR

STARTCHAR uni01D3
ENCODING 467
SWIDTH 568 0
DWIDTH 8 0
BBX 8 13 0 -2
BITMAP
24
18
00
C6
C6
C6
C6
C6
C6
C6
7C
00
00
ENDCHAR

STARTCHAR uni01D4
ENCODING 468
SWIDTH 568 0
DWIDTH 8 0
BBX 8 13 0 -2
BITMAP
00
24
18
00
C6
C6
C6
C6
C6
CE
76
00
00
ENDCHAR

STARTCHAR uni01D5
ENCODING 469
SWIDTH 568 0
DWIDTH 8 0
BBX 8 13 0 -2
BITMAP
7C
00
C6
00
C6
C6
C6
C6
C6
C6
7C
00
00
ENDCHAR

STARTCHAR uni01D6
ENCODING 470
SWIDTH 568 0
DWIDTH 8 0
BBX 8 13 0 -2
BITMAP
7C
00
44
44
00
C6
C6
C6
C6
CE
76
00
00
ENDCHAR

STARTCHAR uni01D7
ENCODING 471
SWIDTH 568 0
DWIDTH 8 0
BBX 8 13 0 -2
BITMAP
08
10
C6
00
C6
C6
C6
C6
C6
C6
7C
00
00
ENDCHAR

STARTCHAR uni01D8
ENCODING 472
SWIDTH 568 0
DWIDTH 8 0
BBX 8 13 0 -2
BITMAP
08
10
00
C6
00
C6
C6
C6
C6
CE
76
00
00
ENDCHAR

STARTCHAR uni01D9
ENCODING 473
SWIDTH 568 0
DWIDTH 8 0
BBX 8 13 0 -2
BITMAP
28
10
C6
00
C6
C6
C6
C6
C6
C6
7C
00
00
ENDCHAR

STARTCHAR uni01DA
ENCODING 474
SWIDTH 568 0
DWIDTH 8 0
BBX 8 13 0 -2
BITMAP
28
10
00
C6
00
C6
C6
C6
C6
CE
76
00
00
ENDCHAR

STARTCHAR uni01DB
ENCODING 475
SWIDTH 568 0
DWIDTH 8 0
BBX 8 13 0 -2
BITMAP
20
10
C6
00
C6
C6
C6
C6
C6
C6
7C
00
00
ENDCHAR

STARTCHAR uni01DC
ENCODING 476
SWIDTH 568 0
DWIDTH 8 0
BBX 8 13 0 -2
BITMAP
20
10
00
C6
00
C6
C6
C6
C6
CE
76
00
00
ENDCHAR

STARTCHAR uni01DD
ENCODING 477
SWIDTH 568 0
DWIDTH 8 0
BBX 8 13 0 -2
BITMAP
00
00
00
00
7C
C6
06
FE
C6
C6
7C
00
00
ENDCHAR

STARTCHAR uni01DE
ENCODING 478
SWIDTH 568 0
DWIDTH 8 0
BBX 8 13 0 -2
BITMAP
7C
00
6C
00
38
7C
C6
C6
FE
C6
C6
00
00
ENDCHAR

STARTCHAR uni01DF
ENCODING 479
SWIDTH 568 0
DWIDTH 8 0
BBX 8 13 0 -2
BITMAP
7C
00
6C
00
7C
06
7E
C6
C6
CE
76
00
00
ENDCHAR

STARTCHAR uni01E0
ENCODING 480
SWIDTH 568 0
DWIDTH 8 0
BBX 8 13 0 -2
BITMAP
7C
00
30
00
38
7C
C6
C6
FE
C6
C6
00
00
ENDCHAR

STARTCHAR uni01E1
ENCODING 481
SWIDTH 568 0
DWIDTH 8 0
BBX 8 13 0 -2
BITMAP
7E
00
18
00
7C
06
7E
C6
C6
CE
76
00
00
ENDCHAR

STARTCHAR uni01E2
ENCODING 482
SWIDTH 568 0
DWIDTH 8 0
BBX 8 13 0 -2
BITMAP
7E
00
7E
F8
D8
D8
D8
FC
D8
D8
DE
00
00
ENDCHAR

STARTCHAR uni01E3
ENCODING 483
SWIDTH 568 0
DWIDTH 8 0
BBX 8 13 0 -2
BITMAP
00
00
7C
00
6C
DA
1A
7C
D8
DA
6C
00
00
ENDCHAR

STARTCHAR uni01E4
ENCODING 484
SWIDTH 568 0
DWIDTH 8 0
BBX 8 13 0 -2
BITMAP
00
7C
C6
C6
C0
C0
CE
C6
CF
C6
7C
00
00
ENDCHAR

STARTCHAR uni01E5
ENCODING 485
SWIDTH 568 0
DWIDTH 8 0
BBX 8 13 0 -2
BITMAP
00
00
00
3E
6C
6C
38
70
3C
66
FF
66
3C
ENDCHAR

STARTCHAR Gcaron
ENCODING 486
SWIDTH 568 0
DWIDTH 8 0
BBX 8 13 0 -2
BITMAP
24
18
00
7C
C6
C6
C0
CE
C6
C6
7C
00
00
ENDCHAR

STARTCHAR gcaron
ENCODING 487
SWIDTH 568 0
DWIDTH 8 0
BBX 8 13 0 -2
BITMAP
00
24
18
00
7E
CC
CC
CC
78
F0
7C
C6
7C
ENDCHAR

STARTCHAR uni01E8
ENCODING 488
SWIDTH 568 0
DWIDTH 8 0
BBX 8 13 0 -2
BITMAP
24
18
00
C6
CC
D8
F0
F0
D8
CC
C6
00
00
ENDCHAR

STARTCHAR uni01E9
ENCODING 489
SWIDTH 568 0
DWIDTH 8 0
BBX 8 13 0 -2
BITMAP
00
CA
C4
C0
CC
D8
F0
F0
D8
CC
C6
00
00
ENDCHAR

STARTCHAR uni01EA
ENCODING 490
SWIDTH 568 0
DWIDTH 8 0
BBX 8 13 0 -2
BITMAP
00
7C
C6
C6
C6
C6
C6
C6
C6
C6
7C
30
38
ENDCHAR

STARTCHAR uni01EB
ENCODING 491
SWIDTH 568 0
DWIDTH 8 0
BBX 8 13 0 -2
BITMAP
00
00
00
00
7C
C6
C6
C6
C6
C6
7C
30
38
ENDCHAR

STARTCHAR uni01EC
ENCODING 492
SWIDTH 568 0
DWIDTH 8 0
BBX 8 13 0 -2
BITMAP
7C
00
7C
C6
C6
C6
C6
C6
C6
C6
7C
30
38
ENDCHAR

STARTCHAR uni01ED
ENCODING 493
SWIDTH 568 0
DWIDTH 8 0
BBX 8 13 0 -2
BITMAP
00
00
7C
00
7C
C6
C6
C6
C6
C6
7C
30
38
ENDCHAR

STARTCHAR uni01EE
ENCODING 494
SWIDTH 568 0
DWIDTH 8 0
BBX 8 13 0 -2
BITMAP
24
18
00
FE
0C
18
3C
06
86
CC
78
00
00
ENDCHAR

STARTCHAR uni01EF
ENCODING 495
SWIDTH 568 0
DWIDTH 8 0
BBX 8 13 0 -2
BITMAP
00
24
18
00
FE
0C
18
3C
06
06
86
CC
78
ENDCHAR

STARTCHAR uni01F0
ENCODING 496
SWIDTH 568 0
DWIDTH 8 0
BBX 8 13 0 -2
BITMAP
00
00
12
0C
00
0E
06
06
06
06
C6
C6
7C
ENDCHAR

STARTCHAR uni01F1
ENCODING 497
SWIDTH 568 0
DWIDTH 8 0
BBX 8 13 0 -2
BITMAP
00
F7
D9
D9
D9
DA
DA
DA
DC
DC
F7
00
00
ENDCHAR

STARTCHAR uni01F2
ENCODING 498
SWIDTH 568 0
DWIDTH 8 0
BBX 8 13 0 -2
BITMAP
00
F0
D8
D8
DF
D9
D9
DA
DC
DC
F7
00
00
ENDCHAR

STARTCHAR uni01F3
ENCODING 499
SWIDTH 568 0
DWIDTH 8 0
BBX 8 13 0 -2
BITMAP
00
18
18
18
7F
D9
D9
DA
DC
DC
7F
00
00
ENDCHAR

STARTCHAR uni01F4
ENCODING 500
SWIDTH 568 0
DWIDTH 8 0
BBX 8 13 0 -2
BITMAP
0C
18
00
7C
C6
C6
C0
CE
C6
C6
7C
00
00
ENDCHAR

STARTCHAR uni01F5
ENCODING 501
SWIDTH 568 0
DWIDTH 8 0
BBX 8 13 0 -2
BITMAP
00
0C
18
00
7E
CC
CC
CC
78
F0
7C
C6
7C
ENDCHAR

STARTCHAR Aringacute
ENCODING 506
SWIDTH 568 0
DWIDTH 8 0
BBX 8 13 0 -2
BITMAP
18
30
38
44
38
7C
C6
C6
FE
C6
C6
00
00
ENDCHAR

STARTCHAR aringacute
ENCODING 507
SWIDTH 568 0
DWIDTH 8 0
BBX 8 13 0 -2
BITMAP
0C
18
18
24
7C
06
7E
C6
C6
CE
76
00
00
ENDCHAR

STARTCHAR AEacute
ENCODING 508
SWIDTH 568 0
DWIDTH 8 0
BBX 8 13 0 -2
BITMAP
0C
18
00
7E
F8
D8
D8
FC
D8
D8
DE
00
00
ENDCHAR

STARTCHAR aeacute
ENCODING 509
SWIDTH 568 0
DWIDTH 8 0
BBX 8 13 0 -2
BITMAP
00
0C
18
00
6C
DA
1A
7C
D8
DA
6C
00
00
ENDCHAR

STARTCHAR Oslashacute
ENCODING 510
SWIDTH 568 0
DWIDTH 8 0
BBX 8 13 0 -2
BITMAP
0C
18
02
7C
CE
D6
D6
D6
D6
E6
7C
80
00
ENDCHAR

STARTCHAR oslashacute
ENCODING 511
SWIDTH 568 0
DWIDTH 8 0
BBX 8 13 0 -2
BITMAP
00
0C
18
02
7C
CE
D6
D6
D6
E6
7C
80
00
ENDCHAR

STARTCHAR Scommaaccent
ENCODING 536
SWIDTH 568 0
DWIDTH 8 0
BBX 8 13 0 -2
BITMAP
00
7C
C6
C6
C0
7C
06
06
C6
C6
7C
18
30
ENDCHAR

STARTCHAR scommaaccent
ENCODING 537
SWIDTH 568 0
DWIDTH 8 0
BBX 8 13 0 -2
BITMAP
00
00
00
00
7C
C6
60
38
0C
C6
7C
18
30
ENDCHAR

STARTCHAR Tcommaaccent
ENCODING 538
SWIDTH 568 0
DWIDTH 8 0
BBX 8 13 0 -2
BITMAP
00
7E
18
18
18
18
18
18
18
18
18
0C
18
ENDCHAR

STARTCHAR tcommaaccent
ENCODING 539
SWIDTH 568 0
DWIDTH 8 0
BBX 8 13 0 -2
BITMAP
00
60
60
60
60
FC
60
60
60
66
3C
18
30
ENDCHAR

STARTCHAR uni0259
ENCODING 601
SWIDTH 568 0
DWIDTH 8 0
BBX 8 13 0 -2
BITMAP
00
00
00
00
7C
C6
06
FE
C6
C6
7C
00
00
ENDCHAR

STARTCHAR afii57929
ENCODING 700
SWIDTH 568 0
DWIDTH 8 0
BBX 8 13 0 -2
BITMAP
00
38
18
30
00
00
00
00
00
00
00
00
00
ENDCHAR

STARTCHAR afii64937
ENCODING 701
SWIDTH 568 0
DWIDTH 8 0
BBX 8 13 0 -2
BITMAP
00
38
30
18
00
00
00
00
00
00
00
00
00
ENDCHAR

STARTCHAR circumflex
ENCODING 710
SWIDTH 568 0
DWIDTH 8 0
BBX 8 13 0 -2
BITMAP
00
38
6C
00
00
00
00
00
00
00
00
00
00
ENDCHAR

STARTCHAR caron
ENCODING 711
SWIDTH 568 0
DWIDTH 8 0
BBX 8 13 0 -2
BITMAP
00
6C
38
00
00
00
00
00
00
00
00
00
00
ENDCHAR

STARTCHAR breve
ENCODING 728
SWIDTH 568 0
DWIDTH 8 0
BBX 8 13 0 -2
BITMAP
00
66
3C
00
00
00
00
00
00
00
00
00
00
ENDCHAR

STARTCHAR dotaccent
ENCODING 729
SWIDTH 568 0
DWIDTH 8 0
BBX 8 13 0 -2
BITMAP
00
18
00
00
00
00
00
00
00
00
00
00
00
ENDCHAR

STARTCHAR ring
ENCODING 730
SWIDTH 568 0
DWIDTH 8 0
BBX 8 13 0 -2
BITMAP
3C
66
3C
00
00
00
00
00
00
00
00
00
00
ENDCHAR

STARTCHAR ogonek
ENCODING 731
SWIDTH 568 0
DWIDTH 8 0
BBX 8 13 0 -2
BITMAP
00
00
00
00
00
00
00
00
00
00
00
18
1E
ENDCHAR

STARTCHAR tilde
ENCODING 732
SWIDTH 568 0
DWIDTH 8 0
BBX 8 13 0 -2
BITMAP
00
36
6C
00
00
00
00
00
00
00
00
00
00
ENDCHAR

STARTCHAR hungarumlaut
ENCODING 733
SWIDTH 568 0
DWIDTH 8 0
BBX 8 13 0 -2
BITMAP
00
66
CC
00
00
00
00
00
00
00
00
00
00
ENDCHAR

STARTCHAR gravecomb
ENCODING 768
SWIDTH 568 0
DWIDTH 8 0
BBX 8 13 0 -2
BITMAP
00
30
18
00
00
00
00
00
00
00
00
00
00
ENDCHAR

STARTCHAR acutecomb
ENCODING 769
SWIDTH 568 0
DWIDTH 8 0
BBX 8 13 0 -2
BITMAP
00
18
30
00
00
00
00
00
00
00
00
00
00
ENDCHAR

STARTCHAR uni0302
ENCODING 770
SWIDTH 568 0
DWIDTH 8 0
BBX 8 13 0 -2
BITMAP
00
38
6C
00
00
00
00
00
00
00
00
00
00
ENDCHAR

STARTCHAR tildecomb
ENCODING 771
SWIDTH 568 0
DWIDTH 8 0
BBX 8 13 0 -2
BITMAP
00
34
58
00
00
00
00
00
00
00
00
00
00
ENDCHAR

STARTCHAR uni0304
ENCODING 772
SWIDTH 568 0
DWIDTH 8 0
BBX 8 13 0 -2
BITMAP
3C
00
00
00
00
00
00
00
00
00
00
00
00
ENDCHAR

STARTCHAR uni0305
ENCODING 773
SWIDTH 568 0
DWIDTH 8 0
BBX 8 13 0 -2
BITMAP
FF
00
00
00
00
00
00
00
00
00
00
00
00
ENDCHAR

STARTCHAR uni0306
ENCODING 774
SWIDTH 568 0
DWIDTH 8 0
BBX 8 13 0 -2
BITMAP
00
66
3C
00
00
00
00
00
00
00
00
00
00
ENDCHAR

STARTCHAR uni0307
ENCODING 775
SWIDTH 568 0
DWIDTH 8 0
BBX 8 13 0 -2
BITMAP
00
18
18
00
00
00
00
00
00
00
00
00
00
ENDCHAR

STARTCHAR uni0308
ENCODING 776
SWIDTH 568 0
DWIDTH 8 0
BBX 8 13 0 -2
BITMAP
00
6C
6C
00
00
00
00
00
00
00
00
00
00
ENDCHAR

STARTCHAR hookabovecomb
ENCODING 777
SWIDTH 568 0
DWIDTH 8 0
BBX 8 13 0 -2
BITMAP
38
6C
0C
18
00
00
00
00
00
00
00
00
00
ENDCHAR

STARTCHAR uni030A
ENCODING 778
SWIDTH 568 0
DWIDTH 8 0
BBX 8 13 0 -2
BITMAP
18
24
18
00
00
00
00
00
00
00
00
00
00
ENDCHAR

STARTCHAR uni030B
ENCODING 779
SWIDTH 568 0
DWIDTH 8 0
BBX 8 13 0 -2
BITMAP
00
66
CC
00
00
00
00
00
00
00
00
00
00
ENDCHAR

STARTCHAR uni030C
ENCODING 780
SWIDTH 568 0
DWIDTH 8 0
BBX 8 13 0 -2
BITMAP
00
6C
38
00
00
00
00
00
00
00
00
00
00
ENDCHAR

STARTCHAR uni030D
ENCODING 781
SWIDTH 568 0
DWIDTH 8 0
BBX 8 13 0 -2
BITMAP
18
18
18
00
00
00
00
00
00
00
00
00
00
ENDCHAR

STARTCHAR uni030E
ENCODING 782
SWIDTH 568 0
DWIDTH 8 0
BBX 8 13 0 -2
BITMAP
66
66
66
00
00
00
00
00
00
00
00
00
00
ENDCHAR

STARTCHAR uni030F
ENCODING 783
SWIDTH 568 0
DWIDTH 8 0
BBX 8 13 0 -2
BITMAP
00
CC
66
00
00
00
00
00
00
00
00
00
00
ENDCHAR

STARTCHAR uni0311
ENCODING 785
SWIDTH 568 0
DWIDTH 8 0
BBX 8 13 0 -2
BITMAP
00
3C
66
00
00
00
00
00
00
00
00
00
00
ENDCHAR

STARTCHAR dotbelowcomb
ENCODING 803
SWIDTH 568 0
DWIDTH 8 0
BBX 8 13 0 -2
BITMAP
00
00
00
00
00
00
00
00
00
00
00
18
18
ENDCHAR

STARTCHAR uni0324
ENCODING 804
SWIDTH 568 0
DWIDTH 8 0
BBX 8 13 0 -2
BITMAP
00
00
00
00
00
00
00
00
00
00
00
6C
6C
ENDCHAR

STARTCHAR uni0374
ENCODING 884
SWIDTH 568 0
DWIDTH 8 0
BBX 8 13 0 -2
BITMAP
00
18
30
00
00
00
00
00
00
00
00
00
00
ENDCHAR

STARTCHAR uni0375
ENCODING 885
SWIDTH 568 0
DWIDTH 8 0
BBX 8 13 0 -2
BITMAP
00
00
00
00
00
00
00
00
00
00
00
18
30
ENDCHAR

STARTCHAR uni037A
ENCODING 890
SWIDTH 568 0
DWIDTH 8 0
BBX 8 13 0 -2
BITMAP
00
00
00
00
00
00
00
00
00
00
00
30
38
ENDCHAR

STARTCHAR uni037E
ENCODING 894
SWIDTH 568 0
DWIDTH 8 0
BBX 8 13 0 -2
BITMAP
00
00
00
18
3C
18
00
3C
1C
1C
18
30
00
ENDCHAR

STARTCHAR tonos
ENCODING 900
SWIDTH 568 0
DWIDTH 8 0
BBX 8 13 0 -2
BITMAP
00
18
30
00
00
00
00
00
00
00
00
00
00
ENDCHAR

STARTCHAR dieresistonos
ENCODING 901
SWIDTH 568 0
DWIDTH 8 0
BBX 8 13 0 -2
BITMAP
00
DE
F6
00
00
00
00
00
00
00
00
00
00
ENDCHAR

STARTCHAR Alphatonos
ENCODING 902
SWIDTH 568 0
DWIDTH 8 0
BBX 8 13 0 -2
BITMAP
00
C8
9C
36
36
36
3E
36
36
36
36
00
00
ENDCHAR

STARTCHAR anoteleia
ENCODING 903
SWIDTH 568 0
DWIDTH 8 0
BBX 8 13 0 -2
BITMAP
00
00
00
00
18
18
00
00
00
00
00
00
00
ENDCHAR

STARTCHAR Epsilontonos
ENCODING 904
SWIDTH 568 0
DWIDTH 8 0
BBX 8 13 0 -2
BITMAP
00
FE
B0
30
30
3C
30
30
30
30
3E
00
00
ENDCHAR

STARTCHAR Etatonos
ENCODING 905
SWIDTH 568 0
DWIDTH 8 0
BBX 8 13 0 -2
BITMAP
00
F6
B6
36
36
3E
36
36
36
36
36
00
00
ENDCHAR

STARTCHAR Iotatonos
ENCODING 906
SWIDTH 568 0
DWIDTH 8 0
BBX 8 13 0 -2
BITMAP
00
DE
8C
0C
0C
0C
0C
0C
0C
0C
1E
00
00
ENDCHAR

STARTCHAR Omicrontonos
ENCODING 908
SWIDTH 568 0
DWIDTH 8 0
BBX 8 13 0 -2
BITMAP
00
DC
B6
36
36
36
36
36
36
36
1C
00
00
ENDCHAR

STARTCHAR Upsilontonos
ENCODING 910
SWIDTH 568 0
DWIDTH 8 0
BBX 8 13 0 -2
BITMAP
00
F3
B3
33
1E
1E
0C
0C
0C
0C
0C
00
00
ENDCHAR

STARTCHAR Omegatonos
ENCODING 911
SWIDTH 568 0
DWIDTH 8 0
BBX 8 13 0 -2
BITMAP
00
DC
B6
36
36
36
36
36
1C
1C
36
00
00
ENDCHAR

STARTCHAR iotadieresistonos
ENCODING 912
SWIDTH 568 0
DWIDTH 8 0
BBX 8 13 0 -2
BITMAP
00
DE
F6
00
30
30
30
30
30
36
1C
00
00
ENDCHAR

STARTCHAR Alpha
ENCODING 913
SWIDTH 568 0
DWIDTH 8 0
BBX 8 13 0 -2
BITMAP
00
38
7C
C6
C6
C6
FE
C6
C6
C6
C6
00
00
ENDCHAR

STARTCHAR Beta
ENCODING 914
SWIDTH 568 0
DWIDTH 8 0
BBX 8 13 0 -2
BITMAP
00
FC
C6
C6
C6
FC
C6
C6
C6
C6
FC
00
00
ENDCHAR

STARTCHAR Gamma
ENCODING 915
SWIDTH 568 0
DWIDTH 8 0
BBX 8 13 0 -2
BITMAP
00
FE
C0
C0
C0
C0
C0
C0
C0
C0
C0
00
00
ENDCHAR

STARTCHAR Delta
ENCODING 916
SWIDTH 568 0
DWIDTH 8 0
BBX 8 13 0 -2
BITMAP
00
10
38
38
6C
6C
44
C6
C6
C6
FE
00
00
ENDCHAR

STARTCHAR Epsilon
ENCODING 917
SWIDTH 568 0
DWIDTH 8 0
BBX 8 13 0 -2
BITMAP
00
FE
C0
C0
C0
F8
C0
C0
C0
C0
FE
00
00
ENDCHAR

STARTCHAR Zeta
ENCODING 918
SWIDTH 568 0
DWIDTH 8 0
BBX 8 13 0 -2
BITMAP
00
FE
06
06
0C
18
30
60
C0
C0
FE
00
00
ENDCHAR

STARTCHAR Eta
ENCODING 919
SWIDTH 568 0
DWIDTH 8 0
BBX 8 13 0 -2
BITMAP
00
C6
C6
C6
C6
FE
C6
C6
C6
C6
C6
00
00
ENDCHAR

STARTCHAR Theta
ENCODING 920
SWIDTH 568 0
DWIDTH 8 0
BBX 8 13 0 -2
BITMAP
00
7C
C6
C6
C6
FE
C6
C6
C6
C6
7C
00
00
ENDCHAR

STARTCHAR Iota
ENCODING 921
SWIDTH 568 0
DWIDTH 8 0
BBX 8 13 0 -2
BITMAP
00
3C
18
18
18
18
18
18
18
18
3C
00
00
ENDCHAR

STARTCHAR Kappa
ENCODING 922
SWIDTH 568 0
DWIDTH 8 0
BBX 8 13 0 -2
BITMAP
00
C6
C6
CC
D8
F0
F0
D8
CC
C6
C6
00
00
ENDCHAR

STARTCHAR Lambda
ENCODING 923
SWIDTH 568 0
DWIDTH 8 0
BBX 8 13 0 -2
BITMAP
00
10
38
38
6C
6C
44
C6
C6
C6
C6
00
00
ENDCHAR

STARTCHAR Mu
ENCODING 924
SWIDTH 568 0
DWIDTH 8 0
BBX 8 13 0 -2
BITMAP
00
C6
C6
EE
FE
D6
C6
C6
C6
C6
C6
00
00
ENDCHAR

STARTCHAR Nu
ENCODING 925
SWIDTH 568 0
DWIDTH 8 0
BBX 8 13 0 -2
BITMAP
00
C6
C6
E6
E6
F6
DE
CE
CE
C6
C6
00
00
ENDCHAR

STARTCHAR Xi
ENCODING 926
SWIDTH 568 0
DWIDTH 8 0
BBX 8 13 0 -2
BITMAP
00
FE
00
00
00
7C
00
00
00
00
FE
00
00
ENDCHAR

STARTCHAR Omicron
ENCODING 927
SWIDTH 568 0
DWIDTH 8 0
BBX 8 13 0 -2
BITMAP
00
7C
C6
C6
C6
C6
C6
C6
C6
C6
7C
00
00
ENDCHAR

STARTCHAR Pi
ENCODING 928
SWIDTH 568 0
DWIDTH 8 0
BBX 8 13 0 -2
BITMAP
00
FE
6C
6C
6C
6C
6C
6C
6C
6C
6C
00
00
ENDCHAR

STARTCHAR Rho
ENCODING 929
SWIDTH 568 0
DWIDTH 8 0
BBX 8 13 0 -2
BITMAP
00
FC
C6
C6
C6
C6
FC
C0
C0
C0
C0
00
00
ENDCHAR

STARTCHAR Sigma
ENCODING 931
SWIDTH 568 0
DWIDTH 8 0
BBX 8 13 0 -2
BITMAP
00
FE
C0
60
30
18
18
30
60
C0
FE
00
00
ENDCHAR

STARTCHAR Tau
ENCODING 932
SWIDTH 568 0
DWIDTH 8 0
BBX 8 13 0 -2
BITMAP
00
7E
18
18
18
18
18
18
18
18
18
00
00
ENDCHAR

STARTCHAR Upsilon
ENCODING 933
SWIDTH 568 0
DWIDTH 8 0
BBX 8 13 0 -2
BITMAP
00
66
66
66
3C
3C
18
18
18
18
18
00
00
ENDCHAR

STARTCHAR Phi
ENCODING 934
SWIDTH 568 0
DWIDTH 8 0
BBX 8 13 0 -2
BITMAP
00
10
7C
D6
D6
D6
D6
D6
D6
7C
10
00
00
ENDCHAR

STARTCHAR Chi
ENCODING 935
SWIDTH 568 0
DWIDTH 8 0
BBX 8 13 0 -2
BITMAP
00
C6
C6
6C
6C
38
38
6C
6C
C6
C6
00
00
ENDCHAR

STARTCHAR Psi
ENCODING 936
SWIDTH 568 0
DWIDTH 8 0
BBX 8 13 0 -2
BITMAP
00
D6
D6
D6
D6
D6
D6
7C
10
10
10
00
00
ENDCHAR

STARTCHAR Omega
ENCODING 937
SWIDTH 568 0
DWIDTH 8 0
BBX 8 13 0 -2
BITMAP
00
7C
C6
C6
C6
C6
C6
C6
6C
6C
EE
00
00
ENDCHAR

STARTCHAR Iotadieresis
ENCODING 938
SWIDTH 568 0
DWIDTH 8 0
BBX 8 13 0 -2
BITMAP
66
66
00
3C
18
18
18
18
18
18
3C
00
00
ENDCHAR

STARTCHAR Upsilondieresis
ENCODING 939
SWIDTH 568 0
DWIDTH 8 0
BBX 8 13 0 -2
BITMAP
66
66
00
66
24
3C
18
18
18
18
18
00
00
ENDCHAR

STARTCHAR alphatonos
ENCODING 940
SWIDTH 568 0
DWIDTH 8 0
BBX 8 13 0 -2
BITMAP
00
0C
18
00
76
CE
C6
C6
CE
D6
66
00
00
ENDCHAR

STARTCHAR epsilontonos
ENCODING 941
SWIDTH 568 0
DWIDTH 8 0
BBX 8 13 0 -2
BITMAP
00
0C
18
00
7C
C6
C0
78
C0
C6
7C
00
00
ENDCHAR

STARTCHAR etatonos
ENCODING 942
SWIDTH 568 0
DWIDTH 8 0
BBX 8 13 0 -2
BITMAP
00
0C
18
00
FC
E6
C6
C6
C6
C6
C6
06
06
ENDCHAR

STARTCHAR iotatonos
ENCODING 943
SWIDTH 568 0
DWIDTH 8 0
BBX 8 13 0 -2
BITMAP
00
30
60
00
60
60
60
60
60
6C
38
00
00
ENDCHAR

STARTCHAR upsilondieresistonos
ENCODING 944
SWIDTH 568 0
DWIDTH 8 0
BBX 8 13 0 -2
BITMAP
00
DE
F6
00
C6
C6
C6
C6
C6
C6
7C
00
00
ENDCHAR

STARTCHAR alpha
ENCODING 945
SWIDTH 568 0
DWIDTH 8 0
BBX 8 13 0 -2
BITMAP
00
00
00
00
76
CE
C6
C6
CE
D6
66
00
00
ENDCHAR

STARTCHAR beta
ENCODING 946
SWIDTH 568 0
DWIDTH 8 0
BBX 8 13 0 -2
BITMAP
00
78
CC
CC
CC
FE
C6
C6
C6
E6
FC
C0
C0
ENDCHAR

STARTCHAR gamma
ENCODING 947
SWIDTH 568 0
DWIDTH 8 0
BBX 8 13 0 -2
BITMAP
00
00
00
00
CC
CC
CC
78
78
30
30
30
30
ENDCHAR

STARTCHAR delta
ENCODING 948
SWIDTH 568 0
DWIDTH 8 0
BBX 8 13 0 -2
BITMAP
00
7C
C6
60
7C
C6
C6
C6
C6
C6
7C
00
00
ENDCHAR

STARTCHAR epsilon
ENCODING 949
SWIDTH 568 0
DWIDTH 8 0
BBX 8 13 0 -2
BITMAP
00
00
00
00
7C
C6
C0
78
C0
C6
7C
00
00
ENDCHAR

STARTCHAR zeta
ENCODING 950
SWIDTH 568 0
DWIDTH 8 0
BBX 8 13 0 -2
BITMAP
00
FE
30
60
60
C0
C0
C0
C0
C0
7C
06
1C
ENDCHAR

STARTCHAR eta
ENCODING 951
SWIDTH 568 0
DWIDTH 8 0
BBX 8 13 0 -2
BITMAP
00
00
00
00
FC
E6
C6
C6
C6
C6
C6
06
06
ENDCHAR

STARTCHAR theta
ENCODING 952
SWIDTH 568 0
DWIDTH 8 0
BBX 8 13 0 -2
BITMAP
00
3C
66
66
66
7E
66
66
66
66
3C
00
00
ENDCHAR

STARTCHAR iota
ENCODING 953
SWIDTH 568 0
DWIDTH 8 0
BBX 8 13 0 -2
BITMAP
00
00
00
00
60
60
60
60
60
6C
38
00
00
ENDCHAR

STARTCHAR kappa
ENCODING 954
SWIDTH 568 0
DWIDTH 8 0
BBX 8 13 0 -2
BITMAP
00
00
00
00
C6
CC
D8
F0
F8
CC
C6
00
00
ENDCHAR

STARTCHAR lambda
ENCODING 955
SWIDTH 568 0
DWIDTH 8 0
BBX 8 13 0 -2
BITMAP
00
7C
C6
06
7E
CE
C6
C6
C6
C6
C6
00
00
ENDCHAR

STARTCHAR mu
ENCODING 956
SWIDTH 568 0
DWIDTH 8 0
BBX 8 13 0 -2
BITMAP
00
00
00
00
C6
C6
C6
C6
C6
EE
FE
C0
C0
ENDCHAR

STARTCHAR nu
ENCODING 957
SWIDTH 568 0
DWIDTH 8 0
BBX 8 13 0 -2
BITMAP
00
00
00
00
C6
C6
C6
C6
6C
6C
38
00
00
ENDCHAR

STARTCHAR xi
ENCODING 958
SWIDTH 568 0
DWIDTH 8 0
BBX 8 13 0 -2
BITMAP
00
FE
30
60
60
3C
60
C0
C0
C0
7C
06
1C
ENDCHAR

STARTCHAR omicron
ENCODING 959
SWIDTH 568 0
DWIDTH 8 0
BBX 8 13 0 -2
BITMAP
00
00
00
00
7C
C6
C6
C6
C6
C6
7C
00
00
ENDCHAR

STARTCHAR pi
ENCODING 960
SWIDTH 568 0
DWIDTH 8 0
BBX 8 13 0 -2
BITMAP
00
00
00
00
FE
6C
6C
6C
6C
6C
6C
00
00
ENDCHAR

STARTCHAR rho
ENCODING 961
SWIDTH 568 0
DWIDTH 8 0
BBX 8 13 0 -2
BITMAP
00
00
00
00
7C
C6
C6
C6
C6
E6
FC
C0
C0
ENDCHAR

STARTCHAR sigma1
ENCODING 962
SWIDTH 568 0
DWIDTH 8 0
BBX 8 13 0 -2
BITMAP
00
00
00
00
7C
C6
C0
C0
C0
C0
7C
06
1C
ENDCHAR

STARTCHAR sigma
ENCODING 963
SWIDTH 568 0
DWIDTH 8 0
BBX 8 13 0 -2
BITMAP
00
00
00
00
7E
D8
CC
C6
C6
C6
7C
00
00
ENDCHAR

STARTCHAR tau
ENCODING 964
SWIDTH 568 0
DWIDTH 8 0
BBX 8 13 0 -2
BITMAP
00
00
00
00
FE
30
30
30
30
36
1C
00
00
ENDCHAR

STARTCHAR upsilon
ENCODING 965
SWIDTH 568 0
DWIDTH 8 0
BBX 8 13 0 -2
BITMAP
00
00
00
00
C6
C6
C6
C6
C6
C6
7C
00
00
ENDCHAR

STARTCHAR phi
ENCODING 966
SWIDTH 568 0
DWIDTH 8 0
BBX 8 13 0 -2
BITMAP
00
00
00
00
6C
D6
D6
D6
D6
D6
7C
10
10
ENDCHAR

STARTCHAR chi
ENCODING 967
SWIDTH 568 0
DWIDTH 8 0
BBX 8 13 0 -2
BITMAP
00
00
00
00
C6
C6
6C
6C
38
6C
6C
C6
C6
ENDCHAR

STARTCHAR psi
ENCODING 968
SWIDTH 568 0
DWIDTH 8 0
BBX 8 13 0 -2
BITMAP
00
00
00
00
D6
D6
D6
D6
D6
D6
7C
10
10
ENDCHAR

STARTCHAR omega
ENCODING 969
SWIDTH 568 0
DWIDTH 8 0
BBX 8 13 0 -2
BITMAP
00
00
00
00
C6
C6
D6
D6
D6
FE
6C
00
00
ENDCHAR

STARTCHAR iotadieresis
ENCODING 970
SWIDTH 568 0
DWIDTH 8 0
BBX 8 13 0 -2
BITMAP
00
C6
C6
00
30
30
30
30
30
36
1C
00
00
ENDCHAR

STARTCHAR upsilondieresis
ENCODING 971
SWIDTH 568 0
DWIDTH 8 0
BBX 8 13 0 -2
BITMAP
00
C6
C6
00
C6
C6
C6
C6
C6
C6
7C
00
00
ENDCHAR

STARTCHAR omicrontonos
ENCODING 972
SWIDTH 568 0
DWIDTH 8 0
BBX 8 13 0 -2
BITMAP
00
0C
18
00
7C
C6
C6
C6
C6
C6
7C
00
00
ENDCHAR

STARTCHAR upsilontonos
ENCODING 973
SWIDTH 568 0
DWIDTH 8 0
BBX 8 13 0 -2
BITMAP
00
0C
18
00
C6
C6
C6
C6
C6
C6
7C
00
00
ENDCHAR

STARTCHAR omegatonos
ENCODING 974
SWIDTH 568 0
DWIDTH 8 0
BBX 8 13 0 -2
BITMAP
00
0C
18
00
C6
C6
D6
D6
D6
FE
6C
00
00
ENDCHAR

STARTCHAR uni03D0
ENCODING 976
SWIDTH 568 0
DWIDTH 8 0
BBX 8 13 0 -2
BITMAP
00
38
6C
CC
D8
FC
C6
C6
C6
6C
38
00
00
ENDCHAR

STARTCHAR theta1
ENCODING 977
SWIDTH 568 0
DWIDTH 8 0
BBX 8 13 0 -2
BITMAP
00
78
CC
CC
7E
0C
CC
CC
CC
CC
78
00
00
ENDCHAR

STARTCHAR Upsilon1
ENCODING 978
SWIDTH 568 0
DWIDTH 8 0
BBX 8 13 0 -2
BITMAP
00
24
7E
5A
18
18
18
18
18
18
18
00
00
ENDCHAR

STARTCHAR uni03D3
ENCODING 979
SWIDTH 568 0
DWIDTH 8 0
BBX 8 13 0 -2
BITMAP
00
24
7E
5A
18
58
58
18
18
18
18
00
00
ENDCHAR

STARTCHAR uni03D4
ENCODING 980
SWIDTH 568 0
DWIDTH 8 0
BBX 8 13 0 -2
BITMAP
00
66
66
00
24
7E
18
18
18
18
18
00
00
ENDCHAR

STARTCHAR phi1
ENCODING 981
SWIDTH 568 0
DWIDTH 8 0
BBX 8 13 0 -2
BITMAP
00
00
10
10
7C
D6
D6
D6
D6
D6
7C
10
10
ENDCHAR

STARTCHAR omega1
ENCODING 982
SWIDTH 568 0
DWIDTH 8 0
BBX 8 13 0 -2
BITMAP
00
00
00
00
FE
C6
D6
D6
D6
FE
6C
00
00
ENDCHAR

STARTCHAR uni03D7
ENCODING 983
SWIDTH 568 0
DWIDTH 8 0
BBX 8 13 0 -2
BITMAP
00
30
18
00
C6
6C
38
30
70
DA
CE
06
3C
ENDCHAR

STARTCHAR uni03DA
ENCODING 986
SWIDTH 568 0
DWIDTH 8 0
BBX 8 13 0 -2
BITMAP
00
3C
66
C0
C0
C0
C0
C0
C0
7C
06
0C
00
ENDCHAR

STARTCHAR uni03DB
ENCODING 987
SWIDTH 568 0
DWIDTH 8 0
BBX 8 13 0 -2
BITMAP
00
00
00
06
7C
C0
C0
C0
C0
C0
7C
06
1C
ENDCHAR

STARTCHAR uni03DC
ENCODING 988
SWIDTH 568 0
DWIDTH 8 0
BBX 8 13 0 -2
BITMAP
00
FE
C0
C0
C0
F8
C0
C0
C0
C0
C0
00
00
ENDCHAR

STARTCHAR uni03DD
ENCODING 989
SWIDTH 568 0
DWIDTH 8 0
BBX 8 13 0 -2
BITMAP
00
00
00
00
FC
C0
C0
F8
C0
C0
C0
C0
C0
ENDCHAR

STARTCHAR uni03DE
ENCODING 990
SWIDTH 568 0
DWIDTH 8 0
BBX 8 13 0 -2
BITMAP
00
C0
C0
C6
CE
DE
F6
E6
C6
06
06
00
00
ENDCHAR

STARTCHAR uni03DF
ENCODING 991
SWIDTH 568 0
DWIDTH 8 0
BBX 8 13 0 -2
BITMAP
00
00
30
30
60
60
C0
FE
06
0C
0C
18
18
ENDCHAR

STARTCHAR uni03E0
ENCODING 992
SWIDTH 568 0
DWIDTH 8 0
BBX 8 13 0 -2
BITMAP
00
10
38
38
6C
6C
4C
DE
D6
D6
D6
00
00
ENDCHAR

STARTCHAR uni03E1
ENCODING 993
SWIDTH 568 0
DWIDTH 8 0
BBX 8 13 0 -2
BITMAP
00
00
E0
30
18
0C
3C
66
1E
36
06
06
06
ENDCHAR

STARTCHAR uni03F0
ENCODING 1008
SWIDTH 568 0
DWIDTH 8 0
BBX 8 13 0 -2
BITMAP
00
00
00
00
C6
6C
38
30
70
D8
CE
00
00
ENDCHAR

STARTCHAR uni03F1
ENCODING 1009
SWIDTH 568 0
DWIDTH 8 0
BBX 8 13 0 -2
BITMAP
00
00
00
00
7C
C6
C6
C6
C6
E6
FC
C0
7C
ENDCHAR

STARTCHAR uni03F2
ENCODING 1010
SWIDTH 568 0
DWIDTH 8 0
BBX 8 13 0 -2
BITMAP
00
00
00
00
7C
E6
C0
C0
C0
E6
7C
00
00
ENDCHAR

STARTCHAR uni03F3
ENCODING 1011
SWIDTH 568 0
DWIDTH 8 0
BBX 8 13 0 -2
BITMAP
00
00
06
06
00
0E
06
06
06
06
C6
C6
7C
ENDCHAR

STARTCHAR uni03F4
ENCODING 1012
SWIDTH 568 0
DWIDTH 8 0
BBX 8 13 0 -2
BITMAP
00
7C
C6
C6
C6
FE
C6
C6
C6
C6
7C
00
00
ENDCHAR

STARTCHAR uni03F5
ENCODING 1013
SWIDTH 568 0
DWIDTH 8 0
BBX 8 13 0 -2
BITMAP
00
00
00
00
3E
60
60
7C
60
60
3E
00
00
ENDCHAR

STARTCHAR afii10023
ENCODING 1025
SWIDTH 568 0
DWIDTH 8 0
BBX 8 13 0 -2
BITMAP
00
36
36
00
7E
60
60
7C
60
60
7E
00
00
ENDCHAR

STARTCHAR afii10051
ENCODING 1026
SWIDTH 568 0
DWIDTH 8 0
BBX 8 13 0 -2
BITMAP
00
00
FC
30
30
3C
36
36
36
36
36
06
0C
ENDCHAR

STARTCHAR afii10052
ENCODING 1027
SWIDTH 568 0
DWIDTH 8 0
BBX 8 13 0 -2
BITMAP
00
08
10
00
7E
66
60
60
60
60
60
00
00
ENDCHAR

STARTCHAR afii10053
ENCODING 1028
SWIDTH 568 0
DWIDTH 8 0
BBX 8 13 0 -2
BITMAP
00
00
1E
36
60
60
7C
60
60
36
1C
00
00
ENDCHAR

STARTCHAR afii10054
ENCODING 1029
SWIDTH 568 0
DWIDTH 8 0
BBX 8 13 0 -2
BITMAP
00
00
3C
66
60
60
3C
06
06
66
3C
00
00
ENDCHAR

STARTCHAR afii10055
ENCODING 1030
SWIDTH 568 0
DWIDTH 8 0
BBX 8 13 0 -2
BITMAP
00
00
3C
18
18
18
18
18
18
18
3C
00
00
ENDCHAR

STARTCHAR afii10056
ENCODING 1031
SWIDTH 568 0
DWIDTH 8 0
BBX 8 13 0 -2
BITMAP
00
66
66
00
3C
18
18
18
18
18
3C
00
00
ENDCHAR

STARTCHAR afii10057
ENCODING 1032
SWIDTH 568 0
DWIDTH 8 0
BBX 8 13 0 -2
BITMAP
00
00
1E
0C
0C
0C
0C
0C
0C
6C
38
00
00
ENDCHAR

STARTCHAR afii10058
ENCODING 1033
SWIDTH 568 0
DWIDTH 8 0
BBX 8 13 0 -2
BITMAP
00
00
78
D8
D8
D8
DE
DB
DB
DB
DE
00
00
ENDCHAR

STARTCHAR afii10059
ENCODING 1034
SWIDTH 568 0
DWIDTH 8 0
BBX 8 13 0 -2
BITMAP
00
00
D8
D8
D8
D8
FE
DB
DB
DB
DE
00
00
ENDCHAR

STARTCHAR afii10060
ENCODING 1035
SWIDTH 568 0
DWIDTH 8 0
BBX 8 13 0 -2
BITMAP
00
00
FC
30
30
3C
36
36
36
36
36
00
00
ENDCHAR

STARTCHAR afii10061
ENCODING 1036
SWIDTH 568 0
DWIDTH 8 0
BBX 8 13 0 -2
BITMAP
0C
18
00
66
6C
78
60
78
6C
66
66
00
00
ENDCHAR

STARTCHAR afii10062
ENCODING 1038
SWIDTH 568 0
DWIDTH 8 0
BBX 8 13 0 -2
BITMAP
00
66
3C
00
66
66
66
3E
06
66
3C
00
00
ENDCHAR

STARTCHAR afii10145
ENCODING 1039
SWIDTH 568 0
DWIDTH 8 0
BBX 8 13 0 -2
BITMAP
00
00
66
66
66
66
66
66
66
66
7E
18
18
ENDCHAR

STARTCHAR afii10017
ENCODING 1040
SWIDTH 568 0
DWIDTH 8 0
BBX 8 13 0 -2
BITMAP
00
00
18
3C
66
66
66
7E
66
66
66
00
00
ENDCHAR

STARTCHAR afii10018
ENCODING 1041
SWIDTH 568 0
DWIDTH 8 0
BBX 8 13 0 -2
BITMAP
00
00
7C
60
60
60
7C
66
66
66
7C
00
00
ENDCHAR

STARTCHAR afii10019
ENCODING 1042
SWIDTH 568 0
DWIDTH 8 0
BBX 8 13 0 -2
BITMAP
00
00
7C
66
66
66
7C
66
66
66
7C
00
00
ENDCHAR

STARTCHAR afii10020
ENCODING 1043
SWIDTH 568 0
DWIDTH 8 0
BBX 8 13 0 -2
BITMAP
00
00
7E
66
60
60
60
60
60
60
60
00
00
ENDCHAR

STARTCHAR afii10021
ENCODING 1044
SWIDTH 568 0
DWIDTH 8 0
BBX 8 13 0 -2
BITMAP
00
00
3E
36
36
66
66
66
C6
C6
FE
82
00
ENDCHAR

STARTCHAR afii10022
ENCODING 1045
SWIDTH 568 0
DWIDTH 8 0
BBX 8 13 0 -2
BITMAP
00
00
7E
60
60
60
7C
60
60
60
7E
00
00
ENDCHAR

STARTCHAR afii10024
ENCODING 1046
SWIDTH 568 0
DWIDTH 8 0
BBX 8 13 0 -2
BITMAP
00
00
DB
DB
DB
7E
3C
7E
DB
DB
DB
00
00
ENDCHAR

STARTCHAR afii10025
ENCODING 1047
SWIDTH 568 0
DWIDTH 8 0
BBX 8 13 0 -2
BITMAP
00
00
3C
66
06
06
0C
06
06
66
3C
00
00
ENDCHAR

STARTCHAR afii10026
ENCODING 1048
SWIDTH 568 0
DWIDTH 8 0
BBX 8 13 0 -2
BITMAP
00
00
66
66
66
6E
6E
76
76
66
66
00
00
ENDCHAR

STARTCHAR afii10027
ENCODING 1049
SWIDTH 568 0
DWIDTH 8 0
BBX 8 13 0 -2
BITMAP
00
66
3C
66
66
66
6E
76
66
66
66
00
00
ENDCHAR

STARTCHAR afii10028
ENCODING 1050
SWIDTH 568 0
DWIDTH 8 0
BBX 8 13 0 -2
BITMAP
00
00
C6
CC
D8
F0
E0
F0
D8
CC
C6
00
00
ENDCHAR

STARTCHAR afii10029
ENCODING 1051
SWIDTH 568 0
DWIDTH 8 0
BBX 8 13 0 -2
BITMAP
00
00
3E
66
66
66
66
66
66
C6
C6
00
00
ENDCHAR

STARTCHAR afii10030
ENCODING 1052
SWIDTH 568 0
DWIDTH 8 0
BBX 8 13 0 -2
BITMAP
00
00
C3
E7
FF
DB
C3
C3
C3
C3
C3
00
00
ENDCHAR

STARTCHAR afii10031
ENCODING 1053
SWIDTH 568 0
DWIDTH 8 0
BBX 8 13 0 -2
BITMAP
00
00
66
66
66
66
7E
66
66
66
66
00
00
ENDCHAR

STARTCHAR afii10032
ENCODING 1054
SWIDTH 568 0
DWIDTH 8 0
BBX 8 13 0 -2
BITMAP
00
00
3C
66
66
66
66
66
66
66
3C
00
00
ENDCHAR

STARTCHAR afii10033
ENCODING 1055
SWIDTH 568 0
DWIDTH 8 0
BBX 8 13 0 -2
BITMAP
00
00
7E
66
66
66
66
66
66
66
66
00
00
ENDCHAR

STARTCHAR afii10034
ENCODING 1056
SWIDTH 568 0
DWIDTH 8 0
BBX 8 13 0 -2
BITMAP
00
00
7C
66
66
66
66
7C
60
60
60
00
00
ENDCHAR

STARTCHAR afii10035
ENCODING 1057
SWIDTH 568 0
DWIDTH 8 0
BBX 8 13 0 -2
BITMAP
00
00
3C
66
60
60
60
60
60
66
3C
00
00
ENDCHAR

STARTCHAR afii10036
ENCODING 1058
SWIDTH 568 0
DWIDTH 8 0
BBX 8 13 0 -2
BITMAP
00
00
7E
18
18
18
18
18
18
18
18
00
00
ENDCHAR

STARTCHAR afii10037
ENCODING 1059
SWIDTH 568 0
DWIDTH 8 0
BBX 8 13 0 -2
BITMAP
00
00
66
66
66
66
3E
1C
18
30
60
00
00
ENDCHAR

STARTCHAR afii10038
ENCODING 1060
SWIDTH 568 0
DWIDTH 8 0
BBX 8 13 0 -2
BITMAP
00
18
18
7E
DB
DB
DB
DB
7E
18
18
00
00
ENDCHAR

STARTCHAR afii10039
ENCODING 1061
SWIDTH 568 0
DWIDTH 8 0
BBX 8 13 0 -2
BITMAP
00
00
C6
C6
6C
6C
38
6C
6C
C6
C6
00
00
ENDCHAR

STARTCHAR afii10040
ENCODING 1062
SWIDTH 568 0
DWIDTH 8 0
BBX 8 13 0 -2
BITMAP
00
00
CC
CC
CC
CC
CC
CC
CC
CC
FE
06
06
ENDCHAR

STARTCHAR afii10041
ENCODING 1063
SWIDTH 568 0
DWIDTH 8 0
BBX 8 13 0 -2
BITMAP
00
00
66
66
66
66
3E
06
06
06
06
00
00
ENDCHAR

STARTCHAR afii10042
ENCODING 1064
SWIDTH 568 0
DWIDTH 8 0
BBX 8 13 0 -2
BITMAP
00
00
DB
DB
DB
DB
DB
DB
DB
DB
FF
00
00
ENDCHAR

STARTCHAR afii10043
ENCODING 1065
SWIDTH 568 0
DWIDTH 8 0
BBX 8 13 0 -2
BITMAP
00
00
DB
DB
DB
DB
DB
DB
DB
DB
FF
03
03
ENDCHAR

STARTCHAR afii10044
ENCODING 1066
SWIDTH 568 0
DWIDTH 8 0
BBX 8 13 0 -2
BITMAP
00
00
E0
E0
60
60
7C
66
66
66
7C
00
00
ENDCHAR

STARTCHAR afii10045
ENCODING 1067
SWIDTH 568 0
DWIDTH 8 0
BBX 8 13 0 -2
BITMAP
00
00
C6
C6
C6
F6
DE
DE
DE
DE
F6
00
00
ENDCHAR

STARTCHAR afii10046
ENCODING 1068
SWIDTH 568 0
DWIDTH 8 0
BBX 8 13 0 -2
BITMAP
00
00
60
60
60
60
7C
66
66
66
7C
00
00
ENDCHAR

STARTCHAR afii10047
ENCODING 1069
SWIDTH 568 0
DWIDTH 8 0
BBX 8 13 0 -2
BITMAP
00
00
78
0C
06
06
3E
06
06
0C
78
00
00
ENDCHAR

STARTCHAR afii10048
ENCODING 1070
SWIDTH 568 0
DWIDTH 8 0
BBX 8 13 0 -2
BITMAP
00
00
CE
DB
DB
DB
FB
DB
DB
DB
CE
00
00
ENDCHAR

STARTCHAR afii10049
ENCODING 1071
SWIDTH 568 0
DWIDTH 8 0
BBX 8 13 0 -2
BITMAP
00
00
3E
66
66
66
3E
1E
36
66
66
00
00
ENDCHAR

STARTCHAR afii10065
ENCODING 1072
SWIDTH 568 0
DWIDTH 8 0
BBX 8 13 0 -2
BITMAP
00
00
00
00
00
3C
06
3E
66
66
3E
00
00
ENDCHAR

STARTCHAR afii10066
ENCODING 1073
SWIDTH 568 0
DWIDTH 8 0
BBX 8 13 0 -2
BITMAP
00
00
02
3C
60
7C
66
66
66
66
3C
00
00
ENDCHAR

STARTCHAR afii10067
ENCODING 1074
SWIDTH 568 0
DWIDTH 8 0
BBX 8 13 0 -2
BITMAP
00
00
00
00
00
7C
66
7C
66
66
7C
00
00
ENDCHAR

STARTCHAR afii10068
ENCODING 1075
SWIDTH 568 0
DWIDTH 8 0
BBX 8 13 0 -2
BITMAP
00
00
00
00
00
7E
66
60
60
60
60
00
00
ENDCHAR

STARTCHAR afii10069
ENCODING 1076
SWIDTH 568 0
DWIDTH 8 0
BBX 8 13 0 -2
BITMAP
00
00
00
00
00
1E
36
36
66
66
7E
42
00
ENDCHAR

STARTCHAR afii10070
ENCODING 1077
SWIDTH 568 0
DWIDTH 8 0
BBX 8 13 0 -2
BITMAP
00
00
00
00
00
3C
66
7E
60
66
3C
00
00
ENDCHAR

STARTCHAR afii10072
ENCODING 1078
SWIDTH 568 0
DWIDTH 8 0
BBX 8 13 0 -2
BITMAP
00
00
00
00
00
D6
D6
7C
7C
D6
D6
00
00
ENDCHAR

STARTCHAR afii10073
ENCODING 1079
SWIDTH 568 0
DWIDTH 8 0
BBX 8 13 0 -2
BITMAP
00
00
00
00
00
3C
66
1C
06
66
3C
00
00
ENDCHAR

STARTCHAR afii10074
ENCODING 1080
SWIDTH 568 0
DWIDTH 8 0
BBX 8 13 0 -2
BITMAP
00
00
00
00
00
66
66
6E
76
66
66
00
00
ENDCHAR

STARTCHAR afii10075
ENCODING 1081
SWIDTH 568 0
DWIDTH 8 0
BBX 8 13 0 -2
BITMAP
00
00
66
3C
00
66
66
6E
76
66
66
00
00
ENDCHAR

STARTCHAR afii10076
ENCODING 1082
SWIDTH 568 0
DWIDTH 8 0
BBX 8 13 0 -2
BITMAP
00
00
00
00
00
66
6C
78
6C
66
66
00
00
ENDCHAR

STARTCHAR afii10077
ENCODING 1083
SWIDTH 568 0
DWIDTH 8 0
BBX 8 13 0 -2
BITMAP
00
00
00
00
00
1E
36
36
36
36
66
00
00
ENDCHAR

STARTCHAR afii10078
ENCODING 1084
SWIDTH 568 0
DWIDTH 8 0
BBX 8 13 0 -2
BITMAP
00
00
00
00
00
C6
EE
FE
D6
C6
C6
00
00
ENDCHAR

STARTCHAR afii10079
ENCODING 1085
SWIDTH 568 0
DWIDTH 8 0
BBX 8 13 0 -2
BITMAP
00
00
00
00
00
66
66
7E
66
66
66
00
00
ENDCHAR

STARTCHAR afii10080
ENCODING 1086
SWIDTH 568 0
DWIDTH 8 0
BBX 8 13 0 -2
BITMAP
00
00
00
00
00
3C
66
66
66
66
3C
00
00
ENDCHAR

STARTCHAR afii10081
ENCODING 1087
SWIDTH 568 0
DWIDTH 8 0
BBX 8 13 0 -2
BITMAP
00
00
00
00
00
7E
66
66
66
66
66
00
00
ENDCHAR

STARTCHAR afii10082
ENCODING 1088
SWIDTH 568 0
DWIDTH 8 0
BBX 8 13 0 -2
BITMAP
00
00
00
00
00
7C
66
66
66
66
7C
60
60
ENDCHAR

STARTCHAR afii10083
ENCODING 1089
SWIDTH 568 0
DWIDTH 8 0
BBX 8 13 0 -2
BITMAP
00
00
00
00
00
3C
66
60
60
66
3C
00
00
ENDCHAR

STARTCHAR afii10084
ENCODING 1090
SWIDTH 568 0
DWIDTH 8 0
BBX 8 13 0 -2
BITMAP
00
00
00
00
00
7E
18
18
18
18
18
00
00
ENDCHAR

STARTCHAR afii10085
ENCODING 1091
SWIDTH 568 0
DWIDTH 8 0
BBX 8 13 0 -2
BITMAP
00
00
00
00
00
66
66
66
66
3E
06
66
3C
ENDCHAR

STARTCHAR afii10086
ENCODING 1092
SWIDTH 568 0
DWIDTH 8 0
BBX 8 13 0 -2
BITMAP
00
00
00
18
18
7E
DB
DB
DB
DB
7E
18
18
ENDCHAR

STARTCHAR afii10087
ENCODING 1093
SWIDTH 568 0
DWIDTH 8 0
BBX 8 13 0 -2
BITMAP
00
00
00
00
00
66
3C
18
3C
66
66
00
00
ENDCHAR

STARTCHAR afii10088
ENCODING 1094
SWIDTH 568 0
DWIDTH 8 0
BBX 8 13 0 -2
BITMAP
00
00
00
00
00
CC
CC
CC
CC
CC
FE
06
06
ENDCHAR

STARTCHAR afii10089
ENCODING 1095
SWIDTH 568 0
DWIDTH 8 0
BBX 8 13 0 -2
BITMAP
00
00
00
00
00
66
66
6E
3E
06
06
00
00
ENDCHAR

STARTCHAR afii10090
ENCODING 1096
SWIDTH 568 0
DWIDTH 8 0
BBX 8 13 0 -2
BITMAP
00
00
00
00
00
DB
DB
DB
DB
DB
FF
00
00
ENDCHAR

STARTCHAR afii10091
ENCODING 1097
SWIDTH 568 0
DWIDTH 8 0
BBX 8 13 0 -2
BITMAP
00
00
00
00
00
DB
DB
DB
DB
DB
FF
03
03
ENDCHAR

STARTCHAR afii10092
ENCODING 1098
SWIDTH 568 0
DWIDTH 8 0
BBX 8 13 0 -2
BITMAP
00
00
00
00
00
70
70
3C
36
36
3C
00
00
ENDCHAR

STARTCHAR afii10093
ENCODING 1099
SWIDTH 568 0
DWIDTH 8 0
BBX 8 13 0 -2
BITMAP
00
00
00
00
00
C6
C6
F6
DE
DE
F6
00
00
ENDCHAR

STARTCHAR afii10094
ENCODING 1100
SWIDTH 568 0
DWIDTH 8 0
BBX 8 13 0 -2
BITMAP
00
00
00
00
00
60
60
7C
66
66
7C
00
00
ENDCHAR

STARTCHAR afii10095
ENCODING 1101
SWIDTH 568 0
DWIDTH 8 0
BBX 8 13 0 -2
BITMAP
00
00
00
00
00
78
0C
1C
0C
0C
78
00
00
ENDCHAR

STARTCHAR afii10096
ENCODING 1102
SWIDTH 568 0
DWIDTH 8 0
BBX 8 13 0 -2
BITMAP
00
00
00
00
00
CE
DB
FB
DB
DB
CE
00
00
ENDCHAR

STARTCHAR afii10097
ENCODING 1103
SWIDTH 568 0
DWIDTH 8 0
BBX 8 13 0 -2
BITMAP
00
00
00
00
00
3E
66
66
3E
36
66
00
00
ENDCHAR

STARTCHAR afii10071
ENCODING 1105
SWIDTH 568 0
DWIDTH 8 0
BBX 8 13 0 -2
BITMAP
00
00
36
36
00
3C
66
7E
60
66
3C
00
00
ENDCHAR

STARTCHAR afii10099
ENCODING 1106
SWIDTH 568 0
DWIDTH 8 0
BBX 8 13 0 -2
BITMAP
00
00
60
FC
60
6C
76
66
66
66
66
06
0C
ENDCHAR

STARTCHAR afii10100
ENCODING 1107
SWIDTH 568 0
DWIDTH 8 0
BBX 8 13 0 -2
BITMAP
00
00
0C
18
00
7E
66
60
60
60
60
00
00
ENDCHAR

STARTCHAR afii10101
ENCODING 1108
SWIDTH 568 0
DWIDTH 8 0
BBX 8 13 0 -2
BITMAP
00
00
00
00
00
3E
60
78
60
60
3E
00
00
ENDCHAR

STARTCHAR afii10102
ENCODING 1109
SWIDTH 568 0
DWIDTH 8 0
BBX 8 13 0 -2
BITMAP
00
00
00
00
00
3C
66
30
0C
66
3C
00
00
ENDCHAR

STARTCHAR afii10103
ENCODING 1110
SWIDTH 568 0
DWIDTH 8 0
BBX 8 13 0 -2
BITMAP
00
00
00
18
00
38
18
18
18
18
3C
00
00
ENDCHAR

STARTCHAR afii10104
ENCODING 1111
SWIDTH 568 0
DWIDTH 8 0
BBX 8 13 0 -2
BITMAP
00
00
6C
6C
00
38
18
18
18
18
7E
00
00
ENDCHAR

STARTCHAR afii10105
ENCODING 1112
SWIDTH 568 0
DWIDTH 8 0
BBX 8 13 0 -2
BITMAP
00
00
00
0C
00
0C
0C
0C
0C
0C
6C
6C
38
ENDCHAR

STARTCHAR afii10106
ENCODING 1113
SWIDTH 568 0
DWIDTH 8 0
BBX 8 13 0 -2
BITMAP
00
00
00
00
00
78
D8
DE
DB
DB
DE
00
00
ENDCHAR

STARTCHAR afii10107
ENCODING 1114
SWIDTH 568 0
DWIDTH 8 0
BBX 8 13 0 -2
BITMAP
00
00
00
00
00
D8
D8
FE
DB
DB
DE
00
00
ENDCHAR

STARTCHAR afii10108
ENCODING 1115
SWIDTH 568 0
DWIDTH 8 0
BBX 8 13 0 -2
BITMAP
00
00
30
7C
30
3C
36
36
36
36
36
00
00
ENDCHAR

STARTCHAR afii10109
ENCODING 1116
SWIDTH 568 0
DWIDTH 8 0
BBX 8 13 0 -2
BITMAP
00
00
18
30
00
66
6C
78
6C
66
66
00
00
ENDCHAR

STARTCHAR afii10110
ENCODING 1118
SWIDTH 568 0
DWIDTH 8 0
BBX 8 13 0 -2
BITMAP
00
00
66
3C
00
66
66
66
66
3E
06
66
3C
ENDCHAR

STARTCHAR afii10193
ENCODING 1119
SWIDTH 568 0
DWIDTH 8 0
BBX 8 13 0 -2
BITMAP
00
00
00
00
00
66
66
66
66
66
7E
18
18
ENDCHAR

STARTCHAR afii10146
ENCODING 1122
SWIDTH 568 0
DWIDTH 8 0
BBX 8 13 0 -2
BITMAP
00
60
60
F8
60
60
7C
66
66
66
7C
00
00
ENDCHAR

STARTCHAR afii10194
ENCODING 1123
SWIDTH 568 0
DWIDTH 8 0
BBX 8 13 0 -2
BITMAP
00
00
30
30
30
7C
30
3C
36
36
3C
00
00
ENDCHAR

STARTCHAR uni0470
ENCODING 1136
SWIDTH 568 0
DWIDTH 8 0
BBX 8 13 0 -2
BITMAP
00
00
DB
DB
DB
DB
DB
7E
18
18
18
00
00
ENDCHAR

STARTCHAR uni0471
ENCODING 1137
SWIDTH 568 0
DWIDTH 8 0
BBX 8 13 0 -2
BITMAP
00
00
00
00
00
DB
DB
DB
DB
DB
7E
18
18
ENDCHAR

STARTCHAR afii10147
ENCODING 1138
SWIDTH 568 0
DWIDTH 8 0
BBX 8 13 0 -2
BITMAP
00
00
3C
66
66
66
7E
66
66
66
3C
00
00
ENDCHAR

STARTCHAR afii10195
ENCODING 1139
SWIDTH 568 0
DWIDTH 8 0
BBX 8 13 0 -2
BITMAP
00
00
00
00
00
3C
66
7E
66
66
3C
00
00
ENDCHAR

STARTCHAR afii10148
ENCODING 1140
SWIDTH 568 0
DWIDTH 8 0
BBX 8 13 0 -2
BITMAP
00
00
C3
C6
C6
CC
6C
6C
6C
38
30
00
00
ENDCHAR

STARTCHAR afii10196
ENCODING 1141
SWIDTH 568 0
DWIDTH 8 0
BBX 8 13 0 -2
BITMAP
00
00
00
00
00
C3
C6
CC
6C
6C
38
00
00
ENDCHAR

STARTCHAR uni0476
ENCODING 1142
SWIDTH 568 0
DWIDTH 8 0
BBX 8 13 0 -2
BITMAP
00
48
24
00
C3
C6
CC
6C
6C
38
30
00
00
ENDCHAR

STARTCHAR uni0477
ENCODING 1143
SWIDTH 568 0
DWIDTH 8 0
BBX 8 13 0 -2
BITMAP
00
00
48
24
00
C3
C6
CC
6C
6C
38
00
00
ENDCHAR

STARTCHAR afii10050
ENCODING 1168
SWIDTH 568 0
DWIDTH 8 0
BBX 8 13 0 -2
BITMAP
00
06
7E
60
60
60
60
60
60
60
60
00
00
ENDCHAR

STARTCHAR afii10098
ENCODING 1169
SWIDTH 568 0
DWIDTH 8 0
BBX 8 13 0 -2
BITMAP
00
00
00
00
06
7E
60
60
60
60
60
00
00
ENDCHAR

STARTCHAR afii57664
ENCODING 1488
SWIDTH 568 0
DWIDTH 8 0
BBX 8 13 0 -2
BITMAP
00
00
00
00
CC
66
36
58
CC
C6
C6
00
00
ENDCHAR

STARTCHAR afii57665
ENCODING 1489
SWIDTH 568 0
DWIDTH 8 0
BBX 8 13 0 -2
BITMAP
00
00
00
00
FC
0C
0C
0C
0C
0C
FE
00
00
ENDCHAR

STARTCHAR afii57666
ENCODING 1490
SWIDTH 568 0
DWIDTH 8 0
BBX 8 13 0 -2
BITMAP
00
00
00
00
70
18
18
0C
1C
36
E6
00
00
ENDCHAR

STARTCHAR afii57667
ENCODING 1491
SWIDTH 568 0
DWIDTH 8 0
BBX 8 13 0 -2
BITMAP
00
00
00
00
FE
0C
0C
0C
0C
0C
0C
00
00
ENDCHAR

STARTCHAR afii57668
ENCODING 1492
SWIDTH 568 0
DWIDTH 8 0
BBX 8 13 0 -2
BITMAP
00
00
00
00
7E
06
06
66
66
66
66
00
00
ENDCHAR

STARTCHAR afii57669
ENCODING 1493
SWIDTH 568 0
DWIDTH 8 0
BBX 8 13 0 -2
BITMAP
00
00
00
00
38
18
18
18
18
18
18
00
00
ENDCHAR

STARTCHAR afii57670
ENCODING 1494
SWIDTH 568 0
DWIDTH 8 0
BBX 8 13 0 -2
BITMAP
00
00
00
00
7C
30
30
18
18
18
18
00
00
ENDCHAR

STARTCHAR afii57671
ENCODING 1495
SWIDTH 568 0
DWIDTH 8 0
BBX 8 13 0 -2
BITMAP
00
00
00
00
FE
66
66
66
66
66
66
00
00
ENDCHAR

STARTCHAR afii57672
ENCODING 1496
SWIDTH 568 0
DWIDTH 8 0
BBX 8 13 0 -2
BITMAP
00
00
00
00
6E
6E
66
66
66
6C
78
00
00
ENDCHAR

STARTCHAR afii57673
ENCODING 1497
SWIDTH 568 0
DWIDTH 8 0
BBX 8 13 0 -2
BITMAP
00
00
00
00
38
18
18
18
00
00
00
00
00
ENDCHAR

STARTCHAR afii57674
ENCODING 1498
SWIDTH 568 0
DWIDTH 8 0
BBX 8 13 0 -2
BITMAP
00
00
00
00
7E
06
06
06
06
06
06
06
06
ENDCHAR

STARTCHAR afii57675
ENCODING 1499
SWIDTH 568 0
DWIDTH 8 0
BBX 8 13 0 -2
BITMAP
00
00
00
00
7E
06
06
06
06
0C
78
00
00
ENDCHAR

STARTCHAR afii57676
ENCODING 1500
SWIDTH 568 0
DWIDTH 8 0
BBX 8 13 0 -2
BITMAP
00
00
60
60
7E
06
06
06
0C
18
30
00
00
ENDCHAR

STARTCHAR afii57677
ENCODING 1501
SWIDTH 568 0
DWIDTH 8 0
BBX 8 13 0 -2
BITMAP
00
00
00
00
FE
66
66
66
66
66
7E
00
00
ENDCHAR

STARTCHAR afii57678
ENCODING 1502
SWIDTH 568 0
DWIDTH 8 0
BBX 8 13 0 -2
BITMAP
00
00
00
00
DC
76
66
C6
C6
C6
DE
00
00
ENDCHAR

STARTCHAR afii57679
ENCODING 1503
SWIDTH 568 0
DWIDTH 8 0
BBX 8 13 0 -2
BITMAP
00
00
00
00
38
18
18
18
18
18
18
18
18
ENDCHAR

STARTCHAR afii57680
ENCODING 1504
SWIDTH 568 0
DWIDTH 8 0
BBX 8 13 0 -2
BITMAP
00
00
00
00
1C
0C
0C
0C
0C
0C
7C
00
00
ENDCHAR

STARTCHAR afii57681
ENCODING 1505
SWIDTH 568 0
DWIDTH 8 0
BBX 8 13 0 -2
BITMAP
00
00
00
00
FE
66
66
66
66
6C
78
00
00
ENDCHAR

STARTCHAR afii57682
ENCODING 1506
SWIDTH 568 0
DWIDTH 8 0
BBX 8 13 0 -2
BITMAP
00
00
00
00
E6
66
66
66
66
6C
F8
00
00
ENDCHAR

STARTCHAR afii57683
ENCODING 1507
SWIDTH 568 0
DWIDTH 8 0
BBX 8 13 0 -2
BITMAP
00
00
00
00
FE
66
66
66
06
06
06
06
06
ENDCHAR

STARTCHAR afii57684
ENCODING 1508
SWIDTH 568 0
DWIDTH 8 0
BBX 8 13 0 -2
BITMAP
00
00
00
00
FE
66
66
66
06
0C
78
00
00
ENDCHAR

STARTCHAR afii57685
ENCODING 1509
SWIDTH 568 0
DWIDTH 8 0
BBX 8 13 0 -2
BITMAP
00
00
00
00
CC
66
66
66
6C
78
60
60
60
ENDCHAR

STARTCHAR afii57686
ENCODING 1510
SWIDTH 568 0
DWIDTH 8 0
BBX 8 13 0 -2
BITMAP
00
00
00
00
CC
66
36
1C
0C
06
FE
00
00
ENDCHAR

STARTCHAR afii57687
ENCODING 1511
SWIDTH 568 0
DWIDTH 8 0
BBX 8 13 0 -2
BITMAP
00
00
00
00
FE
06
06
C6
C6
CC
D8
C0
C0
ENDCHAR

STARTCHAR afii57688
ENCODING 1512
SWIDTH 568 0
DWIDTH 8 0
BBX 8 13 0 -2
BITMAP
00
00
00
00
7E
06
06
06
06
06
06
00
00
ENDCHAR

STARTCHAR afii57689
ENCODING 1513
SWIDTH 568 0
DWIDTH 8 0
BBX 8 13 0 -2
BITMAP
00
00
00
00
DB
DB
DB
DB
F3
C6
FC
00
00
ENDCHAR

STARTCHAR afii57690
ENCODING 1514
SWIDTH 568 0
DWIDTH 8 0
BBX 8 13 0 -2
BITMAP
00
00
00
00
FE
66
66
66
66
66
E6
00
00
ENDCHAR

STARTCHAR uni0E01
ENCODING 3585
SWIDTH 568 0
DWIDTH 8 0
BBX 8 13 0 -2
BITMAP
00
00
00
00
00
7C
C6
E6
66
66
66
00
00
ENDCHAR

STARTCHAR uni0E02
ENCODING 3586
SWIDTH 568 0
DWIDTH 8 0
BBX 8 13 0 -2
BITMAP
00
00
00
00
00
EC
EC
6C
CC
CC
78
00
00
ENDCHAR

STARTCHAR uni0E03
ENCODING 3587
SWIDTH 568 0
DWIDTH 8 0
BBX 8 13 0 -2
BITMAP
00
00
00
00
00
B6
F6
36
66
66
3C
00
00
ENDCHAR

STARTCHAR uni0E04
ENCODING 3588
SWIDTH 568 0
DWIDTH 8 0
BBX 8 13 0 -2
BITMAP
00
00
00
00
00
7C
C6
F6
F6
E6
66
00
00
ENDCHAR

STARTCHAR uni0E05
ENCODING 3589
SWIDTH 568 0
DWIDTH 8 0
BBX 8 13 0 -2
BITMAP
00
00
00
00
00
6C
D6
F6
F6
E6
66
00
00
ENDCHAR

STARTCHAR uni0E06
ENCODING 3590
SWIDTH 568 0
DWIDTH 8 0
BBX 8 13 0 -2
BITMAP
00
00
00
00
00
B6
F6
36
66
F6
EC
00
00
ENDCHAR

STARTCHAR uni0E07
ENCODING 3591
SWIDTH 568 0
DWIDTH 8 0
BBX 8 13 0 -2
BITMAP
00
00
00
00
00
1C
1C
CC
6C
6C
3C
00
00
ENDCHAR

STARTCHAR uni0E08
ENCODING 3592
SWIDTH 568 0
DWIDTH 8 0
BBX 8 13 0 -2
BITMAP
00
00
00
00
00
7C
C6
3E
3E
1E
1C
00
00
ENDCHAR

STARTCHAR uni0E09
ENCODING 3593
SWIDTH 568 0
DWIDTH 8 0
BBX 8 13 0 -2
BITMAP
00
00
00
00
00
F8
0C
EC
EC
7E
76
00
00
ENDCHAR

STARTCHAR uni0E0A
ENCODING 3594
SWIDTH 568 0
DWIDTH 8 0
BBX 8 13 0 -2
BITMAP
00
00
00
00
0C
EC
F8
6C
CC
CC
78
00
00
ENDCHAR

STARTCHAR uni0E0B
ENCODING 3595
SWIDTH 568 0
DWIDTH 8 0
BBX 8 13 0 -2
BITMAP
00
00
00
00
06
B6
FC
36
66
66
3C
00
00
ENDCHAR

STARTCHAR uni0E0C
ENCODING 3596
SWIDTH 568 0
DWIDTH 8 0
BBX 8 13 0 -2
BITMAP
00
00
00
00
00
73
DB
7B
DB
FF
FB
00
00
ENDCHAR

STARTCHAR uni0E0D
ENCODING 3597
SWIDTH 568 0
DWIDTH 8 0
BBX 8 13 0 -2
BITMAP
00
00
00
00
00
76
DE
7E
DE
F8
FE
00
00
ENDCHAR

STARTCHAR uni0E0E
ENCODING 3598
SWIDTH 568 0
DWIDTH 8 0
BBX 8 13 0 -2
BITMAP
00
00
00
00
00
7C
C6
66
66
E6
EE
16
2E
ENDCHAR

STARTCHAR uni0E0F
ENCODING 3599
SWIDTH 568 0
DWIDTH 8 0
BBX 8 13 0 -2
BITMAP
00
00
00
00
00
7C
C6
66
66
E6
EE
1E
2A
ENDCHAR

STARTCHAR uni0E10
ENCODING 3600
SWIDTH 568 0
DWIDTH 8 0
BBX 8 13 0 -2
BITMAP
00
00
00
00
00
3E
60
3C
36
36
0E
56
2E
ENDCHAR

STARTCHAR uni0E11
ENCODING 3601
SWIDTH 568 0
DWIDTH 8 0
BBX 8 13 0 -2
BITMAP
00
00
00
00
00
A4
EE
36
66
66
66
00
00
ENDCHAR

STARTCHAR uni0E12
ENCODING 3602
SWIDTH 568 0
DWIDTH 8 0
BBX 8 13 0 -2
BITMAP
00
00
00
00
00
6B
DB
CB
FB
DF
FB
00
00
ENDCHAR

STARTCHAR uni0E13
ENCODING 3603
SWIDTH 568 0
DWIDTH 8 0
BBX 8 13 0 -2
BITMAP
00
00
00
00
00
76
DE
7E
DE
FF
FB
00
00
ENDCHAR

STARTCHAR uni0E14
ENCODING 3604
SWIDTH 568 0
DWIDTH 8 0
BBX 8 13 0 -2
BITMAP
00
00
00
00
00
7C
C6
F6
F6
D6
66
00
00
ENDCHAR

STARTCHAR uni0E15
ENCODING 3605
SWIDTH 568 0
DWIDTH 8 0
BBX 8 13 0 -2
BITMAP
00
00
00
00
00
74
CE
F6
F6
D6
66
00
00
ENDCHAR

STARTCHAR uni0E16
ENCODING 3606
SWIDTH 568 0
DWIDTH 8 0
BBX 8 13 0 -2
BITMAP
00
00
00
00
00
7C
C6
E6
66
76
76
00
00
ENDCHAR

STARTCHAR uni0E17
ENCODING 3607
SWIDTH 568 0
DWIDTH 8 0
BBX 8 13 0 -2
BITMAP
00
00
00
00
00
EC
FE
76
66
66
66
00
00
ENDCHAR

STARTCHAR uni0E18
ENCODING 3608
SWIDTH 568 0
DWIDTH 8 0
BBX 8 13 0 -2
BITMAP
00
00
00
00
00
7E
C0
FC
66
66
3C
00
00
ENDCHAR

STARTCHAR uni0E19
ENCODING 3609
SWIDTH 568 0
DWIDTH 8 0
BBX 8 13 0 -2
BITMAP
00
00
00
00
00
EC
EC
6C
CC
DE
76
00
00
ENDCHAR

STARTCHAR uni0E1A
ENCODING 3610
SWIDTH 568 0
DWIDTH 8 0
BBX 8 13 0 -2
BITMAP
00
00
00
00
00
E6
E6
66
66
66
3C
00
00
ENDCHAR

STARTCHAR uni0E1B
ENCODING 3611
SWIDTH 568 0
DWIDTH 8 0
BBX 8 13 0 -2
BITMAP
00
00
00
06
06
E6
E6
66
66
66
3C
00
00
ENDCHAR

STARTCHAR uni0E1C
ENCODING 3612
SWIDTH 568 0
DWIDTH 8 0
BBX 8 13 0 -2
BITMAP
00
00
00
00
00
E6
E6
C6
D6
D6
6C
00
00
ENDCHAR

STARTCHAR uni0E1D
ENCODING 3613
SWIDTH 568 0
DWIDTH 8 0
BBX 8 13 0 -2
BITMAP
00
00
00
06
06
E6
E6
C6
D6
D6
6C
00
00
ENDCHAR

STARTCHAR uni0E1E
ENCODING 3614
SWIDTH 568 0
DWIDTH 8 0
BBX 8 13 0 -2
BITMAP
00
00
00
00
00
E6
E6
76
D6
D6
6C
00
00
ENDCHAR

STARTCHAR uni0E1F
ENCODING 3615
SWIDTH 568 0
DWIDTH 8 0
BBX 8 13 0 -2
BITMAP
00
00
00
06
06
E6
E6
76
D6
D6
6C
00
00
ENDCHAR

STARTCHAR uni0E20
ENCODING 3616
SWIDTH 568 0
DWIDTH 8 0
BBX 8 13 0 -2
BITMAP
00
00
00
00
00
7C
C6
E6
66
E6
E6
00
00
ENDCHAR

STARTCHAR uni0E21
ENCODING 3617
SWIDTH 568 0
DWIDTH 8 0
BBX 8 13 0 -2
BITMAP
00
00
00
00
00
E6
E6
66
66
F6
EC
00
00
ENDCHAR

STARTCHAR uni0E22
ENCODING 3618
SWIDTH 568 0
DWIDTH 8 0
BBX 8 13 0 -2
BITMAP
00
00
00
00
00
E6
E6
C6
76
C6
7C
00
00
ENDCHAR

STARTCHAR uni0E23
ENCODING 3619
SWIDTH 568 0
DWIDTH 8 0
BBX 8 13 0 -2
BITMAP
00
00
00
00
00
7C
C0
FC
0C
1C
1C
00
00
ENDCHAR

STARTCHAR uni0E24
ENCODING 3620
SWIDTH 568 0
DWIDTH 8 0
BBX 8 13 0 -2
BITMAP
00
00
00
00
00
7C
C6
E6
66
76
76
06
06
ENDCHAR

STARTCHAR uni0E25
ENCODING 3621
SWIDTH 568 0
DWIDTH 8 0
BBX 8 13 0 -2
BITMAP
00
00
00
00
00
7C
C6
3E
66
76
76
00
00
ENDCHAR

STARTCHAR uni0E26
ENCODING 3622
SWIDTH 568 0
DWIDTH 8 0
BBX 8 13 0 -2
BITMAP
00
00
00
00
00
7C
C6
E6
66
E6
E6
06
06
ENDCHAR

STARTCHAR uni0E27
ENCODING 3623
SWIDTH 568 0
DWIDTH 8 0
BBX 8 13 0 -2
BITMAP
00
00
00
00
00
7C
C6
06
06
0E
0E
00
00
ENDCHAR

STARTCHAR uni0E28
ENCODING 3624
SWIDTH 568 0
DWIDTH 8 0
BBX 8 13 0 -2
BITMAP
00
00
00
06
06
7C
C6
F6
F6
E6
66
00
00
ENDCHAR

STARTCHAR uni0E29
ENCODING 3625
SWIDTH 568 0
DWIDTH 8 0
BBX 8 13 0 -2
BITMAP
00
00
00
00
00
E6
E6
6E
6E
66
3C
00
00
ENDCHAR

STARTCHAR uni0E2A
ENCODING 3626
SWIDTH 568 0
DWIDTH 8 0
BBX 8 13 0 -2
BITMAP
00
00
00
06
06
7C
C6
3E
66
76
76
00
00
ENDCHAR

STARTCHAR uni0E2B
ENCODING 3627
SWIDTH 568 0
DWIDTH 8 0
BBX 8 13 0 -2
BITMAP
00
00
00
00
00
EE
EE
6C
7E
76
66
00
00
ENDCHAR

STARTCHAR uni0E2C
ENCODING 3628
SWIDTH 568 0
DWIDTH 8 0
BBX 8 13 0 -2
BITMAP
00
00
00
06
06
EC
E6
76
D6
D6
6C
00
00
ENDCHAR

STARTCHAR uni0E2D
ENCODING 3629
SWIDTH 568 0
DWIDTH 8 0
BBX 8 13 0 -2
BITMAP
00
00
00
00
00
7C
C6
76
76
66
3C
00
00
ENDCHAR

STARTCHAR uni0E2E
ENCODING 3630
SWIDTH 568 0
DWIDTH 8 0
BBX 8 13 0 -2
BITMAP
00
00
00
06
06
7C
FE
76
76
66
3C
00
00
ENDCHAR

STARTCHAR uni0E2F
ENCODING 3631
SWIDTH 568 0
DWIDTH 8 0
BBX 8 13 0 -2
BITMAP
00
00
00
00
00
EC
FC
0C
0C
0C
18
00
00
ENDCHAR

STARTCHAR uni0E30
ENCODING 3632
SWIDTH 568 0
DWIDTH 8 0
BBX 8 13 0 -2
BITMAP
00
00
00
00
00
00
76
7C
00
76
7C
00
00
ENDCHAR

STARTCHAR uni0E31
ENCODING 3633
SWIDTH 568 0
DWIDTH 8 0
BBX 8 13 0 -2
BITMAP
00
00
C0
FC
00
00
00
00
00
00
00
00
00
ENDCHAR

STARTCHAR uni0E32
ENCODING 3634
SWIDTH 568 0
DWIDTH 8 0
BBX 8 13 0 -2
BITMAP
00
00
00
00
00
7C
C6
06
06
06
06
00
00
ENDCHAR

STARTCHAR uni0E33
ENCODING 3635
SWIDTH 568 0
DWIDTH 8 0
BBX 8 13 0 -2
BITMAP
00
00
00
E0
E0
3C
66
06
06
06
06
00
00
ENDCHAR

STARTCHAR uni0E34
ENCODING 3636
SWIDTH 568 0
DWIDTH 8 0
BBX 8 13 0 -2
BITMAP
00
00
00
FE
00
00
00
00
00
00
00
00
00
ENDCHAR

STARTCHAR uni0E35
ENCODING 3637
SWIDTH 568 0
DWIDTH 8 0
BBX 8 13 0 -2
BITMAP
00
00
06
FE
00
00
00
00
00
00
00
00
00
ENDCHAR

STARTCHAR uni0E36
ENCODING 3638
SWIDTH 568 0
DWIDTH 8 0
BBX 8 13 0 -2
BITMAP
00
00
0E
FE
00
00
00
00
00
00
00
00
00
ENDCHAR

STARTCHAR uni0E37
ENCODING 3639
SWIDTH 568 0
DWIDTH 8 0
BBX 8 13 0 -2
BITMAP
00
00
36
FE
00
00
00
00
00
00
00
00
00
ENDCHAR

STARTCHAR uni0E38
ENCODING 3640
SWIDTH 568 0
DWIDTH 8 0
BBX 8 13 0 -2
BITMAP
00
00
00
00
00
00
00
00
00
00
00
0E
06
ENDCHAR

STARTCHAR uni0E39
ENCODING 3641
SWIDTH 568 0
DWIDTH 8 0
BBX 8 13 0 -2
BITMAP
00
00
00
00
00
00
00
00
00
00
00
76
3E
ENDCHAR

STARTCHAR uni0E3A
ENCODING 3642
SWIDTH 568 0
DWIDTH 8 0
BBX 8 13 0 -2
BITMAP
00
00
00
00
00
00
00
00
00
00
00
1C
1C
ENDCHAR

STARTCHAR uni0E3F
ENCODING 3647
SWIDTH 568 0
DWIDTH 8 0
BBX 8 13 0 -2
BITMAP
00
00
00
10
FC
D6
D6
FC
D6
D6
FC
10
00
ENDCHAR

STARTCHAR uni0E40
ENCODING 3648
SWIDTH 568 0
DWIDTH 8 0
BBX 8 13 0 -2
BITMAP
00
00
00
00
00
30
30
30
30
38
38
00
00
ENDCHAR

STARTCHAR uni0E41
ENCODING 3649
SWIDTH 568 0
DWIDTH 8 0
BBX 8 13 0 -2
BITMAP
00
00
00
00
00
CC
CC
CC
CC
EE
EE
00
00
ENDCHAR

STARTCHAR uni0E42
ENCODING 3650
SWIDTH 568 0
DWIDTH 8 0
BBX 8 13 0 -2
BITMAP
00
00
00
7E
C0
FC
0C
0C
0C
0E
0E
00
00
ENDCHAR

STARTCHAR uni0E43
ENCODING 3651
SWIDTH 568 0
DWIDTH 8 0
BBX 8 13 0 -2
BITMAP
00
00
00
78
CC
FC
7C
0C
0C
0E
0E
00
00
ENDCHAR

STARTCHAR uni0E44
ENCODING 3652
SWIDTH 568 0
DWIDTH 8 0
BBX 8 13 0 -2
BITMAP
00
00
00
DC
6C
0C
0C
0C
0C
0E
0E
00
00
ENDCHAR

STARTCHAR uni0E45
ENCODING 3653
SWIDTH 568 0
DWIDTH 8 0
BBX 8 13 0 -2
BITMAP
00
00
00
00
00
7C
C6
06
06
06
06
06
06
ENDCHAR

STARTCHAR uni0E46
ENCODING 3654
SWIDTH 568 0
DWIDTH 8 0
BBX 8 13 0 -2
BITMAP
00
00
00
00
00
EC
D6
06
06
06
06
0C
18
ENDCHAR

STARTCHAR uni0E47
ENCODING 3655
SWIDTH 568 0
DWIDTH 8 0
BBX 8 13 0 -2
BITMAP
03
7E
D6
6E
00
00
00
00
00
00
00
00
00
ENDCHAR

STARTCHAR uni0E48
ENCODING 3656
SWIDTH 568 0
DWIDTH 8 0
BBX 8 13 0 -2
BITMAP
06
06
00
00
00
00
00
00
00
00
00
00
00
ENDCHAR

STARTCHAR uni0E49
ENCODING 3657
SWIDTH 568 0
DWIDTH 8 0
BBX 8 13 0 -2
BITMAP
3B
1E
00
00
00
00
00
00
00
00
00
00
00
ENDCHAR

STARTCHAR uni0E4A
ENCODING 3658
SWIDTH 568 0
DWIDTH 8 0
BBX 8 13 0 -2
BITMAP
2B
3E
00
00
00
00
00
00
00
00
00
00
00
ENDCHAR

STARTCHAR uni0E4B
ENCODING 3659
SWIDTH 568 0
DWIDTH 8 0
BBX 8 13 0 -2
BITMAP
06
0F
06
00
00
00
00
00
00
00
00
00
00
ENDCHAR

STARTCHAR uni0E4C
ENCODING 3660
SWIDTH 568 0
DWIDTH 8 0
BBX 8 13 0 -2
BITMAP
0E
0C
00
00
00
00
00
00
00
00
00
00
00
ENDCHAR

STARTCHAR uni0E4D
ENCODING 3661
SWIDTH 568 0
DWIDTH 8 0
BBX 8 13 0 -2
BITMAP
0E
0E
00
00
00
00
00
00
00
00
00
00
00
ENDCHAR

STARTCHAR uni0E4E
ENCODING 3662
SWIDTH 568 0
DWIDTH 8 0
BBX 8 13 0 -2
BITMAP
0F
0C
18
1C
00
00
00
00
00
00
00
00
00
ENDCHAR

STARTCHAR uni0E4F
ENCODING 3663
SWIDTH 568 0
DWIDTH 8 0
BBX 8 13 0 -2
BITMAP
00
00
00
00
00
00
7C
C6
D6
C6
7C
00
00
ENDCHAR

STARTCHAR uni0E50
ENCODING 3664
SWIDTH 568 0
DWIDTH 8 0
BBX 8 13 0 -2
BITMAP
00
00
00
00
00
00
7C
C6
C6
C6
7C
00
00
ENDCHAR

STARTCHAR uni0E51
ENCODING 3665
SWIDTH 568 0
DWIDTH 8 0
BBX 8 13 0 -2
BITMAP
00
00
00
00
00
00
7C
C6
76
06
7C
00
00
ENDCHAR

STARTCHAR uni0E52
ENCODING 3666
SWIDTH 568 0
DWIDTH 8 0
BBX 8 13 0 -2
BITMAP
00
00
00
00
C0
C0
F6
FE
F6
C6
7C
00
00
ENDCHAR

STARTCHAR uni0E53
ENCODING 3667
SWIDTH 568 0
DWIDTH 8 0
BBX 8 13 0 -2
BITMAP
00
00
00
00
00
00
6C
D6
D6
E6
E6
00
00
ENDCHAR

STARTCHAR uni0E54
ENCODING 3668
SWIDTH 568 0
DWIDTH 8 0
BBX 8 13 0 -2
BITMAP
00
00
00
00
06
06
7C
C0
DC
DC
7E
00
00
ENDCHAR

STARTCHAR uni0E55
ENCODING 3669
SWIDTH 568 0
DWIDTH 8 0
BBX 8 13 0 -2
BITMAP
00
00
00
00
06
36
7C
C0
DC
DC
7E
00
00
ENDCHAR

STARTCHAR uni0E56
ENCODING 3670
SWIDTH 568 0
DWIDTH 8 0
BBX 8 13 0 -2
BITMAP
00
00
00
00
00
C0
6C
36
06
36
3C
00
00
ENDCHAR

STARTCHAR uni0E57
ENCODING 3671
SWIDTH 568 0
DWIDTH 8 0
BBX 8 13 0 -2
BITMAP
00
00
00
00
06
06
5E
FE
EE
CE
EC
00
00
ENDCHAR

STARTCHAR uni0E58
ENCODING 3672
SWIDTH 568 0
DWIDTH 8 0
BBX 8 13 0 -2
BITMAP
00
00
00
00
00
06
7C
C0
CE
FE
6C
00
00
ENDCHAR

STARTCHAR uni0E59
ENCODING 3673
SWIDTH 568 0
DWIDTH 8 0
BBX 8 13 0 -2
BITMAP
00
00
00
00
06
06
1C
78
D8
FC
76
00
00
ENDCHAR

STARTCHAR uni0E5A
ENCODING 3674
SWIDTH 568 0
DWIDTH 8 0
BBX 8 13 0 -2
BITMAP
00
00
00
00
00
DB
FB
1B
1B
1B
76
00
00
ENDCHAR

STARTCHAR uni0E5B
ENCODING 3675
SWIDTH 568 0
DWIDTH 8 0
BBX 8 13 0 -2
BITMAP
00
00
00
00
00
E0
E0
D7
DC
F8
60
00
00
ENDCHAR

STARTCHAR uni1E02
ENCODING 7682
SWIDTH 568 0
DWIDTH 8 0
BBX 8 13 0 -2
BITMAP
18
18
00
FC
66
66
7C
66
66
66
FC
00
00
ENDCHAR

STARTCHAR uni1E03
ENCODING 7683
SWIDTH 568 0
DWIDTH 8 0
BBX 8 13 0 -2
BITMAP
18
18
C0
C0
C0
DC
E6
C6
C6
E6
DC
00
00
ENDCHAR

STARTCHAR uni1E0A
ENCODING 7690
SWIDTH 568 0
DWIDTH 8 0
BBX 8 13 0 -2
BITMAP
18
18
00
FC
66
66
66
66
66
66
FC
00
00
ENDCHAR

STARTCHAR uni1E0B
ENCODING 7691
SWIDTH 568 0
DWIDTH 8 0
BBX 8 13 0 -2
BITMAP
30
30
06
06
06
76
CE
C6
C6
CE
76
00
00
ENDCHAR

STARTCHAR uni1E1E
ENCODING 7710
SWIDTH 568 0
DWIDTH 8 0
BBX 8 13 0 -2
BITMAP
18
18
00
7E
60
60
78
60
60
60
60
00
00
ENDCHAR

STARTCHAR uni1E1F
ENCODING 7711
SWIDTH 568 0
DWIDTH 8 0
BBX 8 13 0 -2
BITMAP
18
18
00
1C
32
30
7C
30
30
30
30
00
00
ENDCHAR

STARTCHAR uni1E40
ENCODING 7744
SWIDTH 568 0
DWIDTH 8 0
BBX 8 13 0 -2
BITMAP
18
18
00
C6
C6
EE
D6
C6
C6
C6
C6
00
00
ENDCHAR

STARTCHAR uni1E41
ENCODING 7745
SWIDTH 568 0
DWIDTH 8 0
BBX 8 13 0 -2
BITMAP
00
18
18
00
6C
FE
D6
D6
C6
C6
C6
00
00
ENDCHAR

STARTCHAR uni1E56
ENCODING 7766
SWIDTH 568 0
DWIDTH 8 0
BBX 8 13 0 -2
BITMAP
18
18
00
7C
66
66
7C
60
60
60
60
00
00
ENDCHAR

STARTCHAR uni1E57
ENCODING 7767
SWIDTH 568 0
DWIDTH 8 0
BBX 8 13 0 -2
BITMAP
00
00
18
18
00
DC
E6
C6
E6
DC
C0
C0
C0
ENDCHAR

STARTCHAR uni1E60
ENCODING 7776
SWIDTH 568 0
DWIDTH 8 0
BBX 8 13 0 -2
BITMAP
18
18
00
7C
C6
C0
7C
06
06
C6
7C
00
00
ENDCHAR

STARTCHAR uni1E61
ENCODING 7777
SWIDTH 568 0
DWIDTH 8 0
BBX 8 13 0 -2
BITMAP
00
00
18
18
00
7C
C6
70
1C
C6
7C
00
00
ENDCHAR

STARTCHAR uni1E6A
ENCODING 7786
SWIDTH 568 0
DWIDTH 8 0
BBX 8 13 0 -2
BITMAP
18
18
00
FF
18
18
18
18
18
18
18
00
00
ENDCHAR

STARTCHAR uni1E6B
ENCODING 7787
SWIDTH 568 0
DWIDTH 8 0
BBX 8 13 0 -2
BITMAP
18
18
00
60
60
FC
60
60
60
62
3C
00
00
ENDCHAR

STARTCHAR Wgrave
ENCODING 7808
SWIDTH 568 0
DWIDTH 8 0
BBX 8 13 0 -2
BITMAP
30
18
00
C6
C6
C6
C6
D6
D6
FE
6C
00
00
ENDCHAR

STARTCHAR wgrave
ENCODING 7809
SWIDTH 568 0
DWIDTH 8 0
BBX 8 13 0 -2
BITMAP
00
30
18
00
C6
C6
C6
D6
D6
FE
6C
00
00
ENDCHAR

STARTCHAR Wacute
ENCODING 7810
SWIDTH 568 0
DWIDTH 8 0
BBX 8 13 0 -2
BITMAP
18
30
00
C6
C6
C6
C6
D6
D6
FE
6C
00
00
ENDCHAR

STARTCHAR wacute
ENCODING 7811
SWIDTH 568 0
DWIDTH 8 0
BBX 8 13 0 -2
BITMAP
00
18
30
00
C6
C6
C6
D6
D6
FE
6C
00
00
ENDCHAR

STARTCHAR Wdieresis
ENCODING 7812
SWIDTH 568 0
DWIDTH 8 0
BBX 8 13 0 -2
BITMAP
6C
6C
00
C6
C6
C6
C6
D6
D6
FE
6C
00
00
ENDCHAR

STARTCHAR wdieresis
ENCODING 7813
SWIDTH 568 0
DWIDTH 8 0
BBX 8 13 0 -2
BITMAP
00
6C
6C
00
C6
C6
C6
D6
D6
FE
6C
00
00
ENDCHAR

STARTCHAR Ygrave
ENCODING 7922
SWIDTH 568 0
DWIDTH 8 0
BBX 8 13 0 -2
BITMAP
00
30
18
00
C3
66
3C
18
18
18
18
00
00
ENDCHAR

STARTCHAR ygrave
ENCODING 7923
SWIDTH 568 0
DWIDTH 8 0
BBX 8 13 0 -2
BITMAP
00
00
30
18
00
C6
C6
C6
CE
76
06
C6
7C
ENDCHAR

STARTCHAR uni1F00
ENCODING 7936
SWIDTH 568 0
DWIDTH 8 0
BBX 8 13 0 -2
BITMAP
38
18
30
00
76
CE
C6
C6
CE
D6
66
00
00
ENDCHAR

STARTCHAR uni1F01
ENCODING 7937
SWIDTH 568 0
DWIDTH 8 0
BBX 8 13 0 -2
BITMAP
38
30
18
00
76
CE
C6
C6
CE
D6
66
00
00
ENDCHAR

STARTCHAR uni1F02
ENCODING 7938
SWIDTH 568 0
DWIDTH 8 0
BBX 8 13 0 -2
BITMAP
7C
36
60
00
76
CE
C6
C6
CE
D6
66
00
00
ENDCHAR

STARTCHAR uni1F03
ENCODING 7939
SWIDTH 568 0
DWIDTH 8 0
BBX 8 13 0 -2
BITMAP
7C
66
30
00
76
CE
C6
C6
CE
D6
66
00
00
ENDCHAR

STARTCHAR uni1F04
ENCODING 7940
SWIDTH 568 0
DWIDTH 8 0
BBX 8 13 0 -2
BITMAP
76
3C
60
00
76
CE
C6
C6
CE
D6
66
00
00
ENDCHAR

STARTCHAR uni1F05
ENCODING 7941
SWIDTH 568 0
DWIDTH 8 0
BBX 8 13 0 -2
BITMAP
76
6C
30
00
76
CE
C6
C6
CE
D6
66
00
00
ENDCHAR

STARTCHAR uni1F06
ENCODING 7942
SWIDTH 568 0
DWIDTH 8 0
BBX 8 13 0 -2
BITMAP
32
5C
0C
18
76
CE
C6
C6
CE
D6
66
00
00
ENDCHAR

STARTCHAR uni1F07
ENCODING 7943
SWIDTH 568 0
DWIDTH 8 0
BBX 8 13 0 -2
BITMAP
32
5C
18
0C
76
CE
C6
C6
CE
D6
66
00
00
ENDCHAR

STARTCHAR uni1F08
ENCODING 7944
SWIDTH 568 0
DWIDTH 8 0
BBX 8 13 0 -2
BITMAP
00
C8
5C
B6
36
36
3E
36
36
36
36
00
00
ENDCHAR

STARTCHAR uni1F09
ENCODING 7945
SWIDTH 568 0
DWIDTH 8 0
BBX 8 13 0 -2
BITMAP
00
C8
9C
76
36
36
3E
36
36
36
36
00
00
ENDCHAR

STARTCHAR uni1F0A
ENCODING 7946
SWIDTH 568 0
DWIDTH 8 0
BBX 8 13 0 -2
BITMAP
00
C8
5C
B6
B6
76
3E
36
36
36
36
00
00
ENDCHAR

STARTCHAR uni1F0B
ENCODING 7947
SWIDTH 568 0
DWIDTH 8 0
BBX 8 13 0 -2
BITMAP
00
C8
9C
76
B6
76
3E
36
36
36
36
00
00
ENDCHAR

STARTCHAR uni1F0C
ENCODING 7948
SWIDTH 568 0
DWIDTH 8 0
BBX 8 13 0 -2
BITMAP
00
C8
5C
B6
76
B6
3E
36
36
36
36
00
00
ENDCHAR

STARTCHAR uni1F0D
ENCODING 7949
SWIDTH 568 0
DWIDTH 8 0
BBX 8 13 0 -2
BITMAP
00
C8
9C
76
76
B6
3E
36
36
36
36
00
00
ENDCHAR

STARTCHAR uni1F0E
ENCODING 7950
SWIDTH 568 0
DWIDTH 8 0
BBX 8 13 0 -2
BITMAP
00
C8
1C
F6
76
B6
3E
36
36
36
36
00
00
ENDCHAR

STARTCHAR uni1F0F
ENCODING 7951
SWIDTH 568 0
DWIDTH 8 0
BBX 8 13 0 -2
BITMAP
00
C8
1C
F6
B6
76
3E
36
36
36
36
00
00
ENDCHAR

STARTCHAR uni1F10
ENCODING 7952
SWIDTH 568 0
DWIDTH 8 0
BBX 8 13 0 -2
BITMAP
38
18
30
00
7C
C6
C0
78
C0
C6
7C
00
00
ENDCHAR

STARTCHAR uni1F11
ENCODING 7953
SWIDTH 568 0
DWIDTH 8 0
BBX 8 13 0 -2
BITMAP
38
30
18
00
7C
C6
C0
78
C0
C6
7C
00
00
ENDCHAR

STARTCHAR uni1F12
ENCODING 7954
SWIDTH 568 0
DWIDTH 8 0
BBX 8 13 0 -2
BITMAP
7C
36
60
00
7C
C6
C0
78
C0
C6
7C
00
00
ENDCHAR

STARTCHAR uni1F13
ENCODING 7955
SWIDTH 568 0
DWIDTH 8 0
BBX 8 13 0 -2
BITMAP
7C
66
30
00
7C
C6
C0
78
C0
C6
7C
00
00
ENDCHAR

STARTCHAR uni1F14
ENCODING 7956
SWIDTH 568 0
DWIDTH 8 0
BBX 8 13 0 -2
BITMAP
76
3C
60
00
7C
C6
C0
78
C0
C6
7C
00
00
ENDCHAR

STARTCHAR uni1F15
ENCODING 7957
SWIDTH 568 0
DWIDTH 8 0
BBX 8 13 0 -2
BITMAP
76
6C
30
00
7C
C6
C0
78
C0
C6
7C
00
00
ENDCHAR

STARTCHAR uni1F18
ENCODING 7960
SWIDTH 568 0
DWIDTH 8 0
BBX 8 13 0 -2
BITMAP
00
FE
70
B0
30
3C
30
30
30
30
3E
00
00
ENDCHAR

STARTCHAR uni1F19
ENCODING 7961
SWIDTH 568 0
DWIDTH 8 0
BBX 8 13 0 -2
BITMAP
00
FE
B0
70
30
3C
30
30
30
30
3E
00
00
ENDCHAR

STARTCHAR uni1F1A
ENCODING 7962
SWIDTH 568 0
DWIDTH 8 0
BBX 8 13 0 -2
BITMAP
00
FE
70
B0
B0
7C
30
30
30
30
3E
00
00
ENDCHAR

STARTCHAR uni1F1B
ENCODING 7963
SWIDTH 568 0
DWIDTH 8 0
BBX 8 13 0 -2
BITMAP
00
FE
B0
70
B0
7C
30
30
30
30
3E
00
00
ENDCHAR

STARTCHAR uni1F1C
ENCODING 7964
SWIDTH 568 0
DWIDTH 8 0
BBX 8 13 0 -2
BITMAP
00
FE
70
B0
70
BC
30
30
30
30
3E
00
00
ENDCHAR

STARTCHAR uni1F1D
ENCODING 7965
SWIDTH 568 0
DWIDTH 8 0
BBX 8 13 0 -2
BITMAP
00
FE
B0
70
70
BC
30
30
30
30
3E
00
00
ENDCHAR

STARTCHAR uni1F20
ENCODING 7968
SWIDTH 568 0
DWIDTH 8 0
BBX 8 13 0 -2
BITMAP
38
18
30
00
FC
E6
C6
C6
C6
C6
C6
06
06
ENDCHAR

STARTCHAR uni1F21
ENCODING 7969
SWIDTH 568 0
DWIDTH 8 0
BBX 8 13 0 -2
BITMAP
38
30
18
00
FC
E6
C6
C6
C6
C6
C6
06
06
ENDCHAR

STARTCHAR uni1F22
ENCODING 7970
SWIDTH 568 0
DWIDTH 8 0
BBX 8 13 0 -2
BITMAP
7C
36
60
00
FC
E6
C6
C6
C6
C6
C6
06
06
ENDCHAR

STARTCHAR uni1F23
ENCODING 7971
SWIDTH 568 0
DWIDTH 8 0
BBX 8 13 0 -2
BITMAP
7C
66
30
00
FC
E6
C6
C6
C6
C6
C6
06
06
ENDCHAR

STARTCHAR uni1F24
ENCODING 7972
SWIDTH 568 0
DWIDTH 8 0
BBX 8 13 0 -2
BITMAP
76
3C
60
00
FC
E6
C6
C6
C6
C6
C6
06
06
ENDCHAR

STARTCHAR uni1F25
ENCODING 7973
SWIDTH 568 0
DWIDTH 8 0
BBX 8 13 0 -2
BITMAP
76
6C
30
00
FC
E6
C6
C6
C6
C6
C6
06
06
ENDCHAR

STARTCHAR uni1F26
ENCODING 7974
SWIDTH 568 0
DWIDTH 8 0
BBX 8 13 0 -2
BITMAP
32
5C
0C
18
FC
E6
C6
C6
C6
C6
C6
06
06
ENDCHAR

STARTCHAR uni1F27
ENCODING 7975
SWIDTH 568 0
DWIDTH 8 0
BBX 8 13 0 -2
BITMAP
32
5C
18
0C
FC
E6
C6
C6
C6
C6
C6
06
06
ENDCHAR

STARTCHAR uni1F28
ENCODING 7976
SWIDTH 568 0
DWIDTH 8 0
BBX 8 13 0 -2
BITMAP
00
F6
76
B6
36
3E
36
36
36
36
36
00
00
ENDCHAR

STARTCHAR uni1F29
ENCODING 7977
SWIDTH 568 0
DWIDTH 8 0
BBX 8 13 0 -2
BITMAP
00
F6
B6
76
36
3E
36
36
36
36
36
00
00
ENDCHAR

STARTCHAR uni1F2A
ENCODING 7978
SWIDTH 568 0
DWIDTH 8 0
BBX 8 13 0 -2
BITMAP
00
F6
76
B6
B6
7E
36
36
36
36
36
00
00
ENDCHAR

STARTCHAR uni1F2B
ENCODING 7979
SWIDTH 568 0
DWIDTH 8 0
BBX 8 13 0 -2
BITMAP
00
F6
B6
76
B6
7E
36
36
36
36
36
00
00
ENDCHAR

STARTCHAR uni1F2C
ENCODING 7980
SWIDTH 568 0
DWIDTH 8 0
BBX 8 13 0 -2
BITMAP
00
F6
76
B6
76
BE
36
36
36
36
36
00
00
ENDCHAR

STARTCHAR uni1F2D
ENCODING 7981
SWIDTH 568 0
DWIDTH 8 0
BBX 8 13 0 -2
BITMAP
00
F6
B6
76
76
BE
36
36
36
36
36
00
00
ENDCHAR

STARTCHAR uni1F2E
ENCODING 7982
SWIDTH 568 0
DWIDTH 8 0
BBX 8 13 0 -2
BITMAP
00
F6
36
F6
76
BE
36
36
36
36
36
00
00
ENDCHAR

STARTCHAR uni1F2F
ENCODING 7983
SWIDTH 568 0
DWIDTH 8 0
BBX 8 13 0 -2
BITMAP
00
F6
36
F6
B6
7E
36
36
36
36
36
00
00
ENDCHAR

STARTCHAR uni1F30
ENCODING 7984
SWIDTH 568 0
DWIDTH 8 0
BBX 8 13 0 -2
BITMAP
70
30
60
00
60
60
60
60
60
6C
38
00
00
ENDCHAR

STARTCHAR uni1F31
ENCODING 7985
SWIDTH 568 0
DWIDTH 8 0
BBX 8 13 0 -2
BITMAP
70
60
30
00
60
60
60
60
60
6C
38
00
00
ENDCHAR

STARTCHAR uni1F32
ENCODING 7986
SWIDTH 568 0
DWIDTH 8 0
BBX 8 13 0 -2
BITMAP
F8
6C
C0
00
30
30
30
30
30
36
1C
00
00
ENDCHAR

STARTCHAR uni1F33
ENCODING 7987
SWIDTH 568 0
DWIDTH 8 0
BBX 8 13 0 -2
BITMAP
F8
CC
60
00
30
30
30
30
30
36
1C
00
00
ENDCHAR

STARTCHAR uni1F34
ENCODING 7988
SWIDTH 568 0
DWIDTH 8 0
BBX 8 13 0 -2
BITMAP
EC
78
C0
00
30
30
30
30
30
36
1C
00
00
ENDCHAR

STARTCHAR uni1F35
ENCODING 7989
SWIDTH 568 0
DWIDTH 8 0
BBX 8 13 0 -2
BITMAP
EC
D8
60
00
30
30
30
30
30
36
1C
00
00
ENDCHAR

STARTCHAR uni1F36
ENCODING 7990
SWIDTH 568 0
DWIDTH 8 0
BBX 8 13 0 -2
BITMAP
64
B8
18
30
10
30
30
30
30
36
1C
00
00
ENDCHAR

STARTCHAR uni1F37
ENCODING 7991
SWIDTH 568 0
DWIDTH 8 0
BBX 8 13 0 -2
BITMAP
64
B8
30
18
20
30
30
30
30
36
1C
00
00
ENDCHAR

STARTCHAR uni1F38
ENCODING 7992
SWIDTH 568 0
DWIDTH 8 0
BBX 8 13 0 -2
BITMAP
00
DE
4C
8C
0C
0C
0C
0C
0C
0C
1E
00
00
ENDCHAR

STARTCHAR uni1F39
ENCODING 7993
SWIDTH 568 0
DWIDTH 8 0
BBX 8 13 0 -2
BITMAP
00
DE
8C
4C
0C
0C
0C
0C
0C
0C
1E
00
00
ENDCHAR

STARTCHAR uni1F3A
ENCODING 7994
SWIDTH 568 0
DWIDTH 8 0
BBX 8 13 0 -2
BITMAP
00
DE
4C
8C
8C
4C
0C
0C
0C
0C
1E
00
00
ENDCHAR

STARTCHAR uni1F3B
ENCODING 7995
SWIDTH 568 0
DWIDTH 8 0
BBX 8 13 0 -2
BITMAP
00
DE
8C
4C
8C
4C
0C
0C
0C
0C
1E
00
00
ENDCHAR

STARTCHAR uni1F3C
ENCODING 7996
SWIDTH 568 0
DWIDTH 8 0
BBX 8 13 0 -2
BITMAP
00
DE
4C
8C
4C
8C
0C
0C
0C
0C
1E
00
00
ENDCHAR

STARTCHAR uni1F3D
ENCODING 7997
SWIDTH 568 0
DWIDTH 8 0
BBX 8 13 0 -2
BITMAP
00
DE
8C
4C
4C
8C
0C
0C
0C
0C
1E
00
00
ENDCHAR

STARTCHAR uni1F3E
ENCODING 7998
SWIDTH 568 0
DWIDTH 8 0
BBX 8 13 0 -2
BITMAP
00
DE
0C
CC
4C
8C
0C
0C
0C
0C
1E
00
00
ENDCHAR

STARTCHAR uni1F3F
ENCODING 7999
SWIDTH 568 0
DWIDTH 8 0
BBX 8 13 0 -2
BITMAP
00
DE
0C
CC
8C
4C
0C
0C
0C
0C
1E
00
00
ENDCHAR

STARTCHAR uni1F40
ENCODING 8000
SWIDTH 568 0
DWIDTH 8 0
BBX 8 13 0 -2
BITMAP
38
18
30
00
7C
C6
C6
C6
C6
C6
7C
00
00
ENDCHAR

STARTCHAR uni1F41
ENCODING 8001
SWIDTH 568 0
DWIDTH 8 0
BBX 8 13 0 -2
BITMAP
38
30
18
00
7C
C6
C6
C6
C6
C6
7C
00
00
ENDCHAR

STARTCHAR uni1F42
ENCODING 8002
SWIDTH 568 0
DWIDTH 8 0
BBX 8 13 0 -2
BITMAP
7C
36
60
00
7C
C6
C6
C6
C6
C6
7C
00
00
ENDCHAR

STARTCHAR uni1F43
ENCODING 8003
SWIDTH 568 0
DWIDTH 8 0
BBX 8 13 0 -2
BITMAP
7C
66
30
00
7C
C6
C6
C6
C6
C6
7C
00
00
ENDCHAR

STARTCHAR uni1F44
ENCODING 8004
SWIDTH 568 0
DWIDTH 8 0
BBX 8 13 0 -2
BITMAP
76
3C
60
00
7C
C6
C6
C6
C6
C6
7C
00
00
ENDCHAR

STARTCHAR uni1F45
ENCODING 8005
SWIDTH 568 0
DWIDTH 8 0
BBX 8 13 0 -2
BITMAP
76
6C
30
00
7C
C6
C6
C6
C6
C6
7C
00
00
ENDCHAR

STARTCHAR uni1F48
ENCODING 8008
SWIDTH 568 0
DWIDTH 8 0
BBX 8 13 0 -2
BITMAP
00
DC
76
B6
36
36
36
36
36
36
1C
00
00
ENDCHAR

STARTCHAR uni1F49
ENCODING 8009
SWIDTH 568 0
DWIDTH 8 0
BBX 8 13 0 -2
BITMAP
00
DC
B6
76
36
36
36
36
36
36
1C
00
00
ENDCHAR

STARTCHAR uni1F4A
ENCODING 8010
SWIDTH 568 0
DWIDTH 8 0
BBX 8 13 0 -2
BITMAP
00
DC
76
B6
B6
76
36
36
36
36
1C
00
00
ENDCHAR

STARTCHAR uni1F4B
ENCODING 8011
SWIDTH 568 0
DWIDTH 8 0
BBX 8 13 0 -2
BITMAP
00
DC
B6
76
B6
76
36
36
36
36
1C
00
00
ENDCHAR

STARTCHAR uni1F4C
ENCODING 8012
SWIDTH 568 0
DWIDTH 8 0
BBX 8 13 0 -2
BITMAP
00
DC
76
B6
76
B6
36
36
36
36
1C
00
00
ENDCHAR

STARTCHAR uni1F4D
ENCODING 8013
SWIDTH 568 0
DWIDTH 8 0
BBX 8 13 0 -2
BITMAP
00
DC
B6
76
76
B6
36
36
36
36
1C
00
00
ENDCHAR

STARTCHAR uni1F50
ENCODING 8016
SWIDTH 568 0
DWIDTH 8 0
BBX 8 13 0 -2
BITMAP
38
18
30
00
C6
C6
C6
C6
C6
C6
7C
00
00
ENDCHAR

STARTCHAR uni1F51
ENCODING 8017
SWIDTH 568 0
DWIDTH 8 0
BBX 8 13 0 -2
BITMAP
38
30
18
00
C6
C6
C6
C6
C6
C6
7C
00
00
ENDCHAR

STARTCHAR uni1F52
ENCODING 8018
SWIDTH 568 0
DWIDTH 8 0
BBX 8 13 0 -2
BITMAP
7C
36
60
00
C6
C6
C6
C6
C6
C6
7C
00
00
ENDCHAR

STARTCHAR uni1F53
ENCODING 8019
SWIDTH 568 0
DWIDTH 8 0
BBX 8 13 0 -2
BITMAP
7C
66
30
00
C6
C6
C6
C6
C6
C6
7C
00
00
ENDCHAR

STARTCHAR uni1F54
ENCODING 8020
SWIDTH 568 0
DWIDTH 8 0
BBX 8 13 0 -2
BITMAP
76
3C
60
00
C6
C6
C6
C6
C6
C6
7C
00
00
ENDCHAR

STARTCHAR uni1F55
ENCODING 8021
SWIDTH 568 0
DWIDTH 8 0
BBX 8 13 0 -2
BITMAP
76
6C
30
00
C6
C6
C6
C6
C6
C6
7C
00
00
ENDCHAR

STARTCHAR uni1F56
ENCODING 8022
SWIDTH 568 0
DWIDTH 8 0
BBX 8 13 0 -2
BITMAP
64
B8
18
30
C6
C6
C6
C6
C6
C6
7C
00
00
ENDCHAR

STARTCHAR uni1F57
ENCODING 8023
SWIDTH 568 0
DWIDTH 8 0
BBX 8 13 0 -2
BITMAP
64
B8
30
18
C6
C6
C6
C6
C6
C6
7C
00
00
ENDCHAR

STARTCHAR uni1F59
ENCODING 8025
SWIDTH 568 0
DWIDTH 8 0
BBX 8 13 0 -2
BITMAP
00
F3
B3
73
1E
1E
0C
0C
0C
0C
0C
00
00
ENDCHAR

STARTCHAR uni1F5B
ENCODING 8027
SWIDTH 568 0
DWIDTH 8 0
BBX 8 13 0 -2
BITMAP
00
F3
B3
73
9E
5E
0C
0C
0C
0C
0C
00
00
ENDCHAR

STARTCHAR uni1F5D
ENCODING 8029
SWIDTH 568 0
DWIDTH 8 0
BBX 8 13 0 -2
BITMAP
00
F3
B3
73
5E
9E
0C
0C
0C
0C
0C
00
00
ENDCHAR

STARTCHAR uni1F5F
ENCODING 8031
SWIDTH 568 0
DWIDTH 8 0
BBX 8 13 0 -2
BITMAP
00
F3
33
F3
9E
5E
0C
0C
0C
0C
0C
00
00
ENDCHAR

STARTCHAR uni1F60
ENCODING 8032
SWIDTH 568 0
DWIDTH 8 0
BBX 8 13 0 -2
BITMAP
38
18
30
00
C6
C6
D6
D6
D6
FE
6C
00
00
ENDCHAR

STARTCHAR uni1F61
ENCODING 8033
SWIDTH 568 0
DWIDTH 8 0
BBX 8 13 0 -2
BITMAP
38
30
18
00
C6
C6
D6
D6
D6
FE
6C
00
00
ENDCHAR

STARTCHAR uni1F62
ENCODING 8034
SWIDTH 568 0
DWIDTH 8 0
BBX 8 13 0 -2
BITMAP
7C
36
60
00
C6
C6
D6
D6
D6
FE
6C
00
00
ENDCHAR

STARTCHAR uni1F63
ENCODING 8035
SWIDTH 568 0
DWIDTH 8 0
BBX 8 13 0 -2
BITMAP
7C
66
30
00
C6
C6
D6
D6
D6
FE
6C
00
00
ENDCHAR

STARTCHAR uni1F64
ENCODING 8036
SWIDTH 568 0
DWIDTH 8 0
BBX 8 13 0 -2
BITMAP
76
3C
60
00
C6
C6
D6
D6
D6
FE
6C
00
00
ENDCHAR

STARTCHAR uni1F65
ENCODING 8037
SWIDTH 568 0
DWIDTH 8 0
BBX 8 13 0 -2
BITMAP
76
6C
30
00
C6
C6
D6
D6
D6
FE
6C
00
00
ENDCHAR

STARTCHAR uni1F66
ENCODING 8038
SWIDTH 568 0
DWIDTH 8 0
BBX 8 13 0 -2
BITMAP
32
5C
0C
18
C6
C6
D6
D6
D6
FE
6C
00
00
ENDCHAR

STARTCHAR uni1F67
ENCODING 8039
SWIDTH 568 0
DWIDTH 8 0
BBX 8 13 0 -2
BITMAP
64
B8
30
18
C6
C6
D6
D6
D6
FE
6C
00
00
ENDCHAR

STARTCHAR uni1F68
ENCODING 8040
SWIDTH 568 0
DWIDTH 8 0
BBX 8 13 0 -2
BITMAP
00
DC
76
B6
36
36
36
36
1C
1C
36
00
00
ENDCHAR

STARTCHAR uni1F69
ENCODING 8041
SWIDTH 568 0
DWIDTH 8 0
BBX 8 13 0 -2
BITMAP
00
DC
B6
76
36
36
36
36
1C
1C
36
00
00
ENDCHAR

STARTCHAR uni1F6A
ENCODING 8042
SWIDTH 568 0
DWIDTH 8 0
BBX 8 13 0 -2
BITMAP
00
DC
76
B6
B6
76
36
36
1C
1C
36
00
00
ENDCHAR

STARTCHAR uni1F6B
ENCODING 8043
SWIDTH 568 0
DWIDTH 8 0
BBX 8 13 0 -2
BITMAP
00
DC
B6
76
B6
76
36
36
1C
1C
36
00
00
ENDCHAR

STARTCHAR uni1F6C
ENCODING 8044
SWIDTH 568 0
DWIDTH 8 0
BBX 8 13 0 -2
BITMAP
00
DC
76
B6
76
B6
36
36
1C
1C
36
00
00
ENDCHAR

STARTCHAR uni1F6D
ENCODING 8045
SWIDTH 568 0
DWIDTH 8 0
BBX 8 13 0 -2
BITMAP
00
DC
B6
76
76
B6
36
36
1C
1C
36
00
00
ENDCHAR

STARTCHAR uni1F6E
ENCODING 8046
SWIDTH 568 0
DWIDTH 8 0
BBX 8 13 0 -2
BITMAP
00
DC
36
F6
76
B6
36
36
1C
1C
36
00
00
ENDCHAR

STARTCHAR uni1F6F
ENCODING 8047
SWIDTH 568 0
DWIDTH 8 0
BBX 8 13 0 -2
BITMAP
00
DC
36
F6
B6
76
36
36
1C
1C
36
00
00
ENDCHAR

STARTCHAR uni1F70
ENCODING 8048
SWIDTH 568 0
DWIDTH 8 0
BBX 8 13 0 -2
BITMAP
00
30
18
00
76
CE
C6
C6
CE
D6
66
00
00
ENDCHAR

STARTCHAR uni1F71
ENCODING 8049
SWIDTH 568 0
DWIDTH 8 0
BBX 8 13 0 -2
BITMAP
00
0C
18
00
76
CE
C6
C6
CE
D6
66
00
00
ENDCHAR

STARTCHAR uni1F72
ENCODING 8050
SWIDTH 568 0
DWIDTH 8 0
BBX 8 13 0 -2
BITMAP
00
30
18
00
7C
C6
C0
78
C0
C6
7C
00
00
ENDCHAR

STARTCHAR uni1F73
ENCODING 8051
SWIDTH 568 0
DWIDTH 8 0
BBX 8 13 0 -2
BITMAP
00
0C
18
00
7C
C6
C0
78
C0
C6
7C
00
00
ENDCHAR

STARTCHAR uni1F74
ENCODING 8052
SWIDTH 568 0
DWIDTH 8 0
BBX 8 13 0 -2
BITMAP
00
30
18
00
FC
E6
C6
C6
C6
C6
C6
06
06
ENDCHAR

STARTCHAR uni1F75
ENCODING 8053
SWIDTH 568 0
DWIDTH 8 0
BBX 8 13 0 -2
BITMAP
00
0C
18
00
FC
E6
C6
C6
C6
C6
C6
06
06
ENDCHAR

STARTCHAR uni1F76
ENCODING 8054
SWIDTH 568 0
DWIDTH 8 0
BBX 8 13 0 -2
BITMAP
00
C0
60
00
60
60
60
60
60
6C
38
00
00
ENDCHAR

STARTCHAR uni1F77
ENCODING 8055
SWIDTH 568 0
DWIDTH 8 0
BBX 8 13 0 -2
BITMAP
00
30
60
00
60
60
60
60
60
6C
38
00
00
ENDCHAR

STARTCHAR uni1F78
ENCODING 8056
SWIDTH 568 0
DWIDTH 8 0
BBX 8 13 0 -2
BITMAP
00
30
18
00
7C
C6
C6
C6
C6
C6
7C
00
00
ENDCHAR

STARTCHAR uni1F79
ENCODING 8057
SWIDTH 568 0
DWIDTH 8 0
BBX 8 13 0 -2
BITMAP
00
0C
18
00
7C
C6
C6
C6
C6
C6
7C
00
00
ENDCHAR

STARTCHAR uni1F7A
ENCODING 8058
SWIDTH 568 0
DWIDTH 8 0
BBX 8 13 0 -2
BITMAP
00
30
18
00
C6
C6
C6
C6
C6
C6
7C
00
00
ENDCHAR

STARTCHAR uni1F7B
ENCODING 8059
SWIDTH 568 0
DWIDTH 8 0
BBX 8 13 0 -2
BITMAP
00
0C
18
00
C6
C6
C6
C6
C6
C6
7C
00
00
ENDCHAR

STARTCHAR uni1F7C
ENCODING 8060
SWIDTH 568 0
DWIDTH 8 0
BBX 8 13 0 -2
BITMAP
00
30
18
00
C6
C6
D6
D6
D6
FE
6C
00
00
ENDCHAR

STARTCHAR uni1F7D
ENCODING 8061
SWIDTH 568 0
DWIDTH 8 0
BBX 8 13 0 -2
BITMAP
00
0C
18
00
C6
C6
D6
D6
D6
FE
6C
00
00
ENDCHAR

STARTCHAR uni1F80
ENCODING 8064
SWIDTH 568 0
DWIDTH 8 0
BBX 8 13 0 -2
BITMAP
38
18
30
00
76
CE
C6
C6
CE
D6
66
00
18
ENDCHAR

STARTCHAR uni1F81
ENCODING 8065
SWIDTH 568 0
DWIDTH 8 0
BBX 8 13 0 -2
BITMAP
38
30
18
00
76
CE
C6
C6
CE
D6
66
00
18
ENDCHAR

STARTCHAR uni1F82
ENCODING 8066
SWIDTH 568 0
DWIDTH 8 0
BBX 8 13 0 -2
BITMAP
7C
36
60
00
76
CE
C6
C6
CE
D6
66
00
18
ENDCHAR

STARTCHAR uni1F83
ENCODING 8067
SWIDTH 568 0
DWIDTH 8 0
BBX 8 13 0 -2
BITMAP
7C
66
30
00
76
CE
C6
C6
CE
D6
66
00
18
ENDCHAR

STARTCHAR uni1F84
ENCODING 8068
SWIDTH 568 0
DWIDTH 8 0
BBX 8 13 0 -2
BITMAP
76
3C
60
00
76
CE
C6
C6
CE
D6
66
00
18
ENDCHAR

STARTCHAR uni1F85
ENCODING 8069
SWIDTH 568 0
DWIDTH 8 0
BBX 8 13 0 -2
BITMAP
76
6C
30
00
76
CE
C6
C6
CE
D6
66
00
18
ENDCHAR

STARTCHAR uni1F86
ENCODING 8070
SWIDTH 568 0
DWIDTH 8 0
BBX 8 13 0 -2
BITMAP
32
5C
0C
18
76
CE
C6
C6
CE
D6
66
00
18
ENDCHAR

STARTCHAR uni1F87
ENCODING 8071
SWIDTH 568 0
DWIDTH 8 0
BBX 8 13 0 -2
BITMAP
32
5C
18
0C
76
CE
C6
C6
CE
D6
66
00
18
ENDCHAR

STARTCHAR uni1F88
ENCODING 8072
SWIDTH 568 0
DWIDTH 8 0
BBX 8 13 0 -2
BITMAP
00
C8
5C
B6
36
36
3E
36
36
36
36
00
0C
ENDCHAR

STARTCHAR uni1F89
ENCODING 8073
SWIDTH 568 0
DWIDTH 8 0
BBX 8 13 0 -2
BITMAP
00
C8
9C
76
36
36
3E
36
36
36
36
00
0C
ENDCHAR

STARTCHAR uni1F8A
ENCODING 8074
SWIDTH 568 0
DWIDTH 8 0
BBX 8 13 0 -2
BITMAP
00
C8
5C
B6
B6
76
3E
36
36
36
36
00
0C
ENDCHAR

STARTCHAR uni1F8B
ENCODING 8075
SWIDTH 568 0
DWIDTH 8 0
BBX 8 13 0 -2
BITMAP
00
C8
9C
76
B6
76
3E
36
36
36
36
00
0C
ENDCHAR

STARTCHAR uni1F8C
ENCODING 8076
SWIDTH 568 0
DWIDTH 8 0
BBX 8 13 0 -2
BITMAP
00
C8
5C
B6
76
B6
3E
36
36
36
36
00
0C
ENDCHAR

STARTCHAR uni1F8D
ENCODING 8077
SWIDTH 568 0
DWIDTH 8 0
BBX 8 13 0 -2
BITMAP
00
C8
9C
76
76
B6
3E
36
36
36
36
00
0C
ENDCHAR

STARTCHAR uni1F8E
ENCODING 8078
SWIDTH 568 0
DWIDTH 8 0
BBX 8 13 0 -2
BITMAP
00
C8
1C
F6
76
B6
3E
36
36
36
36
00
0C
ENDCHAR

STARTCHAR uni1F8F
ENCODING 8079
SWIDTH 568 0
DWIDTH 8 0
BBX 8 13 0 -2
BITMAP
00
C8
1C
F6
B6
76
3E
36
36
36
36
00
0C
ENDCHAR

STARTCHAR uni1F90
ENCODING 8080
SWIDTH 568 0
DWIDTH 8 0
BBX 8 13 0 -2
BITMAP
38
18
30
00
FC
E6
C6
C6
C6
C6
C6
06
C6
ENDCHAR

STARTCHAR uni1F91
ENCODING 8081
SWIDTH 568 0
DWIDTH 8 0
BBX 8 13 0 -2
BITMAP
38
30
18
00
FC
E6
C6
C6
C6
C6
C6
06
C6
ENDCHAR

STARTCHAR uni1F92
ENCODING 8082
SWIDTH 568 0
DWIDTH 8 0
BBX 8 13 0 -2
BITMAP
7C
36
60
00
FC
E6
C6
C6
C6
C6
C6
06
C6
ENDCHAR

STARTCHAR uni1F93
ENCODING 8083
SWIDTH 568 0
DWIDTH 8 0
BBX 8 13 0 -2
BITMAP
7C
66
30
00
FC
E6
C6
C6
C6
C6
C6
06
C6
ENDCHAR

STARTCHAR uni1F94
ENCODING 8084
SWIDTH 568 0
DWIDTH 8 0
BBX 8 13 0 -2
BITMAP
76
3C
60
00
FC
E6
C6
C6
C6
C6
C6
06
C6
ENDCHAR

STARTCHAR uni1F95
ENCODING 8085
SWIDTH 568 0
DWIDTH 8 0
BBX 8 13 0 -2
BITMAP
76
6C
30
00
FC
E6
C6
C6
C6
C6
C6
06
C6
ENDCHAR

STARTCHAR uni1F96
ENCODING 8086
SWIDTH 568 0
DWIDTH 8 0
BBX 8 13 0 -2
BITMAP
32
5C
0C
18
FC
E6
C6
C6
C6
C6
C6
06
C6
ENDCHAR

STARTCHAR uni1F97
ENCODING 8087
SWIDTH 568 0
DWIDTH 8 0
BBX 8 13 0 -2
BITMAP
32
5C
18
0C
FC
E6
C6
C6
C6
C6
C6
06
C6
ENDCHAR

STARTCHAR uni1F98
ENCODING 8088
SWIDTH 568 0
DWIDTH 8 0
BBX 8 13 0 -2
BITMAP
00
F6
76
B6
36
3E
36
36
36
36
36
00
0C
ENDCHAR

STARTCHAR uni1F99
ENCODING 8089
SWIDTH 568 0
DWIDTH 8 0
BBX 8 13 0 -2
BITMAP
00
F6
B6
76
36
3E
36
36
36
36
36
00
0C
ENDCHAR

STARTCHAR uni1F9A
ENCODING 8090
SWIDTH 568 0
DWIDTH 8 0
BBX 8 13 0 -2
BITMAP
00
F6
76
B6
B6
7E
36
36
36
36
36
00
0C
ENDCHAR

STARTCHAR uni1F9B
ENCODING 8091
SWIDTH 568 0
DWIDTH 8 0
BBX 8 13 0 -2
BITMAP
00
F6
B6
76
B6
7E
36
36
36
36
36
00
0C
ENDCHAR

STARTCHAR uni1F9C
ENCODING 8092
SWIDTH 568 0
DWIDTH 8 0
BBX 8 13 0 -2
BITMAP
00
F6
76
B6
76
BE
36
36
36
36
36
00
0C
ENDCHAR

STARTCHAR uni1F9D
ENCODING 8093
SWIDTH 568 0
DWIDTH 8 0
BBX 8 13 0 -2
BITMAP
00
F6
B6
76
76
BE
36
36
36
36
36
00
0C
ENDCHAR

STARTCHAR uni1F9E
ENCODING 8094
SWIDTH 568 0
DWIDTH 8 0
BBX 8 13 0 -2
BITMAP
00
F6
36
F6
76
BE
36
36
36
36
36
00
0C
ENDCHAR

STARTCHAR uni1F9F
ENCODING 8095
SWIDTH 568 0
DWIDTH 8 0
BBX 8 13 0 -2
BITMAP
00
F6
36
F6
B6
7E
36
36
36
36
36
00
0C
ENDCHAR

STARTCHAR uni1FA0
ENCODING 8096
SWIDTH 568 0
DWIDTH 8 0
BBX 8 13 0 -2
BITMAP
38
18
30
00
C6
C6
D6
D6
D6
FE
6C
00
18
ENDCHAR

STARTCHAR uni1FA1
ENCODING 8097
SWIDTH 568 0
DWIDTH 8 0
BBX 8 13 0 -2
BITMAP
38
30
18
00
C6
C6
D6
D6
D6
FE
6C
00
18
ENDCHAR

STARTCHAR uni1FA2
ENCODING 8098
SWIDTH 568 0
DWIDTH 8 0
BBX 8 13 0 -2
BITMAP
7C
36
60
00
C6
C6
D6
D6
D6
FE
6C
00
18
ENDCHAR

STARTCHAR uni1FA3
ENCODING 8099
SWIDTH 568 0
DWIDTH 8 0
BBX 8 13 0 -2
BITMAP
7C
66
30
00
C6
C6
D6
D6
D6
FE
6C
00
18
ENDCHAR

STARTCHAR uni1FA4
ENCODING 8100
SWIDTH 568 0
DWIDTH 8 0
BBX 8 13 0 -2
BITMAP
76
3C
60
00
C6
C6
D6
D6
D6
FE
6C
00
18
ENDCHAR

STARTCHAR uni1FA5
ENCODING 8101
SWIDTH 568 0
DWIDTH 8 0
BBX 8 13 0 -2
BITMAP
76
6C
30
00
C6
C6
D6
D6
D6
FE
6C
00
18
ENDCHAR

STARTCHAR uni1FA6
ENCODING 8102
SWIDTH 568 0
DWIDTH 8 0
BBX 8 13 0 -2
BITMAP
32
5C
0C
18
C6
C6
D6
D6
D6
FE
6C
00
18
ENDCHAR

STARTCHAR uni1FA7
ENCODING 8103
SWIDTH 568 0
DWIDTH 8 0
BBX 8 13 0 -2
BITMAP
64
B8
30
18
C6
C6
D6
D6
D6
FE
6C
00
18
ENDCHAR

STARTCHAR uni1FA8
ENCODING 8104
SWIDTH 568 0
DWIDTH 8 0
BBX 8 13 0 -2
BITMAP
00
DC
76
B6
36
36
36
36
1C
1C
36
00
0C
ENDCHAR

STARTCHAR uni1FA9
ENCODING 8105
SWIDTH 568 0
DWIDTH 8 0
BBX 8 13 0 -2
BITMAP
00
DC
B6
76
36
36
36
36
1C
1C
36
00
0C
ENDCHAR

STARTCHAR uni1FAA
ENCODING 8106
SWIDTH 568 0
DWIDTH 8 0
BBX 8 13 0 -2
BITMAP
00
DC
76
B6
B6
76
36
36
1C
1C
36
00
0C
ENDCHAR

STARTCHAR uni1FAB
ENCODING 8107
SWIDTH 568 0
DWIDTH 8 0
BBX 8 13 0 -2
BITMAP
00
DC
B6
76
B6
76
36
36
1C
1C
36
00
0C
ENDCHAR

STARTCHAR uni1FAC
ENCODING 8108
SWIDTH 568 0
DWIDTH 8 0
BBX 8 13 0 -2
BITMAP
00
DC
76
B6
76
B6
36
36
1C
1C
36
00
0C
ENDCHAR

STARTCHAR uni1FAD
ENCODING 8109
SWIDTH 568 0
DWIDTH 8 0
BBX 8 13 0 -2
BITMAP
00
DC
B6
76
76
B6
36
36
1C
1C
36
00
0C
ENDCHAR

STARTCHAR uni1FAE
ENCODING 8110
SWIDTH 568 0
DWIDTH 8 0
BBX 8 13 0 -2
BITMAP
00
DC
36
F6
76
B6
36
36
1C
1C
36
00
0C
ENDCHAR

STARTCHAR uni1FAF
ENCODING 8111
SWIDTH 568 0
DWIDTH 8 0
BBX 8 13 0 -2
BITMAP
00
DC
36
F6
B6
76
36
36
1C
1C
36
00
0C
ENDCHAR

STARTCHAR uni1FB0
ENCODING 8112
SWIDTH 568 0
DWIDTH 8 0
BBX 8 13 0 -2
BITMAP
00
C6
7C
00
76
CE
C6
C6
CE
D6
66
00
00
ENDCHAR

STARTCHAR uni1FB1
ENCODING 8113
SWIDTH 568 0
DWIDTH 8 0
BBX 8 13 0 -2
BITMAP
00
FE
00
00
76
CE
C6
C6
CE
D6
66
00
00
ENDCHAR

STARTCHAR uni1FB2
ENCODING 8114
SWIDTH 568 0
DWIDTH 8 0
BBX 8 13 0 -2
BITMAP
00
30
18
00
76
CE
C6
C6
CE
D6
66
00
18
ENDCHAR

STARTCHAR uni1FB3
ENCODING 8115
SWIDTH 568 0
DWIDTH 8 0
BBX 8 13 0 -2
BITMAP
00
00
00
00
76
CE
C6
C6
CE
D6
66
00
18
ENDCHAR

STARTCHAR uni1FB4
ENCODING 8116
SWIDTH 568 0
DWIDTH 8 0
BBX 8 13 0 -2
BITMAP
00
0C
18
00
76
CE
C6
C6
CE
D6
66
00
18
ENDCHAR

STARTCHAR uni1FB6
ENCODING 8118
SWIDTH 568 0
DWIDTH 8 0
BBX 8 13 0 -2
BITMAP
32
7E
4C
00
76
CE
C6
C6
CE
D6
66
00
00
ENDCHAR

STARTCHAR uni1FB7
ENCODING 8119
SWIDTH 568 0
DWIDTH 8 0
BBX 8 13 0 -2
BITMAP
32
7E
4C
00
76
CE
C6
C6
CE
D6
66
00
18
ENDCHAR

STARTCHAR uni1FB8
ENCODING 8120
SWIDTH 568 0
DWIDTH 8 0
BBX 8 13 0 -2
BITMAP
C6
7C
00
38
7C
C6
C6
FE
C6
C6
C6
00
00
ENDCHAR

STARTCHAR uni1FB9
ENCODING 8121
SWIDTH 568 0
DWIDTH 8 0
BBX 8 13 0 -2
BITMAP
00
FE
00
38
7C
C6
C6
FE
C6
C6
C6
00
00
ENDCHAR

STARTCHAR uni1FBA
ENCODING 8122
SWIDTH 568 0
DWIDTH 8 0
BBX 8 13 0 -2
BITMAP
00
C8
5C
36
36
36
3E
36
36
36
36
00
00
ENDCHAR

STARTCHAR uni1FBB
ENCODING 8123
SWIDTH 568 0
DWIDTH 8 0
BBX 8 13 0 -2
BITMAP
00
C8
9C
36
36
36
3E
36
36
36
36
00
00
ENDCHAR

STARTCHAR uni1FBC
ENCODING 8124
SWIDTH 568 0
DWIDTH 8 0
BBX 8 13 0 -2
BITMAP
00
38
7C
C6
C6
C6
FE
C6
C6
C6
C6
30
38
ENDCHAR

STARTCHAR uni1FBD
ENCODING 8125
SWIDTH 568 0
DWIDTH 8 0
BBX 8 13 0 -2
BITMAP
00
38
18
30
00
00
00
00
00
00
00
00
00
ENDCHAR

STARTCHAR uni1FBE
ENCODING 8126
SWIDTH 568 0
DWIDTH 8 0
BBX 8 13 0 -2
BITMAP
00
00
00
00
00
00
00
30
30
30
18
00
00
ENDCHAR

STARTCHAR uni1FBF
ENCODING 8127
SWIDTH 568 0
DWIDTH 8 0
BBX 8 13 0 -2
BITMAP
00
38
18
30
00
00
00
00
00
00
00
00
00
ENDCHAR

STARTCHAR uni1FC0
ENCODING 8128
SWIDTH 568 0
DWIDTH 8 0
BBX 8 13 0 -2
BITMAP
00
64
FC
98
00
00
00
00
00
00
00
00
00
ENDCHAR

STARTCHAR uni1FC1
ENCODING 8129
SWIDTH 568 0
DWIDTH 8 0
BBX 8 13 0 -2
BITMAP
00
64
FC
98
CC
00
00
00
00
00
00
00
00
ENDCHAR

STARTCHAR uni1FC2
ENCODING 8130
SWIDTH 568 0
DWIDTH 8 0
BBX 8 13 0 -2
BITMAP
00
30
18
00
FC
E6
C6
C6
C6
C6
C6
06
C6
ENDCHAR

STARTCHAR uni1FC3
ENCODING 8131
SWIDTH 568 0
DWIDTH 8 0
BBX 8 13 0 -2
BITMAP
00
00
00
00
FC
E6
C6
C6
C6
C6
C6
06
C6
ENDCHAR

STARTCHAR uni1FC4
ENCODING 8132
SWIDTH 568 0
DWIDTH 8 0
BBX 8 13 0 -2
BITMAP
00
0C
18
00
FC
E6
C6
C6
C6
C6
C6
06
C6
ENDCHAR

STARTCHAR uni1FC6
ENCODING 8134
SWIDTH 568 0
DWIDTH 8 0
BBX 8 13 0 -2
BITMAP
32
7E
4C
00
FC
E6
C6
C6
C6
C6
C6
06
06
ENDCHAR

STARTCHAR uni1FC7
ENCODING 8135
SWIDTH 568 0
DWIDTH 8 0
BBX 8 13 0 -2
BITMAP
32
7E
4C
00
FC
E6
C6
C6
C6
C6
C6
06
C6
ENDCHAR

STARTCHAR uni1FC8
ENCODING 8136
SWIDTH 568 0
DWIDTH 8 0
BBX 8 13 0 -2
BITMAP
00
FE
70
30
30
3C
30
30
30
30
3E
00
00
ENDCHAR

STARTCHAR uni1FC9
ENCODING 8137
SWIDTH 568 0
DWIDTH 8 0
BBX 8 13 0 -2
BITMAP
00
FE
B0
30
30
3C
30
30
30
30
3E
00
00
ENDCHAR

STARTCHAR uni1FCA
ENCODING 8138
SWIDTH 568 0
DWIDTH 8 0
BBX 8 13 0 -2
BITMAP
00
F6
76
36
36
3E
36
36
36
36
36
00
00
ENDCHAR

STARTCHAR uni1FCB
ENCODING 8139
SWIDTH 568 0
DWIDTH 8 0
BBX 8 13 0 -2
BITMAP
00
F6
B6
36
36
3E
36
36
36
36
36
00
00
ENDCHAR

STARTCHAR uni1FCC
ENCODING 8140
SWIDTH 568 0
DWIDTH 8 0
BBX 8 13 0 -2
BITMAP
00
C6
C6
C6
C6
FE
C6
C6
C6
C6
C6
30
38
ENDCHAR

STARTCHAR uni1FCD
ENCODING 8141
SWIDTH 568 0
DWIDTH 8 0
BBX 8 13 0 -2
BITMAP
00
F8
6C
C0
00
00
00
00
00
00
00
00
00
ENDCHAR

STARTCHAR uni1FCE
ENCODING 8142
SWIDTH 568 0
DWIDTH 8 0
BBX 8 13 0 -2
BITMAP
00
EC
78
C0
00
00
00
00
00
00
00
00
00
ENDCHAR

STARTCHAR uni1FCF
ENCODING 8143
SWIDTH 568 0
DWIDTH 8 0
BBX 8 13 0 -2
BITMAP
00
64
B8
18
30
00
00
00
00
00
00
00
00
ENDCHAR

STARTCHAR uni1FD0
ENCODING 8144
SWIDTH 568 0
DWIDTH 8 0
BBX 8 13 0 -2
BITMAP
00
C6
7C
00
30
30
30
30
30
36
1C
00
00
ENDCHAR

STARTCHAR uni1FD1
ENCODING 8145
SWIDTH 568 0
DWIDTH 8 0
BBX 8 13 0 -2
BITMAP
00
FE
00
00
30
30
30
30
30
36
1C
00
00
ENDCHAR

STARTCHAR uni1FD2
ENCODING 8146
SWIDTH 568 0
DWIDTH 8 0
BBX 8 13 0 -2
BITMAP
00
F6
DE
00
30
30
30
30
30
36
1C
00
00
ENDCHAR

STARTCHAR uni1FD3
ENCODING 8147
SWIDTH 568 0
DWIDTH 8 0
BBX 8 13 0 -2
BITMAP
00
DE
F6
00
30
30
30
30
30
36
1C
00
00
ENDCHAR

STARTCHAR uni1FD6
ENCODING 8150
SWIDTH 568 0
DWIDTH 8 0
BBX 8 13 0 -2
BITMAP
64
FC
98
00
30
30
30
30
30
36
1C
00
00
ENDCHAR

STARTCHAR uni1FD7
ENCODING 8151
SWIDTH 568 0
DWIDTH 8 0
BBX 8 13 0 -2
BITMAP
64
FC
98
CC
00
30
30
30
30
36
1C
00
00
ENDCHAR

STARTCHAR uni1FD8
ENCODING 8152
SWIDTH 568 0
DWIDTH 8 0
BBX 8 13 0 -2
BITMAP
C6
7C
00
3C
18
18
18
18
18
18
3C
00
00
ENDCHAR

STARTCHAR uni1FD9
ENCODING 8153
SWIDTH 568 0
DWIDTH 8 0
BBX 8 13 0 -2
BITMAP
00
7E
00
3C
18
18
18
18
18
18
3C
00
00
ENDCHAR

STARTCHAR uni1FDA
ENCODING 8154
SWIDTH 568 0
DWIDTH 8 0
BBX 8 13 0 -2
BITMAP
00
DE
4C
0C
0C
0C
0C
0C
0C
0C
1E
00
00
ENDCHAR

STARTCHAR uni1FDB
ENCODING 8155
SWIDTH 568 0
DWIDTH 8 0
BBX 8 13 0 -2
BITMAP
00
DE
8C
0C
0C
0C
0C
0C
0C
0C
1E
00
00
ENDCHAR

STARTCHAR uni1FDD
ENCODING 8157
SWIDTH 568 0
DWIDTH 8 0
BBX 8 13 0 -2
BITMAP
00
F8
CC
60
00
00
00
00
00
00
00
00
00
ENDCHAR

STARTCHAR uni1FDE
ENCODING 8158
SWIDTH 568 0
DWIDTH 8 0
BBX 8 13 0 -2
BITMAP
00
EC
D8
60
00
00
00
00
00
00
00
00
00
ENDCHAR

STARTCHAR uni1FDF
ENCODING 8159
SWIDTH 568 0
DWIDTH 8 0
BBX 8 13 0 -2
BITMAP
00
64
B8
30
18
00
00
00
00
00
00
00
00
ENDCHAR

STARTCHAR uni1FE0
ENCODING 8160
SWIDTH 568 0
DWIDTH 8 0
BBX 8 13 0 -2
BITMAP
00
C6
7C
00
C6
C6
C6
C6
C6
C6
7C
00
00
ENDCHAR

STARTCHAR uni1FE1
ENCODING 8161
SWIDTH 568 0
DWIDTH 8 0
BBX 8 13 0 -2
BITMAP
00
FE
00
00
C6
C6
C6
C6
C6
C6
7C
00
00
ENDCHAR

STARTCHAR uni1FE2
ENCODING 8162
SWIDTH 568 0
DWIDTH 8 0
BBX 8 13 0 -2
BITMAP
00
F6
DE
00
C6
C6
C6
C6
C6
C6
7C
00
00
ENDCHAR

STARTCHAR uni1FE3
ENCODING 8163
SWIDTH 568 0
DWIDTH 8 0
BBX 8 13 0 -2
BITMAP
00
DE
F6
00
C6
C6
C6
C6
C6
C6
7C
00
00
ENDCHAR

STARTCHAR uni1FE4
ENCODING 8164
SWIDTH 568 0
DWIDTH 8 0
BBX 8 13 0 -2
BITMAP
38
18
30
00
7C
C6
C6
C6
C6
E6
FC
C0
C0
ENDCHAR

STARTCHAR uni1FE5
ENCODING 8165
SWIDTH 568 0
DWIDTH 8 0
BBX 8 13 0 -2
BITMAP
38
30
18
00
7C
C6
C6
C6
C6
E6
FC
C0
C0
ENDCHAR

STARTCHAR uni1FE6
ENCODING 8166
SWIDTH 568 0
DWIDTH 8 0
BBX 8 13 0 -2
BITMAP
32
7E
4C
00
C6
C6
C6
C6
C6
C6
7C
00
00
ENDCHAR

STARTCHAR uni1FE7
ENCODING 8167
SWIDTH 568 0
DWIDTH 8 0
BBX 8 13 0 -2
BITMAP
72
FE
8C
C6
00
C6
C6
C6
C6
C6
7C
00
00
ENDCHAR

STARTCHAR uni1FE8
ENCODING 8168
SWIDTH 568 0
DWIDTH 8 0
BBX 8 13 0 -2
BITMAP
C6
7C
00
66
24
3C
18
18
18
18
18
00
00
ENDCHAR

STARTCHAR uni1FE9
ENCODING 8169
SWIDTH 568 0
DWIDTH 8 0
BBX 8 13 0 -2
BITMAP
00
7E
00
66
24
3C
18
18
18
18
18
00
00
ENDCHAR

STARTCHAR uni1FEA
ENCODING 8170
SWIDTH 568 0
DWIDTH 8 0
BBX 8 13 0 -2
BITMAP
00
F3
73
33
1E
1E
0C
0C
0C
0C
0C
00
00
ENDCHAR

STARTCHAR uni1FEB
ENCODING 8171
SWIDTH 568 0
DWIDTH 8 0
BBX 8 13 0 -2
BITMAP
00
F3
B3
33
1E
1E
0C
0C
0C
0C
0C
00
00
ENDCHAR

STARTCHAR uni1FEC
ENCODING 8172
SWIDTH 568 0
DWIDTH 8 0
BBX 8 13 0 -2
BITMAP
00
FC
B6
76
36
36
3C
30
30
30
30
00
00
ENDCHAR

STARTCHAR uni1FED
ENCODING 8173
SWIDTH 568 0
DWIDTH 8 0
BBX 8 13 0 -2
BITMAP
00
F6
DE
00
00
00
00
00
00
00
00
00
00
ENDCHAR

STARTCHAR uni1FEE
ENCODING 8174
SWIDTH 568 0
DWIDTH 8 0
BBX 8 13 0 -2
BITMAP
00
DE
F6
00
00
00
00
00
00
00
00
00
00
ENDCHAR

STARTCHAR uni1FEF
ENCODING 8175
SWIDTH 568 0
DWIDTH 8 0
BBX 8 13 0 -2
BITMAP
00
30
18
00
00
00
00
00
00
00
00
00
00
ENDCHAR

STARTCHAR uni1FF2
ENCODING 8178
SWIDTH 568 0
DWIDTH 8 0
BBX 8 13 0 -2
BITMAP
00
30
18
00
C6
C6
D6
D6
D6
FE
6C
00
18
ENDCHAR

STARTCHAR uni1FF3
ENCODING 8179
SWIDTH 568 0
DWIDTH 8 0
BBX 8 13 0 -2
BITMAP
00
00
00
00
C6
C6
D6
D6
D6
FE
6C
00
18
ENDCHAR

STARTCHAR uni1FF4
ENCODING 8180
SWIDTH 568 0
DWIDTH 8 0
BBX 8 13 0 -2
BITMAP
00
0C
18
00
C6
C6
D6
D6
D6
FE
6C
00
18
ENDCHAR

STARTCHAR uni1FF6
ENCODING 8182
SWIDTH 568 0
DWIDTH 8 0
BBX 8 13 0 -2
BITMAP
32
7E
4C
00
C6
C6
D6
D6
D6
FE
6C
00
00
ENDCHAR

STARTCHAR uni1FF7
ENCODING 8183
SWIDTH 568 0
DWIDTH 8 0
BBX 8 13 0 -2
BITMAP
32
7E
4C
00
C6
C6
D6
D6
D6
FE
6C
00
18
ENDCHAR

STARTCHAR uni1FF8
ENCODING 8184
SWIDTH 568 0
DWIDTH 8 0
BBX 8 13 0 -2
BITMAP
00
DC
76
36
36
36
36
36
36
36
1C
00
00
ENDCHAR

STARTCHAR uni1FF9
ENCODING 8185
SWIDTH 568 0
DWIDTH 8 0
BBX 8 13 0 -2
BITMAP
00
DC
B6
36
36
36
36
36
36
36
1C
00
00
ENDCHAR

STARTCHAR uni1FFA
ENCODING 8186
SWIDTH 568 0
DWIDTH 8 0
BBX 8 13 0 -2
BITMAP
00
DC
76
36
36
36
36
36
1C
1C
36
00
00
ENDCHAR

STARTCHAR uni1FFB
ENCODING 8187
SWIDTH 568 0
DWIDTH 8 0
BBX 8 13 0 -2
BITMAP
00
DC
B6
36
36
36
36
36
1C
1C
36
00
00
ENDCHAR

STARTCHAR uni1FFC
ENCODING 8188
SWIDTH 568 0
DWIDTH 8 0
BBX 8 13 0 -2
BITMAP
00
7C
C6
C6
C6
C6
C6
C6
6C
6C
EE
30
38
ENDCHAR

STARTCHAR uni1FFD
ENCODING 8189
SWIDTH 568 0
DWIDTH 8 0
BBX 8 13 0 -2
BITMAP
00
18
30
00
00
00
00
00
00
00
00
00
00
ENDCHAR

STARTCHAR uni1FFE
ENCODING 8190
SWIDTH 568 0
DWIDTH 8 0
BBX 8 13 0 -2
BITMAP
00
38
30
18
00
00
00
00
00
00
00
00
00
ENDCHAR

STARTCHAR uni2010
ENCODING 8208
SWIDTH 568 0
DWIDTH 8 0
BBX 8 13 0 -2
BITMAP
00
00
00
00
00
00
7C
00
00
00
00
00
00
ENDCHAR

STARTCHAR uni2011
ENCODING 8209
SWIDTH 568 0
DWIDTH 8 0
BBX 8 13 0 -2
BITMAP
00
00
00
00
00
00
7C
00
00
00
00
00
00
ENDCHAR

STARTCHAR figuredash
ENCODING 8210
SWIDTH 568 0
DWIDTH 8 0
BBX 8 13 0 -2
BITMAP
00
00
00
00
00
00
7E
00
00
00
00
00
00
ENDCHAR

STARTCHAR endash
ENCODING 8211
SWIDTH 568 0
DWIDTH 8 0
BBX 8 13 0 -2
BITMAP
00
00
00
00
00
00
7E
00
00
00
00
00
00
ENDCHAR

STARTCHAR emdash
ENCODING 8212
SWIDTH 568 0
DWIDTH 8 0
BBX 8 13 0 -2
BITMAP
00
00
00
00
00
00
FF
00
00
00
00
00
00
ENDCHAR

STARTCHAR afii00208
ENCODING 8213
SWIDTH 568 0
DWIDTH 8 0
BBX 8 13 0 -2
BITMAP
00
00
00
00
00
00
FF
00
00
00
00
00
00
ENDCHAR

STARTCHAR uni2016
ENCODING 8214
SWIDTH 568 0
DWIDTH 8 0
BBX 8 13 0 -2
BITMAP
00
6C
6C
6C
6C
6C
6C
6C
6C
6C
6C
00
00
ENDCHAR

STARTCHAR underscoredbl
ENCODING 8215
SWIDTH 568 0
DWIDTH 8 0
BBX 8 13 0 -2
BITMAP
00
00
00
00
00
00
00
00
00
00
FE
00
FE
ENDCHAR

STARTCHAR quoteleft
ENCODING 8216
SWIDTH 568 0
DWIDTH 8 0
BBX 8 13 0 -2
BITMAP
00
18
30
38
10
00
00
00
00
00
00
00
00
ENDCHAR

STARTCHAR quoteright
ENCODING 8217
SWIDTH 568 0
DWIDTH 8 0
BBX 8 13 0 -2
BITMAP
00
10
38
18
30
00
00
00
00
00
00
00
00
ENDCHAR

STARTCHAR quotesinglbase
ENCODING 8218
SWIDTH 568 0
DWIDTH 8 0
BBX 8 13 0 -2
BITMAP
00
00
00
00
00
00
00
00
10
38
18
30
00
ENDCHAR

STARTCHAR quotereversed
ENCODING 8219
SWIDTH 568 0
DWIDTH 8 0
BBX 8 13 0 -2
BITMAP
00
10
38
30
18
00
00
00
00
00
00
00
00
ENDCHAR

STARTCHAR quotedblleft
ENCODING 8220
SWIDTH 568 0
DWIDTH 8 0
BBX 8 13 0 -2
BITMAP
00
66
CC
EE
44
00
00
00
00
00
00
00
00
ENDCHAR

STARTCHAR quotedblright
ENCODING 8221
SWIDTH 568 0
DWIDTH 8 0
BBX 8 13 0 -2
BITMAP
00
44
EE
66
CC
00
00
00
00
00
00
00
00
ENDCHAR

STARTCHAR quotedblbase
ENCODING 8222
SWIDTH 568 0
DWIDTH 8 0
BBX 8 13 0 -2
BITMAP
00
00
00
00
00
00
00
00
44
EE
66
CC
00
ENDCHAR

STARTCHAR uni201F
ENCODING 8223
SWIDTH 568 0
DWIDTH 8 0
BBX 8 13 0 -2
BITMAP
00
44
EE
CC
66
00
00
00
00
00
00
00
00
ENDCHAR

STARTCHAR dagger
ENCODING 8224
SWIDTH 568 0
DWIDTH 8 0
BBX 8 13 0 -2
BITMAP
00
00
18
18
7E
18
18
18
18
18
18
00
00
ENDCHAR

STARTCHAR daggerdbl
ENCODING 8225
SWIDTH 568 0
DWIDTH 8 0
BBX 8 13 0 -2
BITMAP
00
00
18
18
7E
18
18
18
7E
18
18
00
00
ENDCHAR

STARTCHAR bullet
ENCODING 8226
SWIDTH 568 0
DWIDTH 8 0
BBX 8 13 0 -2
BITMAP
00
00
00
00
38
7C
7C
7C
38
00
00
00
00
ENDCHAR

STARTCHAR uni2023
ENCODING 8227
SWIDTH 568 0
DWIDTH 8 0
BBX 8 13 0 -2
BITMAP
00
00
00
60
70
78
7C
78
70
60
00
00
00
ENDCHAR

STARTCHAR onedotenleader
ENCODING 8228
SWIDTH 568 0
DWIDTH 8 0
BBX 8 13 0 -2
BITMAP
00
00
00
00
00
00
00
00
00
18
18
00
00
ENDCHAR

STARTCHAR twodotenleader
ENCODING 8229
SWIDTH 568 0
DWIDTH 8 0
BBX 8 13 0 -2
BITMAP
00
00
00
00
00
00
00
00
00
6C
6C
00
00
ENDCHAR

STARTCHAR ellipsis
ENCODING 8230
SWIDTH 568 0
DWIDTH 8 0
BBX 8 13 0 -2
BITMAP
00
00
00
00
00
00
00
00
00
DB
DB
00
00
ENDCHAR

STARTCHAR uni2027
ENCODING 8231
SWIDTH 568 0
DWIDTH 8 0
BBX 8 13 0 -2
BITMAP
00
00
00
00
00
00
38
38
00
00
00
00
00
ENDCHAR

STARTCHAR perthousand
ENCODING 8240
SWIDTH 568 0
DWIDTH 8 0
BBX 8 13 0 -2
BITMAP
00
00
E6
A6
EC
18
18
30
7F
75
DF
00
00
ENDCHAR

STARTCHAR uni2031
ENCODING 8241
SWIDTH 568 0
DWIDTH 8 0
BBX 8 13 0 -2
BITMAP
00
00
E6
AC
F8
30
60
C0
FF
D5
FF
00
00
ENDCHAR

STARTCHAR minute
ENCODING 8242
SWIDTH 568 0
DWIDTH 8 0
BBX 8 13 0 -2
BITMAP
00
00
18
18
30
00
00
00
00
00
00
00
00
ENDCHAR

STARTCHAR second
ENCODING 8243
SWIDTH 568 0
DWIDTH 8 0
BBX 8 13 0 -2
BITMAP
00
00
66
66
CC
00
00
00
00
00
00
00
00
ENDCHAR

STARTCHAR uni2034
ENCODING 8244
SWIDTH 568 0
DWIDTH 8 0
BBX 8 13 0 -2
BITMAP
00
00
49
49
92
00
00
00
00
00
00
00
00
ENDCHAR

STARTCHAR uni2035
ENCODING 8245
SWIDTH 568 0
DWIDTH 8 0
BBX 8 13 0 -2
BITMAP
00
00
30
30
18
00
00
00
00
00
00
00
00
ENDCHAR

STARTCHAR uni2036
ENCODING 8246
SWIDTH 568 0
DWIDTH 8 0
BBX 8 13 0 -2
BITMAP
00
00
CC
CC
66
00
00
00
00
00
00
00
00
ENDCHAR

STARTCHAR uni2037
ENCODING 8247
SWIDTH 568 0
DWIDTH 8 0
BBX 8 13 0 -2
BITMAP
00
00
92
92
49
00
00
00
00
00
00
00
00
ENDCHAR

STARTCHAR guilsinglleft
ENCODING 8249
SWIDTH 568 0
DWIDTH 8 0
BBX 8 13 0 -2
BITMAP
00
00
00
0C
18
30
60
30
18
0C
00
00
00
ENDCHAR

STARTCHAR guilsinglright
ENCODING 8250
SWIDTH 568 0
DWIDTH 8 0
BBX 8 13 0 -2
BITMAP
00
00
00
60
30
18
0C
18
30
60
00
00
00
ENDCHAR

STARTCHAR uni203E
ENCODING 8254
SWIDTH 568 0
DWIDTH 8 0
BBX 8 13 0 -2
BITMAP
FF
00
00
00
00
00
00
00
00
00
00
00
00
ENDCHAR

STARTCHAR dong
ENCODING 8363
SWIDTH 568 0
DWIDTH 8 0
BBX 8 13 0 -2
BITMAP
00
06
1F
06
76
CE
C6
C6
C6
CE
76
00
7C
ENDCHAR

STARTCHAR Euro
ENCODING 8364
SWIDTH 568 0
DWIDTH 8 0
BBX 8 13 0 -2
BITMAP
00
00
3C
66
60
F8
60
F8
60
66
3C
00
00
ENDCHAR

STARTCHAR uni20AF
ENCODING 8367
SWIDTH 568 0
DWIDTH 8 0
BBX 8 13 0 -2
BITMAP
00
60
7C
E6
66
66
66
66
E6
B6
FC
00
00
ENDCHAR

STARTCHAR afii61352
ENCODING 8470
SWIDTH 568 0
DWIDTH 8 0
BBX 8 13 0 -2
BITMAP
00
00
F0
D8
DA
DD
DD
DD
DA
D8
DF
00
00
ENDCHAR

STARTCHAR trademark
ENCODING 8482
SWIDTH 568 0
DWIDTH 8 0
BBX 8 13 0 -2
BITMAP
00
00
FB
6F
6F
6F
00
00
00
00
00
00
00
ENDCHAR

STARTCHAR Omega
ENCODING 8486
SWIDTH 568 0
DWIDTH 8 0
BBX 8 13 0 -2
BITMAP
00
7C
C6
C6
C6
C6
C6
C6
6C
6C
EE
00
00
ENDCHAR

STARTCHAR oneeighth
ENCODING 8539
SWIDTH 568 0
DWIDTH 8 0
BBX 8 13 0 -2
BITMAP
20
60
E0
60
60
6E
FB
0E
1B
1B
0E
00
00
ENDCHAR

STARTCHAR threeeighths
ENCODING 8540
SWIDTH 568 0
DWIDTH 8 0
BBX 8 13 0 -2
BITMAP
00
C0
60
C0
60
6E
DB
0E
1B
1B
0E
00
00
ENDCHAR

STARTCHAR fiveeighths
ENCODING 8541
SWIDTH 568 0
DWIDTH 8 0
BBX 8 13 0 -2
BITMAP
00
E0
C0
C0
60
6E
DB
0E
1B
1B
0E
00
00
ENDCHAR

STARTCHAR seveneighths
ENCODING 8542
SWIDTH 568 0
DWIDTH 8 0
BBX 8 13 0 -2
BITMAP
00
F0
30
60
60
CE
DB
0E
1B
1B
0E
00
00
ENDCHAR

STARTCHAR arrowleft
ENCODING 8592
SWIDTH 568 0
DWIDTH 8 0
BBX 8 13 0 -2
BITMAP
00
00
00
00
20
40
FE
FE
40
20
00
00
00
ENDCHAR

STARTCHAR arrowup
ENCODING 8593
SWIDTH 568 0
DWIDTH 8 0
BBX 8 13 0 -2
BITMAP
00
18
3C
5A
18
18
18
18
18
18
18
00
00
ENDCHAR

STARTCHAR arrowright
ENCODING 8594
SWIDTH 568 0
DWIDTH 8 0
BBX 8 13 0 -2
BITMAP
00
00
00
08
04
FE
FE
04
08
00
00
00
00
ENDCHAR

STARTCHAR arrowdown
ENCODING 8595
SWIDTH 568 0
DWIDTH 8 0
BBX 8 13 0 -2
BITMAP
00
18
18
18
18
18
18
18
5A
3C
18
00
00
ENDCHAR

STARTCHAR minus
ENCODING 8722
SWIDTH 568 0
DWIDTH 8 0
BBX 8 13 0 -2
BITMAP
00
00
00
00
00
00
FE
00
00
00
00
00
00
ENDCHAR

STARTCHAR notequal
ENCODING 8800
SWIDTH 568 0
DWIDTH 8 0
BBX 8 13 0 -2
BITMAP
00
00
00
04
0C
FE
18
30
FE
60
40
00
00
ENDCHAR

STARTCHAR lessequal
ENCODING 8804
SWIDTH 568 0
DWIDTH 8 0
BBX 8 13 0 -2
BITMAP
00
00
06
1C
70
C0
70
1C
06
00
FE
00
00
ENDCHAR

STARTCHAR greaterequal
ENCODING 8805
SWIDTH 568 0
DWIDTH 8 0
BBX 8 13 0 -2
BITMAP
00
00
C0
70
1C
06
1C
70
C0
00
FE
00
00
ENDCHAR

STARTCHAR uni23BA
ENCODING 9146
SWIDTH 568 0
DWIDTH 8 0
BBX 8 13 0 -2
BITMAP
FF
FF
00
00
00
00
00
00
00
00
00
00
00
ENDCHAR

STARTCHAR uni23BB
ENCODING 9147
SWIDTH 568 0
DWIDTH 8 0
BBX 8 13 0 -2
BITMAP
00
00
00
FF
FF
00
00
00
00
00
00
00
00
ENDCHAR

STARTCHAR uni23BC
ENCODING 9148
SWIDTH 568 0
DWIDTH 8 0
BBX 8 13 0 -2
BITMAP
00
00
00
00
00
00
00
00
FF
FF
00
00
00
ENDCHAR

STARTCHAR uni23BD
ENCODING 9149
SWIDTH 568 0
DWIDTH 8 0
BBX 8 13 0 -2
BITMAP
00
00
00
00
00
00
00
00
00
00
00
FF
FF
ENDCHAR

STARTCHAR uni2409
ENCODING 9225
SWIDTH 568 0
DWIDTH 8 0
BBX 8 13 0 -2
BITMAP
00
CC
CC
FC
CC
CC
00
7E
18
18
18
18
00
ENDCHAR

STARTCHAR uni240A
ENCODING 9226
SWIDTH 568 0
DWIDTH 8 0
BBX 8 13 0 -2
BITMAP
00
C0
C0
C0
C0
F8
00
3E
30
3C
30
30
00
ENDCHAR

STARTCHAR uni240B
ENCODING 9227
SWIDTH 568 0
DWIDTH 8 0
BBX 8 13 0 -2
BITMAP
00
CC
CC
48
78
30
00
7E
18
18
18
18
00
ENDCHAR

STARTCHAR uni240C
ENCODING 9228
SWIDTH 568 0
DWIDTH 8 0
BBX 8 13 0 -2
BITMAP
00
F8
C0
F0
C0
C0
00
3E
30
3C
30
30
00
ENDCHAR

STARTCHAR uni240D
ENCODING 9229
SWIDTH 568 0
DWIDTH 8 0
BBX 8 13 0 -2
BITMAP
00
7C
C4
C0
C4
7C
00
7C
66
7C
66
66
00
ENDCHAR

STARTCHAR uni2424
ENCODING 9252
SWIDTH 568 0
DWIDTH 8 0
BBX 8 13 0 -2
BITMAP
00
CC
EC
FC
DC
CC
00
30
30
30
30
3E
00
ENDCHAR

STARTCHAR SF100000
ENCODING 9472
SWIDTH 568 0
DWIDTH 8 0
BBX 8 13 0 -2
BITMAP
00
00
00
00
00
FF
FF
00
00
00
00
00
00
ENDCHAR

STARTCHAR SF110000
ENCODING 9474
SWIDTH 568 0
DWIDTH 8 0
BBX 8 13 0 -2
BITMAP
18
18
18
18
18
18
18
18
18
18
18
18
18
ENDCHAR

STARTCHAR SF010000
ENCODING 9484
SWIDTH 568 0
DWIDTH 8 0
BBX 8 13 0 -2
BITMAP
00
00
00
00
00
1F
1F
18
18
18
18
18
18
ENDCHAR

STARTCHAR SF030000
ENCODING 9488
SWIDTH 568 0
DWIDTH 8 0
BBX 8 13 0 -2
BITMAP
00
00
00
00
00
F8
F8
18
18
18
18
18
18
ENDCHAR

STARTCHAR SF020000
ENCODING 9492
SWIDTH 568 0
DWIDTH 8 0
BBX 8 13 0 -2
BITMAP
18
18
18
18
18
1F
1F
00
00
00
00
00
00
ENDCHAR

STARTCHAR SF040000
ENCODING 9496
SWIDTH 568 0
DWIDTH 8 0
BBX 8 13 0 -2
BITMAP
18
18
18
18
18
F8
F8
00
00
00
00
00
00
ENDCHAR

STARTCHAR SF080000
ENCODING 9500
SWIDTH 568 0
DWIDTH 8 0
BBX 8 13 0 -2
BITMAP
18
18
18
18
18
1F
1F
18
18
18
18
18
18
ENDCHAR

STARTCHAR SF090000
ENCODING 9508
SWIDTH 568 0
DWIDTH 8 0
BBX 8 13 0 -2
BITMAP
18
18
18
18
18
F8
F8
18
18
18
18
18
18
ENDCHAR

STARTCHAR SF060000
ENCODING 9516
SWIDTH 568 0
DWIDTH 8 0
BBX 8 13 0 -2
BITMAP
00
00
00
00
00
FF
FF
18
18
18
18
18
18
ENDCHAR

STARTCHAR SF070000
ENCODING 9524
SWIDTH 568 0
DWIDTH 8 0
BBX 8 13 0 -2
BITMAP
18
18
18
18
18
FF
FF
00
00
00
00
00
00
ENDCHAR

STARTCHAR SF050000
ENCODING 9532
SWIDTH 568 0
DWIDTH 8 0
BBX 8 13 0 -2
BITMAP
18
18
18
18
18
FF
FF
18
18
18
18
18
18
ENDCHAR

STARTCHAR uni254C
ENCODING 9548
SWIDTH 568 0
DWIDTH 8 0
BBX 8 13 0 -2
BITMAP
00
00
00
00
00
EE
EE
00
00
00
00
00
00
ENDCHAR

STARTCHAR uni254E
ENCODING 9550
SWIDTH 568 0
DWIDTH 8 0
BBX 8 13 0 -2
BITMAP
18
18
18
18
18
18
00
18
18
18
18
18
00
ENDCHAR

STARTCHAR uni256D
ENCODING 9581
SWIDTH 568 0
DWIDTH 8 0
BBX 8 13 0 -2
BITMAP
00
00
00
00
00
07
0F
1C
18
18
18
18
18
ENDCHAR

STARTCHAR uni256E
ENCODING 9582
SWIDTH 568 0
DWIDTH 8 0
BBX 8 13 0 -2
BITMAP
00
00
00
00
00
E0
F0
38
18
18
18
18
18
ENDCHAR

STARTCHAR uni256F
ENCODING 9583
SWIDTH 568 0
DWIDTH 8 0
BBX 8 13 0 -2
BITMAP
18
18
18
18
38
F0
E0
00
00
00
00
00
00
ENDCHAR

STARTCHAR uni2570
ENCODING 9584
SWIDTH 568 0
DWIDTH 8 0
BBX 8 13 0 -2
BITMAP
18
18
18
18
1C
0F
07
00
00
00
00
00
00
ENDCHAR

STARTCHAR uni2571
ENCODING 9585
SWIDTH 568 0
DWIDTH 8 0
BBX 8 13 0 -2
BITMAP
03
03
06
06
0C
0C
18
30
30
60
60
C0
C0
ENDCHAR

STARTCHAR uni2572
ENCODING 9586
SWIDTH 568 0
DWIDTH 8 0
BBX 8 13 0 -2
BITMAP
C0
C0
60
60
30
30
18
0C
0C
06
06
03
03
ENDCHAR

STARTCHAR uni2573
ENCODING 9587
SWIDTH 568 0
DWIDTH 8 0
BBX 8 13 0 -2
BITMAP
C3
C3
66
66
3C
3C
18
3C
3C
66
66
C3
C3
ENDCHAR

STARTCHAR uni2574
ENCODING 9588
SWIDTH 568 0
DWIDTH 8 0
BBX 8 13 0 -2
BITMAP
00
00
00
00
00
F0
F0
00
00
00
00
00
00
ENDCHAR

STARTCHAR uni2575
ENCODING 9589
SWIDTH 568 0
DWIDTH 8 0
BBX 8 13 0 -2
BITMAP
18
18
18
18
18
18
00
00
00
00
00
00
00
ENDCHAR

STARTCHAR uni2576
ENCODING 9590
SWIDTH 568 0
DWIDTH 8 0
BBX 8 13 0 -2
BITMAP
00
00
00
00
00
0F
0F
00
00
00
00
00
00
ENDCHAR

STARTCHAR uni2577
ENCODING 9591
SWIDTH 568 0
DWIDTH 8 0
BBX 8 13 0 -2
BITMAP
00
00
00
00
00
00
18
18
18
18
18
18
18
ENDCHAR

STARTCHAR shade
ENCODING 9618
SWIDTH 568 0
DWIDTH 8 0
BBX 8 13 0 -2
BITMAP
AA
55
AA
55
AA
55
AA
55
AA
55
AA
55
AA
ENDCHAR

STARTCHAR uni25AE
ENCODING 9646
SWIDTH 568 0
DWIDTH 8 0
BBX 8 13 0 -2
BITMAP
00
00
00
3C
3C
3C
3C
3C
3C
00
00
00
00
ENDCHAR

STARTCHAR uni25C6
ENCODING 9670
SWIDTH 568 0
DWIDTH 8 0
BBX 8 13 0 -2
BITMAP
00
00
00
10
38
7C
FE
7C
38
10
00
00
00
ENDCHAR

STARTCHAR musicalnote
ENCODING 9834
SWIDTH 568 0
DWIDTH 8 0
BBX 8 13 0 -2
BITMAP
00
00
1C
1F
1B
18
18
78
F8
F8
70
00
00
ENDCHAR

STARTCHAR uniFFFD
ENCODING 65533
SWIDTH 568 0
DWIDTH 8 0
BBX 8 13 0 -2
BITMAP
00
7C
C6
92
F2
E6
E6
E6
FE
E6
7C
00
00
ENDCHAR
ENDFONT
